%TF.GenerationSoftware,KiCad,Pcbnew,5.1.9+dfsg1-1+deb11u1*%
%TF.CreationDate,2025-02-02T16:03:13-08:00*%
%TF.ProjectId,esp01Expander,65737030-3145-4787-9061-6e6465722e6b,rev?*%
%TF.SameCoordinates,Original*%
%TF.FileFunction,Legend,Bot*%
%TF.FilePolarity,Positive*%
%FSLAX46Y46*%
G04 Gerber Fmt 4.6, Leading zero omitted, Abs format (unit mm)*
G04 Created by KiCad (PCBNEW 5.1.9+dfsg1-1+deb11u1) date 2025-02-02 16:03:13*
%MOMM*%
%LPD*%
G01*
G04 APERTURE LIST*
%ADD10C,0.150000*%
%ADD11C,0.100000*%
%ADD12C,0.120000*%
G04 APERTURE END LIST*
D10*
X158223040Y-93327782D02*
X157818979Y-93731843D01*
X158728117Y-94236920D02*
X158021010Y-93529813D01*
X158290384Y-94674652D02*
X157583277Y-93967546D01*
X157987338Y-94977698D02*
X157616949Y-94607309D01*
X157583277Y-94506294D01*
X157616949Y-94405278D01*
X157717964Y-94304263D01*
X157818979Y-94270591D01*
X157886323Y-94270591D01*
X157650621Y-95314416D02*
X157179216Y-94843011D01*
X156943514Y-94607309D02*
X157010857Y-94607309D01*
X157010857Y-94674652D01*
X156943514Y-94674652D01*
X156943514Y-94607309D01*
X157010857Y-94674652D01*
X157313903Y-95583790D02*
X157280231Y-95684805D01*
X157145544Y-95819492D01*
X157044529Y-95853164D01*
X156943514Y-95819492D01*
X156909842Y-95785820D01*
X156876170Y-95684805D01*
X156909842Y-95583790D01*
X157010857Y-95482774D01*
X157044529Y-95381759D01*
X157010857Y-95280744D01*
X156977186Y-95247072D01*
X156876170Y-95213400D01*
X156775155Y-95247072D01*
X156674140Y-95348087D01*
X156640468Y-95449103D01*
X156202735Y-96694957D02*
X156169064Y-96795973D01*
X156034377Y-96930660D01*
X155933361Y-96964331D01*
X155832346Y-96930660D01*
X155798674Y-96896988D01*
X155765003Y-96795973D01*
X155798674Y-96694957D01*
X155899690Y-96593942D01*
X155933361Y-96492927D01*
X155899690Y-96391912D01*
X155866018Y-96358240D01*
X155765003Y-96324568D01*
X155663987Y-96358240D01*
X155562972Y-96459255D01*
X155529300Y-96560270D01*
X155158911Y-96863316D02*
X155866018Y-97570423D01*
X155192583Y-96896988D02*
X155091568Y-96930660D01*
X154956881Y-97065347D01*
X154923209Y-97166362D01*
X154923209Y-97233705D01*
X154956881Y-97334721D01*
X155158911Y-97536751D01*
X155259926Y-97570423D01*
X155327270Y-97570423D01*
X155428285Y-97536751D01*
X155562972Y-97402064D01*
X155596644Y-97301049D01*
X154687507Y-98277530D02*
X154317117Y-97907140D01*
X154283446Y-97806125D01*
X154317117Y-97705110D01*
X154451804Y-97570423D01*
X154552820Y-97536751D01*
X154653835Y-98243858D02*
X154754850Y-98210186D01*
X154923209Y-98041827D01*
X154956881Y-97940812D01*
X154923209Y-97839797D01*
X154855865Y-97772453D01*
X154754850Y-97738782D01*
X154653835Y-97772453D01*
X154485476Y-97940812D01*
X154384461Y-97974484D01*
X154014072Y-98883621D02*
X154115087Y-98849949D01*
X154249774Y-98715262D01*
X154283446Y-98614247D01*
X154283446Y-98546904D01*
X154249774Y-98445888D01*
X154047743Y-98243858D01*
X153946728Y-98210186D01*
X153879385Y-98210186D01*
X153778369Y-98243858D01*
X153643682Y-98378545D01*
X153610011Y-98479560D01*
X153441652Y-99456041D02*
X153542667Y-99422369D01*
X153677354Y-99287682D01*
X153711026Y-99186667D01*
X153677354Y-99085652D01*
X153407980Y-98816278D01*
X153306965Y-98782606D01*
X153205949Y-98816278D01*
X153071262Y-98950965D01*
X153037591Y-99051980D01*
X153071262Y-99152995D01*
X153138606Y-99220339D01*
X153542667Y-98950965D01*
X152229469Y-99792759D02*
X151960095Y-100062133D01*
X152599858Y-100365178D02*
X151993766Y-99759087D01*
X151892751Y-99725415D01*
X151791736Y-99759087D01*
X151724392Y-99826430D01*
X152094782Y-100870255D02*
X152128453Y-100769239D01*
X152128453Y-100701896D01*
X152094782Y-100600881D01*
X151892751Y-100398850D01*
X151791736Y-100365178D01*
X151724392Y-100365178D01*
X151623377Y-100398850D01*
X151522362Y-100499865D01*
X151488690Y-100600881D01*
X151488690Y-100668224D01*
X151522362Y-100769239D01*
X151724392Y-100971270D01*
X151825408Y-101004942D01*
X151892751Y-101004942D01*
X151993766Y-100971270D01*
X152094782Y-100870255D01*
X151556034Y-101409003D02*
X151084629Y-100937598D01*
X151219316Y-101072285D02*
X151118301Y-101038613D01*
X151050957Y-101038613D01*
X150949942Y-101072285D01*
X150882599Y-101139629D01*
X150579553Y-102385483D02*
X150108148Y-101914079D01*
X150242835Y-102048766D02*
X150141820Y-102015094D01*
X150074477Y-102015094D01*
X149973461Y-102048766D01*
X149906118Y-102116109D01*
X149838774Y-103058918D02*
X149939790Y-103025247D01*
X150074477Y-102890560D01*
X150108148Y-102789544D01*
X150074477Y-102688529D01*
X149805103Y-102419155D01*
X149704087Y-102385483D01*
X149603072Y-102419155D01*
X149468385Y-102553842D01*
X149434713Y-102654857D01*
X149468385Y-102755873D01*
X149535729Y-102823216D01*
X149939790Y-102553842D01*
X149064324Y-102957903D02*
X149535729Y-103429308D01*
X149131668Y-103025247D02*
X149064324Y-103025247D01*
X148963309Y-103058918D01*
X148862294Y-103159934D01*
X148828622Y-103260949D01*
X148862294Y-103361964D01*
X149232683Y-103732353D01*
X148525576Y-103496651D02*
X148256202Y-103766025D01*
X148188859Y-103361964D02*
X148794950Y-103968056D01*
X148828622Y-104069071D01*
X148794950Y-104170086D01*
X148727607Y-104237430D01*
X148424561Y-104405788D02*
X148424561Y-104473132D01*
X148491904Y-104473132D01*
X148491904Y-104405788D01*
X148424561Y-104405788D01*
X148491904Y-104473132D01*
X160601950Y-94629195D02*
X160702965Y-94595524D01*
X160837652Y-94460836D01*
X160871324Y-94359821D01*
X160871324Y-94292478D01*
X160837652Y-94191462D01*
X160635621Y-93989432D01*
X160534606Y-93955760D01*
X160467263Y-93955760D01*
X160366247Y-93989432D01*
X160231560Y-94124119D01*
X160197889Y-94225134D01*
X160029530Y-95268959D02*
X159659140Y-94898569D01*
X159625469Y-94797554D01*
X159659140Y-94696539D01*
X159793827Y-94561852D01*
X159894843Y-94528180D01*
X159995858Y-95235287D02*
X160096873Y-95201615D01*
X160265232Y-95033256D01*
X160298904Y-94932241D01*
X160265232Y-94831226D01*
X160197889Y-94763882D01*
X160096873Y-94730211D01*
X159995858Y-94763882D01*
X159827499Y-94932241D01*
X159726484Y-94965913D01*
X159591797Y-95706691D02*
X159625469Y-95605676D01*
X159591797Y-95504661D01*
X158985705Y-94898569D01*
X159221408Y-96077081D02*
X159255079Y-95976065D01*
X159221408Y-95875050D01*
X158615316Y-95268959D01*
X158042896Y-97255592D02*
X158446957Y-96851531D01*
X158244927Y-97053561D02*
X157537820Y-96346455D01*
X157706179Y-96380126D01*
X157840866Y-96380126D01*
X157941881Y-96346455D01*
X157470477Y-97289264D02*
X156931729Y-97828012D01*
X156359309Y-98131057D02*
X156392981Y-98030042D01*
X156392981Y-97962699D01*
X156359309Y-97861683D01*
X156325637Y-97828012D01*
X156224622Y-97794340D01*
X156157278Y-97794340D01*
X156056263Y-97828012D01*
X155921576Y-97962699D01*
X155887904Y-98063714D01*
X155887904Y-98131057D01*
X155921576Y-98232073D01*
X155955248Y-98265744D01*
X156056263Y-98299416D01*
X156123607Y-98299416D01*
X156224622Y-98265744D01*
X156359309Y-98131057D01*
X156460324Y-98097386D01*
X156527668Y-98097386D01*
X156628683Y-98131057D01*
X156763370Y-98265744D01*
X156797042Y-98366760D01*
X156797042Y-98434103D01*
X156763370Y-98535118D01*
X156628683Y-98669805D01*
X156527668Y-98703477D01*
X156460324Y-98703477D01*
X156359309Y-98669805D01*
X156224622Y-98535118D01*
X156190950Y-98434103D01*
X156190950Y-98366760D01*
X156224622Y-98265744D01*
X155349156Y-98535118D02*
X155281813Y-98602462D01*
X155248141Y-98703477D01*
X155248141Y-98770821D01*
X155281813Y-98871836D01*
X155382828Y-99040195D01*
X155551187Y-99208553D01*
X155719546Y-99309569D01*
X155820561Y-99343240D01*
X155887904Y-99343240D01*
X155988920Y-99309569D01*
X156056263Y-99242225D01*
X156089935Y-99141210D01*
X156089935Y-99073866D01*
X156056263Y-98972851D01*
X155955248Y-98804492D01*
X155786889Y-98636134D01*
X155618530Y-98535118D01*
X155517515Y-98501447D01*
X155450172Y-98501447D01*
X155349156Y-98535118D01*
X154675721Y-99208553D02*
X154608378Y-99275897D01*
X154574706Y-99376912D01*
X154574706Y-99444256D01*
X154608378Y-99545271D01*
X154709393Y-99713630D01*
X154877752Y-99881988D01*
X155046111Y-99983004D01*
X155147126Y-100016675D01*
X155214469Y-100016675D01*
X155315485Y-99983004D01*
X155382828Y-99915660D01*
X155416500Y-99814645D01*
X155416500Y-99747301D01*
X155382828Y-99646286D01*
X155281813Y-99477927D01*
X155113454Y-99309569D01*
X154945095Y-99208553D01*
X154844080Y-99174882D01*
X154776737Y-99174882D01*
X154675721Y-99208553D01*
X154574706Y-100185034D02*
X154035958Y-100723782D01*
X153463538Y-101026828D02*
X153497210Y-100925813D01*
X153497210Y-100858469D01*
X153463538Y-100757454D01*
X153429866Y-100723782D01*
X153328851Y-100690111D01*
X153261508Y-100690111D01*
X153160492Y-100723782D01*
X153025805Y-100858469D01*
X152992134Y-100959485D01*
X152992134Y-101026828D01*
X153025805Y-101127843D01*
X153059477Y-101161515D01*
X153160492Y-101195187D01*
X153227836Y-101195187D01*
X153328851Y-101161515D01*
X153463538Y-101026828D01*
X153564553Y-100993156D01*
X153631897Y-100993156D01*
X153732912Y-101026828D01*
X153867599Y-101161515D01*
X153901271Y-101262530D01*
X153901271Y-101329874D01*
X153867599Y-101430889D01*
X153732912Y-101565576D01*
X153631897Y-101599248D01*
X153564553Y-101599248D01*
X153463538Y-101565576D01*
X153328851Y-101430889D01*
X153295179Y-101329874D01*
X153295179Y-101262530D01*
X153328851Y-101161515D01*
X152285027Y-101599248D02*
X152419714Y-101464561D01*
X152520729Y-101430889D01*
X152588073Y-101430889D01*
X152756431Y-101464561D01*
X152924790Y-101565576D01*
X153194164Y-101834950D01*
X153227836Y-101935965D01*
X153227836Y-102003309D01*
X153194164Y-102104324D01*
X153059477Y-102239011D01*
X152958462Y-102272683D01*
X152891118Y-102272683D01*
X152790103Y-102239011D01*
X152621744Y-102070652D01*
X152588073Y-101969637D01*
X152588073Y-101902294D01*
X152621744Y-101801278D01*
X152756431Y-101666591D01*
X152857447Y-101632920D01*
X152924790Y-101632920D01*
X153025805Y-101666591D01*
X151981981Y-101902294D02*
X151510577Y-102373698D01*
X152520729Y-102777759D01*
X151678935Y-103080805D02*
X151140187Y-103619553D01*
X150029020Y-103855255D02*
X150365737Y-103518538D01*
X150736126Y-103821583D01*
X150668783Y-103821583D01*
X150567768Y-103855255D01*
X150399409Y-104023614D01*
X150365737Y-104124629D01*
X150365737Y-104191973D01*
X150399409Y-104292988D01*
X150567768Y-104461347D01*
X150668783Y-104495018D01*
X150736126Y-104495018D01*
X150837142Y-104461347D01*
X151005500Y-104292988D01*
X151039172Y-104191973D01*
X151039172Y-104124629D01*
X149759646Y-104124629D02*
X149321913Y-104562362D01*
X149826989Y-104596034D01*
X149725974Y-104697049D01*
X149692302Y-104798064D01*
X149692302Y-104865408D01*
X149725974Y-104966423D01*
X149894333Y-105134782D01*
X149995348Y-105168453D01*
X150062691Y-105168453D01*
X150163707Y-105134782D01*
X150365737Y-104932751D01*
X150399409Y-104831736D01*
X150399409Y-104764392D01*
X148884180Y-105000095D02*
X148816836Y-105067438D01*
X148783165Y-105168453D01*
X148783165Y-105235797D01*
X148816836Y-105336812D01*
X148917852Y-105505171D01*
X149086211Y-105673530D01*
X149254569Y-105774545D01*
X149355585Y-105808217D01*
X149422928Y-105808217D01*
X149523943Y-105774545D01*
X149591287Y-105707201D01*
X149624959Y-105606186D01*
X149624959Y-105538843D01*
X149591287Y-105437827D01*
X149490272Y-105269469D01*
X149321913Y-105101110D01*
X149153554Y-105000095D01*
X149052539Y-104966423D01*
X148985195Y-104966423D01*
X148884180Y-105000095D01*
X149018867Y-106279621D02*
X148884180Y-106414308D01*
X148783165Y-106447980D01*
X148715821Y-106447980D01*
X148547462Y-106414308D01*
X148379104Y-106313293D01*
X148109730Y-106043919D01*
X148076058Y-105942904D01*
X148076058Y-105875560D01*
X148109730Y-105774545D01*
X148244417Y-105639858D01*
X148345432Y-105606186D01*
X148412775Y-105606186D01*
X148513791Y-105639858D01*
X148682149Y-105808217D01*
X148715821Y-105909232D01*
X148715821Y-105976576D01*
X148682149Y-106077591D01*
X148547462Y-106212278D01*
X148446447Y-106245950D01*
X148379104Y-106245950D01*
X148278088Y-106212278D01*
X138673766Y-96263782D02*
X139178843Y-96768859D01*
X139313530Y-96836202D01*
X139448217Y-96836202D01*
X139582904Y-96768859D01*
X139650247Y-96701515D01*
X138741110Y-97610652D02*
X138370721Y-97240263D01*
X138337049Y-97139248D01*
X138370721Y-97038233D01*
X138505408Y-96903546D01*
X138606423Y-96869874D01*
X138707438Y-97576981D02*
X138808453Y-97543309D01*
X138976812Y-97374950D01*
X139010484Y-97273935D01*
X138976812Y-97172920D01*
X138909469Y-97105576D01*
X138808453Y-97071904D01*
X138707438Y-97105576D01*
X138539079Y-97273935D01*
X138438064Y-97307607D01*
X137932988Y-97475965D02*
X138404392Y-97947370D01*
X138000331Y-97543309D02*
X137932988Y-97543309D01*
X137831973Y-97576981D01*
X137730957Y-97677996D01*
X137697286Y-97779011D01*
X137730957Y-97880026D01*
X138101347Y-98250416D01*
X136619790Y-98452446D02*
X136552446Y-98452446D01*
X136451431Y-98486118D01*
X136283072Y-98654477D01*
X136249400Y-98755492D01*
X136249400Y-98822835D01*
X136283072Y-98923851D01*
X136350416Y-98991194D01*
X136485103Y-99058538D01*
X137293225Y-99058538D01*
X136855492Y-99496270D01*
X135710652Y-99226896D02*
X135643309Y-99294240D01*
X135609637Y-99395255D01*
X135609637Y-99462599D01*
X135643309Y-99563614D01*
X135744324Y-99731973D01*
X135912683Y-99900331D01*
X136081042Y-100001347D01*
X136182057Y-100035018D01*
X136249400Y-100035018D01*
X136350416Y-100001347D01*
X136417759Y-99934003D01*
X136451431Y-99832988D01*
X136451431Y-99765644D01*
X136417759Y-99664629D01*
X136316744Y-99496270D01*
X136148385Y-99327912D01*
X135980026Y-99226896D01*
X135879011Y-99193225D01*
X135811668Y-99193225D01*
X135710652Y-99226896D01*
X135272920Y-99799316D02*
X135205576Y-99799316D01*
X135104561Y-99832988D01*
X134936202Y-100001347D01*
X134902530Y-100102362D01*
X134902530Y-100169705D01*
X134936202Y-100270721D01*
X135003546Y-100338064D01*
X135138233Y-100405408D01*
X135946355Y-100405408D01*
X135508622Y-100843140D01*
X134161752Y-100775797D02*
X134498469Y-100439079D01*
X134868859Y-100742125D01*
X134801515Y-100742125D01*
X134700500Y-100775797D01*
X134532141Y-100944156D01*
X134498469Y-101045171D01*
X134498469Y-101112514D01*
X134532141Y-101213530D01*
X134700500Y-101381888D01*
X134801515Y-101415560D01*
X134868859Y-101415560D01*
X134969874Y-101381888D01*
X135138233Y-101213530D01*
X135171904Y-101112514D01*
X135171904Y-101045171D01*
X124226892Y-94852870D02*
X123519785Y-94145763D01*
X123789159Y-94886542D01*
X123048381Y-94617168D01*
X123755488Y-95324275D01*
X123317755Y-95762007D02*
X123351427Y-95660992D01*
X123351427Y-95593649D01*
X123317755Y-95492633D01*
X123115724Y-95290603D01*
X123014709Y-95256931D01*
X122947366Y-95256931D01*
X122846350Y-95290603D01*
X122745335Y-95391618D01*
X122711663Y-95492633D01*
X122711663Y-95559977D01*
X122745335Y-95660992D01*
X122947366Y-95863023D01*
X123048381Y-95896694D01*
X123115724Y-95896694D01*
X123216740Y-95863023D01*
X123317755Y-95762007D01*
X122779007Y-96300755D02*
X122071900Y-95593649D01*
X122475961Y-96603801D02*
X122105572Y-96233412D01*
X122071900Y-96132397D01*
X122105572Y-96031381D01*
X122206587Y-95930366D01*
X122307602Y-95896694D01*
X122374946Y-95896694D01*
X122139244Y-96940519D02*
X121667839Y-96469114D01*
X121802526Y-96603801D02*
X121701511Y-96570129D01*
X121634167Y-96570129D01*
X121533152Y-96603801D01*
X121465809Y-96671145D01*
X120859717Y-98152702D02*
X120960732Y-98119030D01*
X121095419Y-97984343D01*
X121129091Y-97883328D01*
X121095419Y-97782312D01*
X120826045Y-97512938D01*
X120725030Y-97479267D01*
X120624015Y-97512938D01*
X120489328Y-97647625D01*
X120455656Y-97748641D01*
X120489328Y-97849656D01*
X120556671Y-97917000D01*
X120960732Y-97647625D01*
X120556671Y-98455748D02*
X120523000Y-98556763D01*
X120388312Y-98691450D01*
X120287297Y-98725122D01*
X120186282Y-98691450D01*
X120152610Y-98657778D01*
X120118938Y-98556763D01*
X120152610Y-98455748D01*
X120253625Y-98354732D01*
X120287297Y-98253717D01*
X120253625Y-98152702D01*
X120219954Y-98119030D01*
X120118938Y-98085358D01*
X120017923Y-98119030D01*
X119916908Y-98220045D01*
X119883236Y-98321061D01*
X119512847Y-98624106D02*
X120219954Y-99331213D01*
X119546519Y-98657778D02*
X119445503Y-98691450D01*
X119310816Y-98826137D01*
X119277145Y-98927152D01*
X119277145Y-98994496D01*
X119310816Y-99095511D01*
X119512847Y-99297541D01*
X119613862Y-99331213D01*
X119681206Y-99331213D01*
X119782221Y-99297541D01*
X119916908Y-99162854D01*
X119950580Y-99061839D01*
X119075114Y-99465900D02*
X118536366Y-100004648D01*
X117627229Y-100038320D02*
X117559885Y-100105663D01*
X117526214Y-100206679D01*
X117526214Y-100274022D01*
X117559885Y-100375037D01*
X117660901Y-100543396D01*
X117829259Y-100711755D01*
X117997618Y-100812770D01*
X118098633Y-100846442D01*
X118165977Y-100846442D01*
X118266992Y-100812770D01*
X118334336Y-100745427D01*
X118368007Y-100644411D01*
X118368007Y-100577068D01*
X118334336Y-100476053D01*
X118233320Y-100307694D01*
X118064962Y-100139335D01*
X117896603Y-100038320D01*
X117795588Y-100004648D01*
X117728244Y-100004648D01*
X117627229Y-100038320D01*
X117425198Y-101654564D02*
X117829259Y-101250503D01*
X117627229Y-101452533D02*
X116920122Y-100745427D01*
X117088481Y-100779098D01*
X117223168Y-100779098D01*
X117324183Y-100745427D01*
D11*
X164690822Y-89914538D02*
X164337269Y-90268091D01*
X165019122Y-89838776D02*
X164766583Y-90343852D01*
X164438284Y-90015553D01*
X164059477Y-89990299D02*
X164589807Y-89459969D01*
X164211000Y-89737761D02*
X163857446Y-89788269D01*
X164211000Y-89434715D02*
X164211000Y-89838776D01*
X164211000Y-89081162D02*
X163857446Y-88727608D01*
X163554400Y-89485223D01*
X128101285Y-89572714D02*
X128101285Y-89144142D01*
X128101285Y-89358428D02*
X127351285Y-89358428D01*
X127458428Y-89287000D01*
X127529857Y-89215571D01*
X127565571Y-89144142D01*
X128101285Y-89894142D02*
X127351285Y-89894142D01*
X127815571Y-89965571D02*
X128101285Y-90179857D01*
X127601285Y-90179857D02*
X127887000Y-89894142D01*
X134260714Y-88616285D02*
X133796428Y-88616285D01*
X134046428Y-88902000D01*
X133939285Y-88902000D01*
X133867857Y-88937714D01*
X133832142Y-88973428D01*
X133796428Y-89044857D01*
X133796428Y-89223428D01*
X133832142Y-89294857D01*
X133867857Y-89330571D01*
X133939285Y-89366285D01*
X134153571Y-89366285D01*
X134225000Y-89330571D01*
X134260714Y-89294857D01*
X133475000Y-89366285D02*
X133475000Y-88616285D01*
X133403571Y-89080571D02*
X133189285Y-89366285D01*
X133189285Y-88866285D02*
X133475000Y-89152000D01*
X132939285Y-88616285D02*
X132475000Y-88616285D01*
X132725000Y-88902000D01*
X132617857Y-88902000D01*
X132546428Y-88937714D01*
X132510714Y-88973428D01*
X132475000Y-89044857D01*
X132475000Y-89223428D01*
X132510714Y-89294857D01*
X132546428Y-89330571D01*
X132617857Y-89366285D01*
X132832142Y-89366285D01*
X132903571Y-89330571D01*
X132939285Y-89294857D01*
D10*
X114226431Y-104130851D02*
X114260103Y-104231866D01*
X114394790Y-104366553D01*
X114495805Y-104400225D01*
X114563148Y-104400225D01*
X114664164Y-104366553D01*
X114866194Y-104164522D01*
X114899866Y-104063507D01*
X114899866Y-103996164D01*
X114866194Y-103895148D01*
X114731507Y-103760461D01*
X114630492Y-103726790D01*
X142891215Y-92536635D02*
X142924887Y-92637650D01*
X143059574Y-92772337D01*
X143160589Y-92806009D01*
X143227932Y-92806009D01*
X143328948Y-92772337D01*
X143530978Y-92570306D01*
X143564650Y-92469291D01*
X143564650Y-92401948D01*
X143530978Y-92300932D01*
X143396291Y-92166245D01*
X143295276Y-92132574D01*
X160798215Y-92409635D02*
X160831887Y-92510650D01*
X160966574Y-92645337D01*
X161067589Y-92679009D01*
X161134932Y-92679009D01*
X161235948Y-92645337D01*
X161437978Y-92443306D01*
X161471650Y-92342291D01*
X161471650Y-92274948D01*
X161437978Y-92173932D01*
X161303291Y-92039245D01*
X161202276Y-92005574D01*
X178234431Y-92573851D02*
X178268103Y-92674866D01*
X178402790Y-92809553D01*
X178503805Y-92843225D01*
X178571148Y-92843225D01*
X178672164Y-92809553D01*
X178874194Y-92607522D01*
X178907866Y-92506507D01*
X178907866Y-92439164D01*
X178874194Y-92338148D01*
X178739507Y-92203461D01*
X178638492Y-92169790D01*
X156993476Y-110974142D02*
X156945857Y-111021761D01*
X156993476Y-111069380D01*
X157041095Y-111021761D01*
X156993476Y-110974142D01*
X156993476Y-111069380D01*
X156517285Y-110974142D02*
X156469666Y-111021761D01*
X156517285Y-111069380D01*
X156564904Y-111021761D01*
X156517285Y-110974142D01*
X156517285Y-111069380D01*
X156041095Y-110974142D02*
X155993476Y-111021761D01*
X156041095Y-111069380D01*
X156088714Y-111021761D01*
X156041095Y-110974142D01*
X156041095Y-111069380D01*
X155136333Y-111069380D02*
X155136333Y-110545571D01*
X155183952Y-110450333D01*
X155279190Y-110402714D01*
X155469666Y-110402714D01*
X155564904Y-110450333D01*
X155136333Y-111021761D02*
X155231571Y-111069380D01*
X155469666Y-111069380D01*
X155564904Y-111021761D01*
X155612523Y-110926523D01*
X155612523Y-110831285D01*
X155564904Y-110736047D01*
X155469666Y-110688428D01*
X155231571Y-110688428D01*
X155136333Y-110640809D01*
X154660142Y-110402714D02*
X154660142Y-111069380D01*
X154660142Y-110497952D02*
X154612523Y-110450333D01*
X154517285Y-110402714D01*
X154374428Y-110402714D01*
X154279190Y-110450333D01*
X154231571Y-110545571D01*
X154231571Y-111069380D01*
X153326809Y-111069380D02*
X153326809Y-110069380D01*
X153326809Y-111021761D02*
X153422047Y-111069380D01*
X153612523Y-111069380D01*
X153707761Y-111021761D01*
X153755380Y-110974142D01*
X153803000Y-110878904D01*
X153803000Y-110593190D01*
X153755380Y-110497952D01*
X153707761Y-110450333D01*
X153612523Y-110402714D01*
X153422047Y-110402714D01*
X153326809Y-110450333D01*
X152088714Y-111069380D02*
X152088714Y-110069380D01*
X150898238Y-111021761D02*
X150803000Y-111069380D01*
X150612523Y-111069380D01*
X150517285Y-111021761D01*
X150469666Y-110926523D01*
X150469666Y-110878904D01*
X150517285Y-110783666D01*
X150612523Y-110736047D01*
X150755380Y-110736047D01*
X150850619Y-110688428D01*
X150898238Y-110593190D01*
X150898238Y-110545571D01*
X150850619Y-110450333D01*
X150755380Y-110402714D01*
X150612523Y-110402714D01*
X150517285Y-110450333D01*
X150183952Y-110402714D02*
X149803000Y-110402714D01*
X150041095Y-110069380D02*
X150041095Y-110926523D01*
X149993476Y-111021761D01*
X149898238Y-111069380D01*
X149803000Y-111069380D01*
X149469666Y-111069380D02*
X149469666Y-110402714D01*
X149469666Y-110069380D02*
X149517285Y-110117000D01*
X149469666Y-110164619D01*
X149422047Y-110117000D01*
X149469666Y-110069380D01*
X149469666Y-110164619D01*
X148850619Y-111069380D02*
X148945857Y-111021761D01*
X148993476Y-110926523D01*
X148993476Y-110069380D01*
X148326809Y-111069380D02*
X148422047Y-111021761D01*
X148469666Y-110926523D01*
X148469666Y-110069380D01*
X147183952Y-111069380D02*
X147183952Y-110069380D01*
X146755380Y-111069380D02*
X146755380Y-110545571D01*
X146803000Y-110450333D01*
X146898238Y-110402714D01*
X147041095Y-110402714D01*
X147136333Y-110450333D01*
X147183952Y-110497952D01*
X145850619Y-111069380D02*
X145850619Y-110545571D01*
X145898238Y-110450333D01*
X145993476Y-110402714D01*
X146183952Y-110402714D01*
X146279190Y-110450333D01*
X145850619Y-111021761D02*
X145945857Y-111069380D01*
X146183952Y-111069380D01*
X146279190Y-111021761D01*
X146326809Y-110926523D01*
X146326809Y-110831285D01*
X146279190Y-110736047D01*
X146183952Y-110688428D01*
X145945857Y-110688428D01*
X145850619Y-110640809D01*
X145469666Y-110402714D02*
X145231571Y-111069380D01*
X144993476Y-110402714D01*
X144231571Y-111021761D02*
X144326809Y-111069380D01*
X144517285Y-111069380D01*
X144612523Y-111021761D01*
X144660142Y-110926523D01*
X144660142Y-110545571D01*
X144612523Y-110450333D01*
X144517285Y-110402714D01*
X144326809Y-110402714D01*
X144231571Y-110450333D01*
X144183952Y-110545571D01*
X144183952Y-110640809D01*
X144660142Y-110736047D01*
X143755380Y-110402714D02*
X143755380Y-111069380D01*
X143755380Y-110497952D02*
X143707761Y-110450333D01*
X143612523Y-110402714D01*
X143469666Y-110402714D01*
X143374428Y-110450333D01*
X143326809Y-110545571D01*
X143326809Y-111069380D01*
X142803000Y-110069380D02*
X142898238Y-110259857D01*
X142517285Y-110402714D02*
X142136333Y-110402714D01*
X142374428Y-110069380D02*
X142374428Y-110926523D01*
X142326809Y-111021761D01*
X142231571Y-111069380D01*
X142136333Y-111069380D01*
X141183952Y-110402714D02*
X140803000Y-110402714D01*
X141041095Y-111069380D02*
X141041095Y-110212238D01*
X140993476Y-110117000D01*
X140898238Y-110069380D01*
X140803000Y-110069380D01*
X140326809Y-111069380D02*
X140422047Y-111021761D01*
X140469666Y-110974142D01*
X140517285Y-110878904D01*
X140517285Y-110593190D01*
X140469666Y-110497952D01*
X140422047Y-110450333D01*
X140326809Y-110402714D01*
X140183952Y-110402714D01*
X140088714Y-110450333D01*
X140041095Y-110497952D01*
X139993476Y-110593190D01*
X139993476Y-110878904D01*
X140041095Y-110974142D01*
X140088714Y-111021761D01*
X140183952Y-111069380D01*
X140326809Y-111069380D01*
X139136333Y-110402714D02*
X139136333Y-111069380D01*
X139564904Y-110402714D02*
X139564904Y-110926523D01*
X139517285Y-111021761D01*
X139422047Y-111069380D01*
X139279190Y-111069380D01*
X139183952Y-111021761D01*
X139136333Y-110974142D01*
X138660142Y-110402714D02*
X138660142Y-111069380D01*
X138660142Y-110497952D02*
X138612523Y-110450333D01*
X138517285Y-110402714D01*
X138374428Y-110402714D01*
X138279190Y-110450333D01*
X138231571Y-110545571D01*
X138231571Y-111069380D01*
X137326809Y-111069380D02*
X137326809Y-110069380D01*
X137326809Y-111021761D02*
X137422047Y-111069380D01*
X137612523Y-111069380D01*
X137707761Y-111021761D01*
X137755380Y-110974142D01*
X137803000Y-110878904D01*
X137803000Y-110593190D01*
X137755380Y-110497952D01*
X137707761Y-110450333D01*
X137612523Y-110402714D01*
X137422047Y-110402714D01*
X137326809Y-110450333D01*
X136183952Y-110402714D02*
X135993476Y-111069380D01*
X135803000Y-110593190D01*
X135612523Y-111069380D01*
X135422047Y-110402714D01*
X135041095Y-111069380D02*
X135041095Y-110069380D01*
X134612523Y-111069380D02*
X134612523Y-110545571D01*
X134660142Y-110450333D01*
X134755380Y-110402714D01*
X134898238Y-110402714D01*
X134993476Y-110450333D01*
X135041095Y-110497952D01*
X133707761Y-111069380D02*
X133707761Y-110545571D01*
X133755380Y-110450333D01*
X133850619Y-110402714D01*
X134041095Y-110402714D01*
X134136333Y-110450333D01*
X133707761Y-111021761D02*
X133803000Y-111069380D01*
X134041095Y-111069380D01*
X134136333Y-111021761D01*
X134183952Y-110926523D01*
X134183952Y-110831285D01*
X134136333Y-110736047D01*
X134041095Y-110688428D01*
X133803000Y-110688428D01*
X133707761Y-110640809D01*
X133374428Y-110402714D02*
X132993476Y-110402714D01*
X133231571Y-110069380D02*
X133231571Y-110926523D01*
X133183952Y-111021761D01*
X133088714Y-111069380D01*
X132993476Y-111069380D01*
X131898238Y-111069380D02*
X131898238Y-110069380D01*
X131374428Y-110069380D02*
X131469666Y-110259857D01*
X130945857Y-111069380D02*
X130945857Y-110402714D01*
X130945857Y-110497952D02*
X130898238Y-110450333D01*
X130803000Y-110402714D01*
X130660142Y-110402714D01*
X130564904Y-110450333D01*
X130517285Y-110545571D01*
X130517285Y-111069380D01*
X130517285Y-110545571D02*
X130469666Y-110450333D01*
X130374428Y-110402714D01*
X130231571Y-110402714D01*
X130136333Y-110450333D01*
X130088714Y-110545571D01*
X130088714Y-111069380D01*
X128707761Y-111069380D02*
X128803000Y-111021761D01*
X128850619Y-110926523D01*
X128850619Y-110069380D01*
X128183952Y-111069380D02*
X128279190Y-111021761D01*
X128326809Y-110974142D01*
X128374428Y-110878904D01*
X128374428Y-110593190D01*
X128326809Y-110497952D01*
X128279190Y-110450333D01*
X128183952Y-110402714D01*
X128041095Y-110402714D01*
X127945857Y-110450333D01*
X127898238Y-110497952D01*
X127850619Y-110593190D01*
X127850619Y-110878904D01*
X127898238Y-110974142D01*
X127945857Y-111021761D01*
X128041095Y-111069380D01*
X128183952Y-111069380D01*
X127279190Y-111069380D02*
X127374428Y-111021761D01*
X127422047Y-110974142D01*
X127469666Y-110878904D01*
X127469666Y-110593190D01*
X127422047Y-110497952D01*
X127374428Y-110450333D01*
X127279190Y-110402714D01*
X127136333Y-110402714D01*
X127041095Y-110450333D01*
X126993476Y-110497952D01*
X126945857Y-110593190D01*
X126945857Y-110878904D01*
X126993476Y-110974142D01*
X127041095Y-111021761D01*
X127136333Y-111069380D01*
X127279190Y-111069380D01*
X126517285Y-111069380D02*
X126517285Y-110069380D01*
X126422047Y-110688428D02*
X126136333Y-111069380D01*
X126136333Y-110402714D02*
X126517285Y-110783666D01*
X125707761Y-111069380D02*
X125707761Y-110402714D01*
X125707761Y-110069380D02*
X125755380Y-110117000D01*
X125707761Y-110164619D01*
X125660142Y-110117000D01*
X125707761Y-110069380D01*
X125707761Y-110164619D01*
X125231571Y-110402714D02*
X125231571Y-111069380D01*
X125231571Y-110497952D02*
X125183952Y-110450333D01*
X125088714Y-110402714D01*
X124945857Y-110402714D01*
X124850619Y-110450333D01*
X124803000Y-110545571D01*
X124803000Y-111069380D01*
X123898238Y-110402714D02*
X123898238Y-111212238D01*
X123945857Y-111307476D01*
X123993476Y-111355095D01*
X124088714Y-111402714D01*
X124231571Y-111402714D01*
X124326809Y-111355095D01*
X123898238Y-111021761D02*
X123993476Y-111069380D01*
X124183952Y-111069380D01*
X124279190Y-111021761D01*
X124326809Y-110974142D01*
X124374428Y-110878904D01*
X124374428Y-110593190D01*
X124326809Y-110497952D01*
X124279190Y-110450333D01*
X124183952Y-110402714D01*
X123993476Y-110402714D01*
X123898238Y-110450333D01*
X122803000Y-110402714D02*
X122422047Y-110402714D01*
X122660142Y-111069380D02*
X122660142Y-110212238D01*
X122612523Y-110117000D01*
X122517285Y-110069380D01*
X122422047Y-110069380D01*
X121945857Y-111069380D02*
X122041095Y-111021761D01*
X122088714Y-110974142D01*
X122136333Y-110878904D01*
X122136333Y-110593190D01*
X122088714Y-110497952D01*
X122041095Y-110450333D01*
X121945857Y-110402714D01*
X121803000Y-110402714D01*
X121707761Y-110450333D01*
X121660142Y-110497952D01*
X121612523Y-110593190D01*
X121612523Y-110878904D01*
X121660142Y-110974142D01*
X121707761Y-111021761D01*
X121803000Y-111069380D01*
X121945857Y-111069380D01*
X121183952Y-111069380D02*
X121183952Y-110402714D01*
X121183952Y-110593190D02*
X121136333Y-110497952D01*
X121088714Y-110450333D01*
X120993476Y-110402714D01*
X120898238Y-110402714D01*
X120564904Y-110974142D02*
X120517285Y-111021761D01*
X120564904Y-111069380D01*
X120612523Y-111021761D01*
X120564904Y-110974142D01*
X120564904Y-111069380D01*
X120088714Y-110974142D02*
X120041095Y-111021761D01*
X120088714Y-111069380D01*
X120136333Y-111021761D01*
X120088714Y-110974142D01*
X120088714Y-111069380D01*
X119612523Y-110974142D02*
X119564904Y-111021761D01*
X119612523Y-111069380D01*
X119660142Y-111021761D01*
X119612523Y-110974142D01*
X119612523Y-111069380D01*
D12*
%TO.C,C5*%
X177912437Y-92810529D02*
X178281903Y-93179995D01*
X178916529Y-91806437D02*
X179285995Y-92175903D01*
%TO.C,C4*%
X160513437Y-92683529D02*
X160882903Y-93052995D01*
X161517529Y-91679437D02*
X161886995Y-92048903D01*
%TO.C,C3*%
X142606437Y-92810529D02*
X142975903Y-93179995D01*
X143610529Y-91806437D02*
X143979995Y-92175903D01*
%TO.C,C1*%
X113867221Y-104457313D02*
X114236687Y-104826779D01*
X114871313Y-103453221D02*
X115240779Y-103822687D01*
%TO.C,R5*%
X162344005Y-90958097D02*
X162713471Y-91327563D01*
X163348097Y-89954005D02*
X163717563Y-90323471D01*
%TO.C,R4*%
X133611252Y-88340000D02*
X133088748Y-88340000D01*
X133611252Y-86920000D02*
X133088748Y-86920000D01*
%TO.C,U5*%
X100730000Y-100300000D02*
X101990000Y-100300000D01*
X107550000Y-100300000D02*
X106290000Y-100300000D01*
X100730000Y-104060000D02*
X100730000Y-100300000D01*
X107550000Y-106310000D02*
X107550000Y-100300000D01*
%TO.C,R1*%
X129996000Y-90050252D02*
X129996000Y-89527748D01*
X128576000Y-90050252D02*
X128576000Y-89527748D01*
%TD*%
M02*
