M48
; DRILL file {KiCad 5.1.9+dfsg1-1+deb11u1} date Sun Feb  2 16:03:04 2025
; FORMAT={-:-/ absolute / metric / decimal}
; #@! TF.CreationDate,2025-02-02T16:03:04-08:00
; #@! TF.GenerationSoftware,Kicad,Pcbnew,5.1.9+dfsg1-1+deb11u1
FMAT,2
METRIC
T1C0.400
T2C0.800
T3C1.000
%
G90
G05
T1
X101.201Y-95.649
X101.219Y-98.425
X101.219Y-99.568
X101.346Y-107.442
X102.235Y-107.442
X102.616Y-97.409
X102.616Y-100.711
X104.013Y-108.712
X104.013Y-109.855
X104.031Y-95.649
X104.14Y-102.616
X104.14Y-103.759
X105.664Y-97.409
X105.664Y-100.711
X106.662Y-95.649
X106.934Y-98.425
X106.934Y-99.568
X111.76Y-108.331
X119.316Y-100.484
X129.286Y-88.773
X131.064Y-91.948
X159.639Y-94.615
X161.798Y-110.871
X166.243Y-88.9
X177.8Y-91.821
T2
X110.618Y-102.562
X112.414Y-100.766
X114.21Y-98.97
X116.006Y-97.174
X116.006Y-107.95
X117.802Y-95.378
X117.802Y-106.154
X119.598Y-93.582
X119.598Y-104.358
X121.394Y-91.786
X121.394Y-102.562
X123.19Y-89.989
X123.19Y-100.766
X124.986Y-98.97
X126.782Y-97.174
X128.089Y-102.434
X128.578Y-95.378
X129.886Y-100.638
X131.682Y-98.842
X133.478Y-97.046
X133.478Y-107.822
X135.274Y-95.25
X135.274Y-106.026
X137.07Y-93.454
X137.07Y-104.23
X138.866Y-91.658
X138.866Y-102.434
X140.662Y-89.862
X140.662Y-100.638
X142.458Y-98.842
X144.254Y-97.046
X145.869Y-102.434
X146.05Y-95.25
X147.666Y-100.638
X149.462Y-98.842
X151.258Y-97.046
X151.258Y-107.822
X153.054Y-95.25
X153.054Y-106.026
X154.85Y-93.454
X154.85Y-104.23
X156.646Y-91.658
X156.646Y-102.434
X158.442Y-89.862
X158.442Y-100.638
X160.238Y-98.842
X162.034Y-97.046
X163.522Y-102.562
X163.83Y-95.25
X165.318Y-100.766
X167.114Y-98.97
X168.91Y-97.174
X168.91Y-107.95
X170.706Y-95.378
X170.706Y-106.154
X172.502Y-93.582
X172.502Y-104.358
X174.298Y-91.786
X174.298Y-102.562
X176.094Y-89.989
X176.094Y-100.766
X177.89Y-98.97
X179.686Y-97.174
X181.482Y-95.378
T3
X101.473Y-88.265
X101.473Y-90.805
X102.108Y-113.157
X102.108Y-115.697
X104.013Y-88.265
X104.013Y-90.805
X104.648Y-113.157
X104.648Y-115.697
X106.553Y-88.265
X106.553Y-90.805
X107.188Y-113.157
X107.188Y-115.697
X109.093Y-88.265
X109.093Y-90.805
X109.728Y-113.157
X109.728Y-115.697
X112.268Y-113.157
X112.268Y-115.697
X114.808Y-113.157
X114.808Y-115.697
X117.348Y-113.157
X117.348Y-115.697
X119.888Y-113.157
X119.888Y-115.697
X122.428Y-113.157
X122.428Y-115.697
X124.968Y-113.157
X124.968Y-115.697
X127.508Y-113.157
X127.508Y-115.697
X130.048Y-113.157
X130.048Y-115.697
X132.588Y-113.157
X132.588Y-115.697
X135.128Y-113.157
X135.128Y-115.697
X137.668Y-113.157
X137.668Y-115.697
X140.208Y-113.157
X140.208Y-115.697
X142.748Y-113.157
X142.748Y-115.697
X145.288Y-113.157
X145.288Y-115.697
X147.828Y-113.157
X147.828Y-115.697
X149.479Y-89.535
X150.368Y-113.157
X150.368Y-115.697
X152.908Y-113.157
X152.908Y-115.697
X155.448Y-113.157
X155.448Y-115.697
X157.988Y-113.157
X157.988Y-115.697
X160.528Y-113.157
X160.528Y-115.697
X163.068Y-113.157
X163.068Y-115.697
X165.608Y-113.157
X165.608Y-115.697
X168.148Y-113.157
X168.148Y-115.697
X170.688Y-113.157
X170.688Y-115.697
X173.228Y-113.157
X173.228Y-115.697
X175.768Y-113.157
X175.768Y-115.697
X178.308Y-113.157
X178.308Y-115.697
X180.848Y-113.157
X180.848Y-115.697
T0
M30
