%TF.GenerationSoftware,KiCad,Pcbnew,5.1.9+dfsg1-1+deb11u1*%
%TF.CreationDate,2025-02-02T16:03:13-08:00*%
%TF.ProjectId,esp01Expander,65737030-3145-4787-9061-6e6465722e6b,rev?*%
%TF.SameCoordinates,Original*%
%TF.FileFunction,Soldermask,Bot*%
%TF.FilePolarity,Negative*%
%FSLAX46Y46*%
G04 Gerber Fmt 4.6, Leading zero omitted, Abs format (unit mm)*
G04 Created by KiCad (PCBNEW 5.1.9+dfsg1-1+deb11u1) date 2025-02-02 16:03:13*
%MOMM*%
%LPD*%
G01*
G04 APERTURE LIST*
%ADD10C,0.100000*%
%ADD11R,1.700000X1.700000*%
%ADD12O,1.700000X1.700000*%
%ADD13R,1.500000X2.000000*%
%ADD14R,3.800000X2.000000*%
G04 APERTURE END LIST*
D10*
G36*
X110236000Y-92837000D02*
G01*
X110236000Y-98933000D01*
X108204000Y-100838000D01*
X108204000Y-103886000D01*
X99314000Y-103886000D01*
X99441000Y-92710000D01*
X110236000Y-92837000D01*
G37*
X110236000Y-92837000D02*
X110236000Y-98933000D01*
X108204000Y-100838000D01*
X108204000Y-103886000D01*
X99314000Y-103886000D01*
X99441000Y-92710000D01*
X110236000Y-92837000D01*
D11*
%TO.C,J3*%
X149479000Y-89535000D03*
%TD*%
D12*
%TO.C,J2*%
X101473000Y-90805000D03*
X101473000Y-88265000D03*
X104013000Y-90805000D03*
X104013000Y-88265000D03*
X106553000Y-90805000D03*
X106553000Y-88265000D03*
X109093000Y-90805000D03*
D11*
X109093000Y-88265000D03*
%TD*%
%TO.C,C5*%
G36*
G01*
X178599215Y-93129612D02*
X179235612Y-92493215D01*
G75*
G02*
X179589164Y-92493215I176776J-176776D01*
G01*
X180048785Y-92952836D01*
G75*
G02*
X180048785Y-93306388I-176776J-176776D01*
G01*
X179412388Y-93942785D01*
G75*
G02*
X179058836Y-93942785I-176776J176776D01*
G01*
X178599215Y-93483164D01*
G75*
G02*
X178599215Y-93129612I176776J176776D01*
G01*
G37*
G36*
G01*
X177149647Y-91680044D02*
X177786044Y-91043647D01*
G75*
G02*
X178139596Y-91043647I176776J-176776D01*
G01*
X178599217Y-91503268D01*
G75*
G02*
X178599217Y-91856820I-176776J-176776D01*
G01*
X177962820Y-92493217D01*
G75*
G02*
X177609268Y-92493217I-176776J176776D01*
G01*
X177149647Y-92033596D01*
G75*
G02*
X177149647Y-91680044I176776J176776D01*
G01*
G37*
%TD*%
%TO.C,C4*%
G36*
G01*
X161200215Y-93002612D02*
X161836612Y-92366215D01*
G75*
G02*
X162190164Y-92366215I176776J-176776D01*
G01*
X162649785Y-92825836D01*
G75*
G02*
X162649785Y-93179388I-176776J-176776D01*
G01*
X162013388Y-93815785D01*
G75*
G02*
X161659836Y-93815785I-176776J176776D01*
G01*
X161200215Y-93356164D01*
G75*
G02*
X161200215Y-93002612I176776J176776D01*
G01*
G37*
G36*
G01*
X159750647Y-91553044D02*
X160387044Y-90916647D01*
G75*
G02*
X160740596Y-90916647I176776J-176776D01*
G01*
X161200217Y-91376268D01*
G75*
G02*
X161200217Y-91729820I-176776J-176776D01*
G01*
X160563820Y-92366217D01*
G75*
G02*
X160210268Y-92366217I-176776J176776D01*
G01*
X159750647Y-91906596D01*
G75*
G02*
X159750647Y-91553044I176776J176776D01*
G01*
G37*
%TD*%
%TO.C,C3*%
G36*
G01*
X143293215Y-93129612D02*
X143929612Y-92493215D01*
G75*
G02*
X144283164Y-92493215I176776J-176776D01*
G01*
X144742785Y-92952836D01*
G75*
G02*
X144742785Y-93306388I-176776J-176776D01*
G01*
X144106388Y-93942785D01*
G75*
G02*
X143752836Y-93942785I-176776J176776D01*
G01*
X143293215Y-93483164D01*
G75*
G02*
X143293215Y-93129612I176776J176776D01*
G01*
G37*
G36*
G01*
X141843647Y-91680044D02*
X142480044Y-91043647D01*
G75*
G02*
X142833596Y-91043647I176776J-176776D01*
G01*
X143293217Y-91503268D01*
G75*
G02*
X143293217Y-91856820I-176776J-176776D01*
G01*
X142656820Y-92493217D01*
G75*
G02*
X142303268Y-92493217I-176776J176776D01*
G01*
X141843647Y-92033596D01*
G75*
G02*
X141843647Y-91680044I176776J176776D01*
G01*
G37*
%TD*%
%TO.C,C1*%
G36*
G01*
X114553999Y-104776396D02*
X115190396Y-104139999D01*
G75*
G02*
X115543948Y-104139999I176776J-176776D01*
G01*
X116003569Y-104599620D01*
G75*
G02*
X116003569Y-104953172I-176776J-176776D01*
G01*
X115367172Y-105589569D01*
G75*
G02*
X115013620Y-105589569I-176776J176776D01*
G01*
X114553999Y-105129948D01*
G75*
G02*
X114553999Y-104776396I176776J176776D01*
G01*
G37*
G36*
G01*
X113104431Y-103326828D02*
X113740828Y-102690431D01*
G75*
G02*
X114094380Y-102690431I176776J-176776D01*
G01*
X114554001Y-103150052D01*
G75*
G02*
X114554001Y-103503604I-176776J-176776D01*
G01*
X113917604Y-104140001D01*
G75*
G02*
X113564052Y-104140001I-176776J176776D01*
G01*
X113104431Y-103680380D01*
G75*
G02*
X113104431Y-103326828I176776J176776D01*
G01*
G37*
%TD*%
%TO.C,R5*%
G36*
G01*
X163030783Y-91277180D02*
X163667180Y-90640783D01*
G75*
G02*
X164020732Y-90640783I176776J-176776D01*
G01*
X164480353Y-91100404D01*
G75*
G02*
X164480353Y-91453956I-176776J-176776D01*
G01*
X163843956Y-92090353D01*
G75*
G02*
X163490404Y-92090353I-176776J176776D01*
G01*
X163030783Y-91630732D01*
G75*
G02*
X163030783Y-91277180I176776J176776D01*
G01*
G37*
G36*
G01*
X161581215Y-89827612D02*
X162217612Y-89191215D01*
G75*
G02*
X162571164Y-89191215I176776J-176776D01*
G01*
X163030785Y-89650836D01*
G75*
G02*
X163030785Y-90004388I-176776J-176776D01*
G01*
X162394388Y-90640785D01*
G75*
G02*
X162040836Y-90640785I-176776J176776D01*
G01*
X161581215Y-90181164D01*
G75*
G02*
X161581215Y-89827612I176776J176776D01*
G01*
G37*
%TD*%
%TO.C,R4*%
G36*
G01*
X132900000Y-87179999D02*
X132900000Y-88080001D01*
G75*
G02*
X132650001Y-88330000I-249999J0D01*
G01*
X131999999Y-88330000D01*
G75*
G02*
X131750000Y-88080001I0J249999D01*
G01*
X131750000Y-87179999D01*
G75*
G02*
X131999999Y-86930000I249999J0D01*
G01*
X132650001Y-86930000D01*
G75*
G02*
X132900000Y-87179999I0J-249999D01*
G01*
G37*
G36*
G01*
X134950000Y-87179999D02*
X134950000Y-88080001D01*
G75*
G02*
X134700001Y-88330000I-249999J0D01*
G01*
X134049999Y-88330000D01*
G75*
G02*
X133800000Y-88080001I0J249999D01*
G01*
X133800000Y-87179999D01*
G75*
G02*
X134049999Y-86930000I249999J0D01*
G01*
X134700001Y-86930000D01*
G75*
G02*
X134950000Y-87179999I0J-249999D01*
G01*
G37*
%TD*%
D13*
%TO.C,U5*%
X106440000Y-105360000D03*
X101840000Y-105360000D03*
X104140000Y-105360000D03*
D14*
X104140000Y-99060000D03*
%TD*%
%TO.C,R1*%
G36*
G01*
X129736001Y-89339000D02*
X128835999Y-89339000D01*
G75*
G02*
X128586000Y-89089001I0J249999D01*
G01*
X128586000Y-88438999D01*
G75*
G02*
X128835999Y-88189000I249999J0D01*
G01*
X129736001Y-88189000D01*
G75*
G02*
X129986000Y-88438999I0J-249999D01*
G01*
X129986000Y-89089001D01*
G75*
G02*
X129736001Y-89339000I-249999J0D01*
G01*
G37*
G36*
G01*
X129736001Y-91389000D02*
X128835999Y-91389000D01*
G75*
G02*
X128586000Y-91139001I0J249999D01*
G01*
X128586000Y-90488999D01*
G75*
G02*
X128835999Y-90239000I249999J0D01*
G01*
X129736001Y-90239000D01*
G75*
G02*
X129986000Y-90488999I0J-249999D01*
G01*
X129986000Y-91139001D01*
G75*
G02*
X129736001Y-91389000I-249999J0D01*
G01*
G37*
%TD*%
%TO.C,U4*%
G36*
G01*
X164370374Y-103410374D02*
X164370374Y-103410374D01*
G75*
G02*
X163239004Y-103410374I-565685J565685D01*
G01*
X162673318Y-102844688D01*
G75*
G02*
X162673318Y-101713318I565685J565685D01*
G01*
X162673318Y-101713318D01*
G75*
G02*
X163804688Y-101713318I565685J-565685D01*
G01*
X164370374Y-102279004D01*
G75*
G02*
X164370374Y-103410374I-565685J-565685D01*
G01*
G37*
G36*
G01*
X182330887Y-96226169D02*
X182330887Y-96226169D01*
G75*
G02*
X181199517Y-96226169I-565685J565685D01*
G01*
X180633831Y-95660483D01*
G75*
G02*
X180633831Y-94529113I565685J565685D01*
G01*
X180633831Y-94529113D01*
G75*
G02*
X181765201Y-94529113I565685J-565685D01*
G01*
X182330887Y-95094799D01*
G75*
G02*
X182330887Y-96226169I-565685J-565685D01*
G01*
G37*
G36*
G01*
X166166426Y-101614323D02*
X166166426Y-101614323D01*
G75*
G02*
X165035056Y-101614323I-565685J565685D01*
G01*
X164469370Y-101048637D01*
G75*
G02*
X164469370Y-99917267I565685J565685D01*
G01*
X164469370Y-99917267D01*
G75*
G02*
X165600740Y-99917267I565685J-565685D01*
G01*
X166166426Y-100482953D01*
G75*
G02*
X166166426Y-101614323I-565685J-565685D01*
G01*
G37*
G36*
G01*
X180534835Y-98022221D02*
X180534835Y-98022221D01*
G75*
G02*
X179403465Y-98022221I-565685J565685D01*
G01*
X178837779Y-97456535D01*
G75*
G02*
X178837779Y-96325165I565685J565685D01*
G01*
X178837779Y-96325165D01*
G75*
G02*
X179969149Y-96325165I565685J-565685D01*
G01*
X180534835Y-96890851D01*
G75*
G02*
X180534835Y-98022221I-565685J-565685D01*
G01*
G37*
G36*
G01*
X167962477Y-99818272D02*
X167962477Y-99818272D01*
G75*
G02*
X166831107Y-99818272I-565685J565685D01*
G01*
X166265421Y-99252586D01*
G75*
G02*
X166265421Y-98121216I565685J565685D01*
G01*
X166265421Y-98121216D01*
G75*
G02*
X167396791Y-98121216I565685J-565685D01*
G01*
X167962477Y-98686902D01*
G75*
G02*
X167962477Y-99818272I-565685J-565685D01*
G01*
G37*
G36*
G01*
X178738784Y-99818272D02*
X178738784Y-99818272D01*
G75*
G02*
X177607414Y-99818272I-565685J565685D01*
G01*
X177041728Y-99252586D01*
G75*
G02*
X177041728Y-98121216I565685J565685D01*
G01*
X177041728Y-98121216D01*
G75*
G02*
X178173098Y-98121216I565685J-565685D01*
G01*
X178738784Y-98686902D01*
G75*
G02*
X178738784Y-99818272I-565685J-565685D01*
G01*
G37*
G36*
G01*
X169758528Y-98022221D02*
X169758528Y-98022221D01*
G75*
G02*
X168627158Y-98022221I-565685J565685D01*
G01*
X168061472Y-97456535D01*
G75*
G02*
X168061472Y-96325165I565685J565685D01*
G01*
X168061472Y-96325165D01*
G75*
G02*
X169192842Y-96325165I565685J-565685D01*
G01*
X169758528Y-96890851D01*
G75*
G02*
X169758528Y-98022221I-565685J-565685D01*
G01*
G37*
G36*
G01*
X176942733Y-101614323D02*
X176942733Y-101614323D01*
G75*
G02*
X175811363Y-101614323I-565685J565685D01*
G01*
X175245677Y-101048637D01*
G75*
G02*
X175245677Y-99917267I565685J565685D01*
G01*
X175245677Y-99917267D01*
G75*
G02*
X176377047Y-99917267I565685J-565685D01*
G01*
X176942733Y-100482953D01*
G75*
G02*
X176942733Y-101614323I-565685J-565685D01*
G01*
G37*
G36*
G01*
X171554579Y-96226169D02*
X171554579Y-96226169D01*
G75*
G02*
X170423209Y-96226169I-565685J565685D01*
G01*
X169857523Y-95660483D01*
G75*
G02*
X169857523Y-94529113I565685J565685D01*
G01*
X169857523Y-94529113D01*
G75*
G02*
X170988893Y-94529113I565685J-565685D01*
G01*
X171554579Y-95094799D01*
G75*
G02*
X171554579Y-96226169I-565685J-565685D01*
G01*
G37*
G36*
G01*
X175146682Y-103410374D02*
X175146682Y-103410374D01*
G75*
G02*
X174015312Y-103410374I-565685J565685D01*
G01*
X173449626Y-102844688D01*
G75*
G02*
X173449626Y-101713318I565685J565685D01*
G01*
X173449626Y-101713318D01*
G75*
G02*
X174580996Y-101713318I565685J-565685D01*
G01*
X175146682Y-102279004D01*
G75*
G02*
X175146682Y-103410374I-565685J-565685D01*
G01*
G37*
G36*
G01*
X173350630Y-94430118D02*
X173350630Y-94430118D01*
G75*
G02*
X172219260Y-94430118I-565685J565685D01*
G01*
X171653574Y-93864432D01*
G75*
G02*
X171653574Y-92733062I565685J565685D01*
G01*
X171653574Y-92733062D01*
G75*
G02*
X172784944Y-92733062I565685J-565685D01*
G01*
X173350630Y-93298748D01*
G75*
G02*
X173350630Y-94430118I-565685J-565685D01*
G01*
G37*
G36*
G01*
X173350630Y-105206426D02*
X173350630Y-105206426D01*
G75*
G02*
X172219260Y-105206426I-565685J565685D01*
G01*
X171653574Y-104640740D01*
G75*
G02*
X171653574Y-103509370I565685J565685D01*
G01*
X171653574Y-103509370D01*
G75*
G02*
X172784944Y-103509370I565685J-565685D01*
G01*
X173350630Y-104075056D01*
G75*
G02*
X173350630Y-105206426I-565685J-565685D01*
G01*
G37*
G36*
G01*
X175146682Y-92634067D02*
X175146682Y-92634067D01*
G75*
G02*
X174015312Y-92634067I-565685J565685D01*
G01*
X173449626Y-92068381D01*
G75*
G02*
X173449626Y-90937011I565685J565685D01*
G01*
X173449626Y-90937011D01*
G75*
G02*
X174580996Y-90937011I565685J-565685D01*
G01*
X175146682Y-91502697D01*
G75*
G02*
X175146682Y-92634067I-565685J-565685D01*
G01*
G37*
G36*
G01*
X171554579Y-107002477D02*
X171554579Y-107002477D01*
G75*
G02*
X170423209Y-107002477I-565685J565685D01*
G01*
X169857523Y-106436791D01*
G75*
G02*
X169857523Y-105305421I565685J565685D01*
G01*
X169857523Y-105305421D01*
G75*
G02*
X170988893Y-105305421I565685J-565685D01*
G01*
X171554579Y-105871107D01*
G75*
G02*
X171554579Y-107002477I-565685J-565685D01*
G01*
G37*
G36*
G01*
X176942733Y-90838016D02*
X176942733Y-90838016D01*
G75*
G02*
X175811363Y-90838016I-565685J565685D01*
G01*
X175245677Y-90272330D01*
G75*
G02*
X175245677Y-89140960I565685J565685D01*
G01*
X175245677Y-89140960D01*
G75*
G02*
X176377047Y-89140960I565685J-565685D01*
G01*
X176942733Y-89706646D01*
G75*
G02*
X176942733Y-90838016I-565685J-565685D01*
G01*
G37*
D10*
G36*
X170324214Y-108232843D02*
G01*
X169192843Y-109364214D01*
X167495786Y-107667157D01*
X168627157Y-106535786D01*
X170324214Y-108232843D01*
G37*
%TD*%
%TO.C,U3*%
G36*
G01*
X146718015Y-103282733D02*
X146718015Y-103282733D01*
G75*
G02*
X145586645Y-103282733I-565685J565685D01*
G01*
X145020959Y-102717047D01*
G75*
G02*
X145020959Y-101585677I565685J565685D01*
G01*
X145020959Y-101585677D01*
G75*
G02*
X146152329Y-101585677I565685J-565685D01*
G01*
X146718015Y-102151363D01*
G75*
G02*
X146718015Y-103282733I-565685J-565685D01*
G01*
G37*
G36*
G01*
X164678528Y-96098528D02*
X164678528Y-96098528D01*
G75*
G02*
X163547158Y-96098528I-565685J565685D01*
G01*
X162981472Y-95532842D01*
G75*
G02*
X162981472Y-94401472I565685J565685D01*
G01*
X162981472Y-94401472D01*
G75*
G02*
X164112842Y-94401472I565685J-565685D01*
G01*
X164678528Y-94967158D01*
G75*
G02*
X164678528Y-96098528I-565685J-565685D01*
G01*
G37*
G36*
G01*
X148514067Y-101486682D02*
X148514067Y-101486682D01*
G75*
G02*
X147382697Y-101486682I-565685J565685D01*
G01*
X146817011Y-100920996D01*
G75*
G02*
X146817011Y-99789626I565685J565685D01*
G01*
X146817011Y-99789626D01*
G75*
G02*
X147948381Y-99789626I565685J-565685D01*
G01*
X148514067Y-100355312D01*
G75*
G02*
X148514067Y-101486682I-565685J-565685D01*
G01*
G37*
G36*
G01*
X162882476Y-97894580D02*
X162882476Y-97894580D01*
G75*
G02*
X161751106Y-97894580I-565685J565685D01*
G01*
X161185420Y-97328894D01*
G75*
G02*
X161185420Y-96197524I565685J565685D01*
G01*
X161185420Y-96197524D01*
G75*
G02*
X162316790Y-96197524I565685J-565685D01*
G01*
X162882476Y-96763210D01*
G75*
G02*
X162882476Y-97894580I-565685J-565685D01*
G01*
G37*
G36*
G01*
X150310118Y-99690631D02*
X150310118Y-99690631D01*
G75*
G02*
X149178748Y-99690631I-565685J565685D01*
G01*
X148613062Y-99124945D01*
G75*
G02*
X148613062Y-97993575I565685J565685D01*
G01*
X148613062Y-97993575D01*
G75*
G02*
X149744432Y-97993575I565685J-565685D01*
G01*
X150310118Y-98559261D01*
G75*
G02*
X150310118Y-99690631I-565685J-565685D01*
G01*
G37*
G36*
G01*
X161086425Y-99690631D02*
X161086425Y-99690631D01*
G75*
G02*
X159955055Y-99690631I-565685J565685D01*
G01*
X159389369Y-99124945D01*
G75*
G02*
X159389369Y-97993575I565685J565685D01*
G01*
X159389369Y-97993575D01*
G75*
G02*
X160520739Y-97993575I565685J-565685D01*
G01*
X161086425Y-98559261D01*
G75*
G02*
X161086425Y-99690631I-565685J-565685D01*
G01*
G37*
G36*
G01*
X152106169Y-97894580D02*
X152106169Y-97894580D01*
G75*
G02*
X150974799Y-97894580I-565685J565685D01*
G01*
X150409113Y-97328894D01*
G75*
G02*
X150409113Y-96197524I565685J565685D01*
G01*
X150409113Y-96197524D01*
G75*
G02*
X151540483Y-96197524I565685J-565685D01*
G01*
X152106169Y-96763210D01*
G75*
G02*
X152106169Y-97894580I-565685J-565685D01*
G01*
G37*
G36*
G01*
X159290374Y-101486682D02*
X159290374Y-101486682D01*
G75*
G02*
X158159004Y-101486682I-565685J565685D01*
G01*
X157593318Y-100920996D01*
G75*
G02*
X157593318Y-99789626I565685J565685D01*
G01*
X157593318Y-99789626D01*
G75*
G02*
X158724688Y-99789626I565685J-565685D01*
G01*
X159290374Y-100355312D01*
G75*
G02*
X159290374Y-101486682I-565685J-565685D01*
G01*
G37*
G36*
G01*
X153902220Y-96098528D02*
X153902220Y-96098528D01*
G75*
G02*
X152770850Y-96098528I-565685J565685D01*
G01*
X152205164Y-95532842D01*
G75*
G02*
X152205164Y-94401472I565685J565685D01*
G01*
X152205164Y-94401472D01*
G75*
G02*
X153336534Y-94401472I565685J-565685D01*
G01*
X153902220Y-94967158D01*
G75*
G02*
X153902220Y-96098528I-565685J-565685D01*
G01*
G37*
G36*
G01*
X157494323Y-103282733D02*
X157494323Y-103282733D01*
G75*
G02*
X156362953Y-103282733I-565685J565685D01*
G01*
X155797267Y-102717047D01*
G75*
G02*
X155797267Y-101585677I565685J565685D01*
G01*
X155797267Y-101585677D01*
G75*
G02*
X156928637Y-101585677I565685J-565685D01*
G01*
X157494323Y-102151363D01*
G75*
G02*
X157494323Y-103282733I-565685J-565685D01*
G01*
G37*
G36*
G01*
X155698271Y-94302477D02*
X155698271Y-94302477D01*
G75*
G02*
X154566901Y-94302477I-565685J565685D01*
G01*
X154001215Y-93736791D01*
G75*
G02*
X154001215Y-92605421I565685J565685D01*
G01*
X154001215Y-92605421D01*
G75*
G02*
X155132585Y-92605421I565685J-565685D01*
G01*
X155698271Y-93171107D01*
G75*
G02*
X155698271Y-94302477I-565685J-565685D01*
G01*
G37*
G36*
G01*
X155698271Y-105078785D02*
X155698271Y-105078785D01*
G75*
G02*
X154566901Y-105078785I-565685J565685D01*
G01*
X154001215Y-104513099D01*
G75*
G02*
X154001215Y-103381729I565685J565685D01*
G01*
X154001215Y-103381729D01*
G75*
G02*
X155132585Y-103381729I565685J-565685D01*
G01*
X155698271Y-103947415D01*
G75*
G02*
X155698271Y-105078785I-565685J-565685D01*
G01*
G37*
G36*
G01*
X157494323Y-92506426D02*
X157494323Y-92506426D01*
G75*
G02*
X156362953Y-92506426I-565685J565685D01*
G01*
X155797267Y-91940740D01*
G75*
G02*
X155797267Y-90809370I565685J565685D01*
G01*
X155797267Y-90809370D01*
G75*
G02*
X156928637Y-90809370I565685J-565685D01*
G01*
X157494323Y-91375056D01*
G75*
G02*
X157494323Y-92506426I-565685J-565685D01*
G01*
G37*
G36*
G01*
X153902220Y-106874836D02*
X153902220Y-106874836D01*
G75*
G02*
X152770850Y-106874836I-565685J565685D01*
G01*
X152205164Y-106309150D01*
G75*
G02*
X152205164Y-105177780I565685J565685D01*
G01*
X152205164Y-105177780D01*
G75*
G02*
X153336534Y-105177780I565685J-565685D01*
G01*
X153902220Y-105743466D01*
G75*
G02*
X153902220Y-106874836I-565685J-565685D01*
G01*
G37*
G36*
G01*
X159290374Y-90710375D02*
X159290374Y-90710375D01*
G75*
G02*
X158159004Y-90710375I-565685J565685D01*
G01*
X157593318Y-90144689D01*
G75*
G02*
X157593318Y-89013319I565685J565685D01*
G01*
X157593318Y-89013319D01*
G75*
G02*
X158724688Y-89013319I565685J-565685D01*
G01*
X159290374Y-89579005D01*
G75*
G02*
X159290374Y-90710375I-565685J-565685D01*
G01*
G37*
G36*
X152671855Y-108105202D02*
G01*
X151540484Y-109236573D01*
X149843427Y-107539516D01*
X150974798Y-106408145D01*
X152671855Y-108105202D01*
G37*
%TD*%
%TO.C,U2*%
G36*
G01*
X128938015Y-103282733D02*
X128938015Y-103282733D01*
G75*
G02*
X127806645Y-103282733I-565685J565685D01*
G01*
X127240959Y-102717047D01*
G75*
G02*
X127240959Y-101585677I565685J565685D01*
G01*
X127240959Y-101585677D01*
G75*
G02*
X128372329Y-101585677I565685J-565685D01*
G01*
X128938015Y-102151363D01*
G75*
G02*
X128938015Y-103282733I-565685J-565685D01*
G01*
G37*
G36*
G01*
X146898528Y-96098528D02*
X146898528Y-96098528D01*
G75*
G02*
X145767158Y-96098528I-565685J565685D01*
G01*
X145201472Y-95532842D01*
G75*
G02*
X145201472Y-94401472I565685J565685D01*
G01*
X145201472Y-94401472D01*
G75*
G02*
X146332842Y-94401472I565685J-565685D01*
G01*
X146898528Y-94967158D01*
G75*
G02*
X146898528Y-96098528I-565685J-565685D01*
G01*
G37*
G36*
G01*
X130734067Y-101486682D02*
X130734067Y-101486682D01*
G75*
G02*
X129602697Y-101486682I-565685J565685D01*
G01*
X129037011Y-100920996D01*
G75*
G02*
X129037011Y-99789626I565685J565685D01*
G01*
X129037011Y-99789626D01*
G75*
G02*
X130168381Y-99789626I565685J-565685D01*
G01*
X130734067Y-100355312D01*
G75*
G02*
X130734067Y-101486682I-565685J-565685D01*
G01*
G37*
G36*
G01*
X145102476Y-97894580D02*
X145102476Y-97894580D01*
G75*
G02*
X143971106Y-97894580I-565685J565685D01*
G01*
X143405420Y-97328894D01*
G75*
G02*
X143405420Y-96197524I565685J565685D01*
G01*
X143405420Y-96197524D01*
G75*
G02*
X144536790Y-96197524I565685J-565685D01*
G01*
X145102476Y-96763210D01*
G75*
G02*
X145102476Y-97894580I-565685J-565685D01*
G01*
G37*
G36*
G01*
X132530118Y-99690631D02*
X132530118Y-99690631D01*
G75*
G02*
X131398748Y-99690631I-565685J565685D01*
G01*
X130833062Y-99124945D01*
G75*
G02*
X130833062Y-97993575I565685J565685D01*
G01*
X130833062Y-97993575D01*
G75*
G02*
X131964432Y-97993575I565685J-565685D01*
G01*
X132530118Y-98559261D01*
G75*
G02*
X132530118Y-99690631I-565685J-565685D01*
G01*
G37*
G36*
G01*
X143306425Y-99690631D02*
X143306425Y-99690631D01*
G75*
G02*
X142175055Y-99690631I-565685J565685D01*
G01*
X141609369Y-99124945D01*
G75*
G02*
X141609369Y-97993575I565685J565685D01*
G01*
X141609369Y-97993575D01*
G75*
G02*
X142740739Y-97993575I565685J-565685D01*
G01*
X143306425Y-98559261D01*
G75*
G02*
X143306425Y-99690631I-565685J-565685D01*
G01*
G37*
G36*
G01*
X134326169Y-97894580D02*
X134326169Y-97894580D01*
G75*
G02*
X133194799Y-97894580I-565685J565685D01*
G01*
X132629113Y-97328894D01*
G75*
G02*
X132629113Y-96197524I565685J565685D01*
G01*
X132629113Y-96197524D01*
G75*
G02*
X133760483Y-96197524I565685J-565685D01*
G01*
X134326169Y-96763210D01*
G75*
G02*
X134326169Y-97894580I-565685J-565685D01*
G01*
G37*
G36*
G01*
X141510374Y-101486682D02*
X141510374Y-101486682D01*
G75*
G02*
X140379004Y-101486682I-565685J565685D01*
G01*
X139813318Y-100920996D01*
G75*
G02*
X139813318Y-99789626I565685J565685D01*
G01*
X139813318Y-99789626D01*
G75*
G02*
X140944688Y-99789626I565685J-565685D01*
G01*
X141510374Y-100355312D01*
G75*
G02*
X141510374Y-101486682I-565685J-565685D01*
G01*
G37*
G36*
G01*
X136122220Y-96098528D02*
X136122220Y-96098528D01*
G75*
G02*
X134990850Y-96098528I-565685J565685D01*
G01*
X134425164Y-95532842D01*
G75*
G02*
X134425164Y-94401472I565685J565685D01*
G01*
X134425164Y-94401472D01*
G75*
G02*
X135556534Y-94401472I565685J-565685D01*
G01*
X136122220Y-94967158D01*
G75*
G02*
X136122220Y-96098528I-565685J-565685D01*
G01*
G37*
G36*
G01*
X139714323Y-103282733D02*
X139714323Y-103282733D01*
G75*
G02*
X138582953Y-103282733I-565685J565685D01*
G01*
X138017267Y-102717047D01*
G75*
G02*
X138017267Y-101585677I565685J565685D01*
G01*
X138017267Y-101585677D01*
G75*
G02*
X139148637Y-101585677I565685J-565685D01*
G01*
X139714323Y-102151363D01*
G75*
G02*
X139714323Y-103282733I-565685J-565685D01*
G01*
G37*
G36*
G01*
X137918271Y-94302477D02*
X137918271Y-94302477D01*
G75*
G02*
X136786901Y-94302477I-565685J565685D01*
G01*
X136221215Y-93736791D01*
G75*
G02*
X136221215Y-92605421I565685J565685D01*
G01*
X136221215Y-92605421D01*
G75*
G02*
X137352585Y-92605421I565685J-565685D01*
G01*
X137918271Y-93171107D01*
G75*
G02*
X137918271Y-94302477I-565685J-565685D01*
G01*
G37*
G36*
G01*
X137918271Y-105078785D02*
X137918271Y-105078785D01*
G75*
G02*
X136786901Y-105078785I-565685J565685D01*
G01*
X136221215Y-104513099D01*
G75*
G02*
X136221215Y-103381729I565685J565685D01*
G01*
X136221215Y-103381729D01*
G75*
G02*
X137352585Y-103381729I565685J-565685D01*
G01*
X137918271Y-103947415D01*
G75*
G02*
X137918271Y-105078785I-565685J-565685D01*
G01*
G37*
G36*
G01*
X139714323Y-92506426D02*
X139714323Y-92506426D01*
G75*
G02*
X138582953Y-92506426I-565685J565685D01*
G01*
X138017267Y-91940740D01*
G75*
G02*
X138017267Y-90809370I565685J565685D01*
G01*
X138017267Y-90809370D01*
G75*
G02*
X139148637Y-90809370I565685J-565685D01*
G01*
X139714323Y-91375056D01*
G75*
G02*
X139714323Y-92506426I-565685J-565685D01*
G01*
G37*
G36*
G01*
X136122220Y-106874836D02*
X136122220Y-106874836D01*
G75*
G02*
X134990850Y-106874836I-565685J565685D01*
G01*
X134425164Y-106309150D01*
G75*
G02*
X134425164Y-105177780I565685J565685D01*
G01*
X134425164Y-105177780D01*
G75*
G02*
X135556534Y-105177780I565685J-565685D01*
G01*
X136122220Y-105743466D01*
G75*
G02*
X136122220Y-106874836I-565685J-565685D01*
G01*
G37*
G36*
G01*
X141510374Y-90710375D02*
X141510374Y-90710375D01*
G75*
G02*
X140379004Y-90710375I-565685J565685D01*
G01*
X139813318Y-90144689D01*
G75*
G02*
X139813318Y-89013319I565685J565685D01*
G01*
X139813318Y-89013319D01*
G75*
G02*
X140944688Y-89013319I565685J-565685D01*
G01*
X141510374Y-89579005D01*
G75*
G02*
X141510374Y-90710375I-565685J-565685D01*
G01*
G37*
G36*
X134891855Y-108105202D02*
G01*
X133760484Y-109236573D01*
X132063427Y-107539516D01*
X133194798Y-106408145D01*
X134891855Y-108105202D01*
G37*
%TD*%
%TO.C,U1*%
G36*
G01*
X111466169Y-103410374D02*
X111466169Y-103410374D01*
G75*
G02*
X110334799Y-103410374I-565685J565685D01*
G01*
X109769113Y-102844688D01*
G75*
G02*
X109769113Y-101713318I565685J565685D01*
G01*
X109769113Y-101713318D01*
G75*
G02*
X110900483Y-101713318I565685J-565685D01*
G01*
X111466169Y-102279004D01*
G75*
G02*
X111466169Y-103410374I-565685J-565685D01*
G01*
G37*
G36*
G01*
X129426682Y-96226169D02*
X129426682Y-96226169D01*
G75*
G02*
X128295312Y-96226169I-565685J565685D01*
G01*
X127729626Y-95660483D01*
G75*
G02*
X127729626Y-94529113I565685J565685D01*
G01*
X127729626Y-94529113D01*
G75*
G02*
X128860996Y-94529113I565685J-565685D01*
G01*
X129426682Y-95094799D01*
G75*
G02*
X129426682Y-96226169I-565685J-565685D01*
G01*
G37*
G36*
G01*
X113262221Y-101614323D02*
X113262221Y-101614323D01*
G75*
G02*
X112130851Y-101614323I-565685J565685D01*
G01*
X111565165Y-101048637D01*
G75*
G02*
X111565165Y-99917267I565685J565685D01*
G01*
X111565165Y-99917267D01*
G75*
G02*
X112696535Y-99917267I565685J-565685D01*
G01*
X113262221Y-100482953D01*
G75*
G02*
X113262221Y-101614323I-565685J-565685D01*
G01*
G37*
G36*
G01*
X127630630Y-98022221D02*
X127630630Y-98022221D01*
G75*
G02*
X126499260Y-98022221I-565685J565685D01*
G01*
X125933574Y-97456535D01*
G75*
G02*
X125933574Y-96325165I565685J565685D01*
G01*
X125933574Y-96325165D01*
G75*
G02*
X127064944Y-96325165I565685J-565685D01*
G01*
X127630630Y-96890851D01*
G75*
G02*
X127630630Y-98022221I-565685J-565685D01*
G01*
G37*
G36*
G01*
X115058272Y-99818272D02*
X115058272Y-99818272D01*
G75*
G02*
X113926902Y-99818272I-565685J565685D01*
G01*
X113361216Y-99252586D01*
G75*
G02*
X113361216Y-98121216I565685J565685D01*
G01*
X113361216Y-98121216D01*
G75*
G02*
X114492586Y-98121216I565685J-565685D01*
G01*
X115058272Y-98686902D01*
G75*
G02*
X115058272Y-99818272I-565685J-565685D01*
G01*
G37*
G36*
G01*
X125834579Y-99818272D02*
X125834579Y-99818272D01*
G75*
G02*
X124703209Y-99818272I-565685J565685D01*
G01*
X124137523Y-99252586D01*
G75*
G02*
X124137523Y-98121216I565685J565685D01*
G01*
X124137523Y-98121216D01*
G75*
G02*
X125268893Y-98121216I565685J-565685D01*
G01*
X125834579Y-98686902D01*
G75*
G02*
X125834579Y-99818272I-565685J-565685D01*
G01*
G37*
G36*
G01*
X116854323Y-98022221D02*
X116854323Y-98022221D01*
G75*
G02*
X115722953Y-98022221I-565685J565685D01*
G01*
X115157267Y-97456535D01*
G75*
G02*
X115157267Y-96325165I565685J565685D01*
G01*
X115157267Y-96325165D01*
G75*
G02*
X116288637Y-96325165I565685J-565685D01*
G01*
X116854323Y-96890851D01*
G75*
G02*
X116854323Y-98022221I-565685J-565685D01*
G01*
G37*
G36*
G01*
X124038528Y-101614323D02*
X124038528Y-101614323D01*
G75*
G02*
X122907158Y-101614323I-565685J565685D01*
G01*
X122341472Y-101048637D01*
G75*
G02*
X122341472Y-99917267I565685J565685D01*
G01*
X122341472Y-99917267D01*
G75*
G02*
X123472842Y-99917267I565685J-565685D01*
G01*
X124038528Y-100482953D01*
G75*
G02*
X124038528Y-101614323I-565685J-565685D01*
G01*
G37*
G36*
G01*
X118650374Y-96226169D02*
X118650374Y-96226169D01*
G75*
G02*
X117519004Y-96226169I-565685J565685D01*
G01*
X116953318Y-95660483D01*
G75*
G02*
X116953318Y-94529113I565685J565685D01*
G01*
X116953318Y-94529113D01*
G75*
G02*
X118084688Y-94529113I565685J-565685D01*
G01*
X118650374Y-95094799D01*
G75*
G02*
X118650374Y-96226169I-565685J-565685D01*
G01*
G37*
G36*
G01*
X122242477Y-103410374D02*
X122242477Y-103410374D01*
G75*
G02*
X121111107Y-103410374I-565685J565685D01*
G01*
X120545421Y-102844688D01*
G75*
G02*
X120545421Y-101713318I565685J565685D01*
G01*
X120545421Y-101713318D01*
G75*
G02*
X121676791Y-101713318I565685J-565685D01*
G01*
X122242477Y-102279004D01*
G75*
G02*
X122242477Y-103410374I-565685J-565685D01*
G01*
G37*
G36*
G01*
X120446425Y-94430118D02*
X120446425Y-94430118D01*
G75*
G02*
X119315055Y-94430118I-565685J565685D01*
G01*
X118749369Y-93864432D01*
G75*
G02*
X118749369Y-92733062I565685J565685D01*
G01*
X118749369Y-92733062D01*
G75*
G02*
X119880739Y-92733062I565685J-565685D01*
G01*
X120446425Y-93298748D01*
G75*
G02*
X120446425Y-94430118I-565685J-565685D01*
G01*
G37*
G36*
G01*
X120446425Y-105206426D02*
X120446425Y-105206426D01*
G75*
G02*
X119315055Y-105206426I-565685J565685D01*
G01*
X118749369Y-104640740D01*
G75*
G02*
X118749369Y-103509370I565685J565685D01*
G01*
X118749369Y-103509370D01*
G75*
G02*
X119880739Y-103509370I565685J-565685D01*
G01*
X120446425Y-104075056D01*
G75*
G02*
X120446425Y-105206426I-565685J-565685D01*
G01*
G37*
G36*
G01*
X122242477Y-92634067D02*
X122242477Y-92634067D01*
G75*
G02*
X121111107Y-92634067I-565685J565685D01*
G01*
X120545421Y-92068381D01*
G75*
G02*
X120545421Y-90937011I565685J565685D01*
G01*
X120545421Y-90937011D01*
G75*
G02*
X121676791Y-90937011I565685J-565685D01*
G01*
X122242477Y-91502697D01*
G75*
G02*
X122242477Y-92634067I-565685J-565685D01*
G01*
G37*
G36*
G01*
X118650374Y-107002477D02*
X118650374Y-107002477D01*
G75*
G02*
X117519004Y-107002477I-565685J565685D01*
G01*
X116953318Y-106436791D01*
G75*
G02*
X116953318Y-105305421I565685J565685D01*
G01*
X116953318Y-105305421D01*
G75*
G02*
X118084688Y-105305421I565685J-565685D01*
G01*
X118650374Y-105871107D01*
G75*
G02*
X118650374Y-107002477I-565685J-565685D01*
G01*
G37*
G36*
G01*
X124038528Y-90838016D02*
X124038528Y-90838016D01*
G75*
G02*
X122907158Y-90838016I-565685J565685D01*
G01*
X122341472Y-90272330D01*
G75*
G02*
X122341472Y-89140960I565685J565685D01*
G01*
X122341472Y-89140960D01*
G75*
G02*
X123472842Y-89140960I565685J-565685D01*
G01*
X124038528Y-89706646D01*
G75*
G02*
X124038528Y-90838016I-565685J-565685D01*
G01*
G37*
G36*
X117420009Y-108232843D02*
G01*
X116288638Y-109364214D01*
X114591581Y-107667157D01*
X115722952Y-106535786D01*
X117420009Y-108232843D01*
G37*
%TD*%
D12*
%TO.C,J1*%
X102108000Y-115697000D03*
X102108000Y-113157000D03*
X104648000Y-115697000D03*
X104648000Y-113157000D03*
X107188000Y-115697000D03*
X107188000Y-113157000D03*
X109728000Y-115697000D03*
X109728000Y-113157000D03*
X112268000Y-115697000D03*
X112268000Y-113157000D03*
X114808000Y-115697000D03*
X114808000Y-113157000D03*
X117348000Y-115697000D03*
X117348000Y-113157000D03*
X119888000Y-115697000D03*
X119888000Y-113157000D03*
X122428000Y-115697000D03*
X122428000Y-113157000D03*
X124968000Y-115697000D03*
X124968000Y-113157000D03*
X127508000Y-115697000D03*
X127508000Y-113157000D03*
X130048000Y-115697000D03*
X130048000Y-113157000D03*
X132588000Y-115697000D03*
X132588000Y-113157000D03*
X135128000Y-115697000D03*
X135128000Y-113157000D03*
X137668000Y-115697000D03*
X137668000Y-113157000D03*
X140208000Y-115697000D03*
X140208000Y-113157000D03*
X142748000Y-115697000D03*
X142748000Y-113157000D03*
X145288000Y-115697000D03*
X145288000Y-113157000D03*
X147828000Y-115697000D03*
X147828000Y-113157000D03*
X150368000Y-115697000D03*
X150368000Y-113157000D03*
X152908000Y-115697000D03*
X152908000Y-113157000D03*
X155448000Y-115697000D03*
X155448000Y-113157000D03*
X157988000Y-115697000D03*
X157988000Y-113157000D03*
X160528000Y-115697000D03*
X160528000Y-113157000D03*
X163068000Y-115697000D03*
X163068000Y-113157000D03*
X165608000Y-115697000D03*
X165608000Y-113157000D03*
X168148000Y-115697000D03*
X168148000Y-113157000D03*
X170688000Y-115697000D03*
X170688000Y-113157000D03*
X173228000Y-115697000D03*
X173228000Y-113157000D03*
X175768000Y-115697000D03*
X175768000Y-113157000D03*
X178308000Y-115697000D03*
X178308000Y-113157000D03*
X180848000Y-115697000D03*
D11*
X180848000Y-113157000D03*
%TD*%
M02*
