%TF.GenerationSoftware,KiCad,Pcbnew,5.1.9+dfsg1-1+deb11u1*%
%TF.CreationDate,2025-02-02T16:03:13-08:00*%
%TF.ProjectId,esp01Expander,65737030-3145-4787-9061-6e6465722e6b,rev?*%
%TF.SameCoordinates,Original*%
%TF.FileFunction,Copper,L1,Top*%
%TF.FilePolarity,Positive*%
%FSLAX46Y46*%
G04 Gerber Fmt 4.6, Leading zero omitted, Abs format (unit mm)*
G04 Created by KiCad (PCBNEW 5.1.9+dfsg1-1+deb11u1) date 2025-02-02 16:03:13*
%MOMM*%
%LPD*%
G01*
G04 APERTURE LIST*
%TA.AperFunction,NonConductor*%
%ADD10C,0.200000*%
%TD*%
%TA.AperFunction,NonConductor*%
%ADD11C,0.300000*%
%TD*%
%TA.AperFunction,ComponentPad*%
%ADD12R,1.700000X1.700000*%
%TD*%
%TA.AperFunction,ComponentPad*%
%ADD13O,1.700000X1.700000*%
%TD*%
%TA.AperFunction,SMDPad,CuDef*%
%ADD14C,0.100000*%
%TD*%
%TA.AperFunction,ComponentPad*%
%ADD15C,0.100000*%
%TD*%
%TA.AperFunction,ViaPad*%
%ADD16C,0.800000*%
%TD*%
%TA.AperFunction,Conductor*%
%ADD17C,0.250000*%
%TD*%
%TA.AperFunction,Conductor*%
%ADD18C,1.000000*%
%TD*%
%TA.AperFunction,Conductor*%
%ADD19C,0.500000*%
%TD*%
%TA.AperFunction,Conductor*%
%ADD20C,0.254000*%
%TD*%
%TA.AperFunction,Conductor*%
%ADD21C,0.100000*%
%TD*%
G04 APERTURE END LIST*
D10*
X139494761Y-110402666D02*
X139970952Y-110402666D01*
X139399523Y-110688380D02*
X139732857Y-109688380D01*
X140066190Y-110688380D01*
X140542380Y-110688380D02*
X140447142Y-110640761D01*
X140399523Y-110545523D01*
X140399523Y-109688380D01*
X141066190Y-110688380D02*
X140970952Y-110640761D01*
X140923333Y-110545523D01*
X140923333Y-109688380D01*
X142113809Y-110021714D02*
X142351904Y-110688380D01*
X142590000Y-110021714D02*
X142351904Y-110688380D01*
X142256666Y-110926476D01*
X142209047Y-110974095D01*
X142113809Y-111021714D01*
X143113809Y-110688380D02*
X143018571Y-110640761D01*
X142970952Y-110593142D01*
X142923333Y-110497904D01*
X142923333Y-110212190D01*
X142970952Y-110116952D01*
X143018571Y-110069333D01*
X143113809Y-110021714D01*
X143256666Y-110021714D01*
X143351904Y-110069333D01*
X143399523Y-110116952D01*
X143447142Y-110212190D01*
X143447142Y-110497904D01*
X143399523Y-110593142D01*
X143351904Y-110640761D01*
X143256666Y-110688380D01*
X143113809Y-110688380D01*
X144304285Y-110021714D02*
X144304285Y-110688380D01*
X143875714Y-110021714D02*
X143875714Y-110545523D01*
X143923333Y-110640761D01*
X144018571Y-110688380D01*
X144161428Y-110688380D01*
X144256666Y-110640761D01*
X144304285Y-110593142D01*
X144780476Y-110688380D02*
X144780476Y-110021714D01*
X144780476Y-110212190D02*
X144828095Y-110116952D01*
X144875714Y-110069333D01*
X144970952Y-110021714D01*
X145066190Y-110021714D01*
X146304285Y-110688380D02*
X146209047Y-110640761D01*
X146161428Y-110545523D01*
X146161428Y-109688380D01*
X147113809Y-110688380D02*
X147113809Y-110164571D01*
X147066190Y-110069333D01*
X146970952Y-110021714D01*
X146780476Y-110021714D01*
X146685238Y-110069333D01*
X147113809Y-110640761D02*
X147018571Y-110688380D01*
X146780476Y-110688380D01*
X146685238Y-110640761D01*
X146637619Y-110545523D01*
X146637619Y-110450285D01*
X146685238Y-110355047D01*
X146780476Y-110307428D01*
X147018571Y-110307428D01*
X147113809Y-110259809D01*
X147494761Y-110021714D02*
X147732857Y-110688380D01*
X147970952Y-110021714D02*
X147732857Y-110688380D01*
X147637619Y-110926476D01*
X147590000Y-110974095D01*
X147494761Y-111021714D01*
X148732857Y-110640761D02*
X148637619Y-110688380D01*
X148447142Y-110688380D01*
X148351904Y-110640761D01*
X148304285Y-110545523D01*
X148304285Y-110164571D01*
X148351904Y-110069333D01*
X148447142Y-110021714D01*
X148637619Y-110021714D01*
X148732857Y-110069333D01*
X148780476Y-110164571D01*
X148780476Y-110259809D01*
X148304285Y-110355047D01*
X149209047Y-110688380D02*
X149209047Y-110021714D01*
X149209047Y-110212190D02*
X149256666Y-110116952D01*
X149304285Y-110069333D01*
X149399523Y-110021714D01*
X149494761Y-110021714D01*
X149780476Y-110640761D02*
X149875714Y-110688380D01*
X150066190Y-110688380D01*
X150161428Y-110640761D01*
X150209047Y-110545523D01*
X150209047Y-110497904D01*
X150161428Y-110402666D01*
X150066190Y-110355047D01*
X149923333Y-110355047D01*
X149828095Y-110307428D01*
X149780476Y-110212190D01*
X149780476Y-110164571D01*
X149828095Y-110069333D01*
X149923333Y-110021714D01*
X150066190Y-110021714D01*
X150161428Y-110069333D01*
X151828095Y-110688380D02*
X151828095Y-110164571D01*
X151780476Y-110069333D01*
X151685238Y-110021714D01*
X151494761Y-110021714D01*
X151399523Y-110069333D01*
X151828095Y-110640761D02*
X151732857Y-110688380D01*
X151494761Y-110688380D01*
X151399523Y-110640761D01*
X151351904Y-110545523D01*
X151351904Y-110450285D01*
X151399523Y-110355047D01*
X151494761Y-110307428D01*
X151732857Y-110307428D01*
X151828095Y-110259809D01*
X152304285Y-110688380D02*
X152304285Y-110021714D01*
X152304285Y-110212190D02*
X152351904Y-110116952D01*
X152399523Y-110069333D01*
X152494761Y-110021714D01*
X152590000Y-110021714D01*
X153304285Y-110640761D02*
X153209047Y-110688380D01*
X153018571Y-110688380D01*
X152923333Y-110640761D01*
X152875714Y-110545523D01*
X152875714Y-110164571D01*
X152923333Y-110069333D01*
X153018571Y-110021714D01*
X153209047Y-110021714D01*
X153304285Y-110069333D01*
X153351904Y-110164571D01*
X153351904Y-110259809D01*
X152875714Y-110355047D01*
X154542380Y-110688380D02*
X154542380Y-110021714D01*
X154542380Y-110116952D02*
X154590000Y-110069333D01*
X154685238Y-110021714D01*
X154828095Y-110021714D01*
X154923333Y-110069333D01*
X154970952Y-110164571D01*
X154970952Y-110688380D01*
X154970952Y-110164571D02*
X155018571Y-110069333D01*
X155113809Y-110021714D01*
X155256666Y-110021714D01*
X155351904Y-110069333D01*
X155399523Y-110164571D01*
X155399523Y-110688380D01*
X155875714Y-110688380D02*
X155875714Y-110021714D01*
X155875714Y-109688380D02*
X155828095Y-109736000D01*
X155875714Y-109783619D01*
X155923333Y-109736000D01*
X155875714Y-109688380D01*
X155875714Y-109783619D01*
X156351904Y-110021714D02*
X156351904Y-110688380D01*
X156351904Y-110116952D02*
X156399523Y-110069333D01*
X156494761Y-110021714D01*
X156637619Y-110021714D01*
X156732857Y-110069333D01*
X156780476Y-110164571D01*
X156780476Y-110688380D01*
X157637619Y-110640761D02*
X157542380Y-110688380D01*
X157351904Y-110688380D01*
X157256666Y-110640761D01*
X157209047Y-110545523D01*
X157209047Y-110164571D01*
X157256666Y-110069333D01*
X157351904Y-110021714D01*
X157542380Y-110021714D01*
X157637619Y-110069333D01*
X157685238Y-110164571D01*
X157685238Y-110259809D01*
X157209047Y-110355047D01*
D11*
X171694691Y-110417831D02*
X170634031Y-109357171D01*
X171745199Y-109761232D01*
X171341138Y-108650064D01*
X172401798Y-109710724D01*
X173058397Y-109054125D02*
X172906874Y-109104633D01*
X172805859Y-109104633D01*
X172654336Y-109054125D01*
X172351290Y-108751079D01*
X172300783Y-108599556D01*
X172300783Y-108498541D01*
X172351290Y-108347018D01*
X172502813Y-108195495D01*
X172654336Y-108144988D01*
X172755351Y-108144988D01*
X172906874Y-108195495D01*
X173209920Y-108498541D01*
X173260427Y-108650064D01*
X173260427Y-108751079D01*
X173209920Y-108902602D01*
X173058397Y-109054125D01*
X173866519Y-108246003D02*
X172805859Y-107185343D01*
X174321088Y-107791434D02*
X173765504Y-107235850D01*
X173613981Y-107185343D01*
X173462458Y-107235850D01*
X173310935Y-107387373D01*
X173260427Y-107538896D01*
X173260427Y-107639911D01*
X174826164Y-107286358D02*
X174119057Y-106579251D01*
X174321088Y-106781282D02*
X174270580Y-106629759D01*
X174270580Y-106528744D01*
X174321088Y-106377221D01*
X174422103Y-106276205D01*
X176644439Y-105367068D02*
X176593931Y-105518591D01*
X176391900Y-105720622D01*
X176240377Y-105771129D01*
X176088855Y-105720622D01*
X175684794Y-105316561D01*
X175634286Y-105165038D01*
X175684794Y-105013515D01*
X175886824Y-104811484D01*
X176038347Y-104760977D01*
X176189870Y-104811484D01*
X176290885Y-104912500D01*
X175886824Y-105518591D01*
X177099007Y-104912500D02*
X177250530Y-104861992D01*
X177452561Y-104659961D01*
X177503068Y-104508439D01*
X177452561Y-104356916D01*
X177402053Y-104306408D01*
X177250530Y-104255900D01*
X177099007Y-104306408D01*
X176947484Y-104457931D01*
X176795961Y-104508439D01*
X176644439Y-104457931D01*
X176593931Y-104407423D01*
X176543423Y-104255900D01*
X176593931Y-104104377D01*
X176745454Y-103952855D01*
X176896977Y-103902347D01*
X177351545Y-103346763D02*
X178412205Y-104407423D01*
X177402053Y-103397271D02*
X177452561Y-103245748D01*
X177654591Y-103043717D01*
X177806114Y-102993210D01*
X177907129Y-102993210D01*
X178058652Y-103043717D01*
X178361698Y-103346763D01*
X178412205Y-103498286D01*
X178412205Y-103599301D01*
X178361698Y-103750824D01*
X178159667Y-103952855D01*
X178008144Y-104003362D01*
X178563728Y-102336611D02*
X178412205Y-102387118D01*
X178311190Y-102387118D01*
X178159667Y-102336611D01*
X178109160Y-102286103D01*
X178058652Y-102134580D01*
X178058652Y-102033565D01*
X178109160Y-101882042D01*
X178311190Y-101680011D01*
X178462713Y-101629504D01*
X178563728Y-101629504D01*
X178715251Y-101680011D01*
X178765759Y-101730519D01*
X178816266Y-101882042D01*
X178816266Y-101983057D01*
X178765759Y-102134580D01*
X178563728Y-102336611D01*
X178513221Y-102488133D01*
X178513221Y-102589149D01*
X178563728Y-102740672D01*
X178765759Y-102942702D01*
X178917282Y-102993210D01*
X179018297Y-102993210D01*
X179169820Y-102942702D01*
X179371850Y-102740672D01*
X179422358Y-102589149D01*
X179422358Y-102488133D01*
X179371850Y-102336611D01*
X179169820Y-102134580D01*
X179018297Y-102084072D01*
X178917282Y-102084072D01*
X178765759Y-102134580D01*
X179018297Y-101174935D02*
X179018297Y-101073920D01*
X179068805Y-100922397D01*
X179321343Y-100669859D01*
X179472866Y-100619351D01*
X179573881Y-100619351D01*
X179725404Y-100669859D01*
X179826419Y-100770874D01*
X179927434Y-100972905D01*
X179927434Y-102185088D01*
X180584033Y-101528488D01*
X180432511Y-99558691D02*
X180230480Y-99760722D01*
X180179972Y-99912244D01*
X180179972Y-100013260D01*
X180230480Y-100265798D01*
X180382003Y-100518336D01*
X180786064Y-100922397D01*
X180937587Y-100972905D01*
X181038602Y-100972905D01*
X181190125Y-100922397D01*
X181392155Y-100720366D01*
X181442663Y-100568844D01*
X181442663Y-100467828D01*
X181392155Y-100316305D01*
X181139617Y-100063767D01*
X180988094Y-100013260D01*
X180887079Y-100013260D01*
X180735556Y-100063767D01*
X180533526Y-100265798D01*
X180483018Y-100417321D01*
X180483018Y-100518336D01*
X180533526Y-100669859D01*
X181442663Y-98548538D02*
X181240633Y-98750569D01*
X181190125Y-98902092D01*
X181190125Y-99003107D01*
X181240633Y-99255645D01*
X181392155Y-99508183D01*
X181796216Y-99912244D01*
X181947739Y-99962752D01*
X182048755Y-99962752D01*
X182200277Y-99912244D01*
X182402308Y-99710214D01*
X182452816Y-99558691D01*
X182452816Y-99457676D01*
X182402308Y-99306153D01*
X182149770Y-99053615D01*
X181998247Y-99003107D01*
X181897232Y-99003107D01*
X181745709Y-99053615D01*
X181543678Y-99255645D01*
X181493171Y-99407168D01*
X181493171Y-99508183D01*
X181543678Y-99659706D01*
X175442357Y-108155089D02*
X176199971Y-108912703D01*
X176300986Y-109114734D01*
X176300986Y-109316764D01*
X176199971Y-109518795D01*
X176098956Y-109619810D01*
X177462662Y-108256104D02*
X176907078Y-107700520D01*
X176755555Y-107650013D01*
X176604032Y-107700520D01*
X176402002Y-107902551D01*
X176351494Y-108054074D01*
X177412154Y-108205597D02*
X177361647Y-108357119D01*
X177109108Y-108609658D01*
X176957585Y-108660165D01*
X176806063Y-108609658D01*
X176705047Y-108508642D01*
X176654540Y-108357119D01*
X176705047Y-108205597D01*
X176957585Y-107953058D01*
X177008093Y-107801536D01*
X177260631Y-107043921D02*
X177967738Y-107751028D01*
X177361647Y-107144936D02*
X177361647Y-107043921D01*
X177412154Y-106892398D01*
X177563677Y-106740875D01*
X177715200Y-106690368D01*
X177866723Y-106740875D01*
X178422307Y-107296459D01*
X178725352Y-105074124D02*
X178725352Y-104973108D01*
X178775860Y-104821585D01*
X179028398Y-104569047D01*
X179179921Y-104518540D01*
X179280936Y-104518540D01*
X179432459Y-104569047D01*
X179533474Y-104670063D01*
X179634490Y-104872093D01*
X179634490Y-106084276D01*
X180291089Y-105427677D01*
X179887028Y-103710418D02*
X179988043Y-103609402D01*
X180139566Y-103558895D01*
X180240581Y-103558895D01*
X180392104Y-103609402D01*
X180644642Y-103760925D01*
X180897180Y-104013463D01*
X181048703Y-104266002D01*
X181099211Y-104417524D01*
X181099211Y-104518540D01*
X181048703Y-104670063D01*
X180947688Y-104771078D01*
X180796165Y-104821585D01*
X180695150Y-104821585D01*
X180543627Y-104771078D01*
X180291089Y-104619555D01*
X180038551Y-104367017D01*
X179887028Y-104114479D01*
X179836520Y-103962956D01*
X179836520Y-103861941D01*
X179887028Y-103710418D01*
X180745658Y-103053819D02*
X180745658Y-102952803D01*
X180796165Y-102801280D01*
X181048703Y-102548742D01*
X181200226Y-102498235D01*
X181301241Y-102498235D01*
X181452764Y-102548742D01*
X181553780Y-102649758D01*
X181654795Y-102851788D01*
X181654795Y-104063971D01*
X182311394Y-103407372D01*
X182210379Y-101387067D02*
X181705302Y-101892143D01*
X182159871Y-102447727D01*
X182159871Y-102346712D01*
X182210379Y-102195189D01*
X182462917Y-101942651D01*
X182614440Y-101892143D01*
X182715455Y-101892143D01*
X182866978Y-101942651D01*
X183119516Y-102195189D01*
X183170024Y-102346712D01*
X183170024Y-102447727D01*
X183119516Y-102599250D01*
X182866978Y-102851788D01*
X182715455Y-102902296D01*
X182614440Y-102902296D01*
D12*
%TO.P,J3,1*%
%TO.N,Net-(J3-Pad1)*%
X149479000Y-89535000D03*
%TD*%
D13*
%TO.P,J2,8*%
%TO.N,Net-(J2-Pad8)*%
X101473000Y-90805000D03*
%TO.P,J2,7*%
%TO.N,+3V3*%
X101473000Y-88265000D03*
%TO.P,J2,6*%
%TO.N,Net-(J2-Pad6)*%
X104013000Y-90805000D03*
%TO.P,J2,5*%
%TO.N,Net-(J2-Pad5)*%
X104013000Y-88265000D03*
%TO.P,J2,4*%
%TO.N,Net-(J2-Pad4)*%
X106553000Y-90805000D03*
%TO.P,J2,3*%
%TO.N,Net-(J2-Pad3)*%
X106553000Y-88265000D03*
%TO.P,J2,2*%
%TO.N,GND*%
X109093000Y-90805000D03*
D12*
%TO.P,J2,1*%
%TO.N,Net-(J2-Pad1)*%
X109093000Y-88265000D03*
%TD*%
%TO.P,C2,2*%
%TO.N,GND*%
%TA.AperFunction,SMDPad,CuDef*%
G36*
G01*
X108527001Y-94174000D02*
X107626999Y-94174000D01*
G75*
G02*
X107377000Y-93924001I0J249999D01*
G01*
X107377000Y-93273999D01*
G75*
G02*
X107626999Y-93024000I249999J0D01*
G01*
X108527001Y-93024000D01*
G75*
G02*
X108777000Y-93273999I0J-249999D01*
G01*
X108777000Y-93924001D01*
G75*
G02*
X108527001Y-94174000I-249999J0D01*
G01*
G37*
%TD.AperFunction*%
%TO.P,C2,1*%
%TO.N,+3V3*%
%TA.AperFunction,SMDPad,CuDef*%
G36*
G01*
X108527001Y-96224000D02*
X107626999Y-96224000D01*
G75*
G02*
X107377000Y-95974001I0J249999D01*
G01*
X107377000Y-95323999D01*
G75*
G02*
X107626999Y-95074000I249999J0D01*
G01*
X108527001Y-95074000D01*
G75*
G02*
X108777000Y-95323999I0J-249999D01*
G01*
X108777000Y-95974001D01*
G75*
G02*
X108527001Y-96224000I-249999J0D01*
G01*
G37*
%TD.AperFunction*%
%TD*%
%TO.P,D1,2*%
%TO.N,Net-(D1-Pad2)*%
%TA.AperFunction,SMDPad,CuDef*%
G36*
G01*
X168850000Y-88449999D02*
X168850000Y-89350001D01*
G75*
G02*
X168600001Y-89600000I-249999J0D01*
G01*
X167949999Y-89600000D01*
G75*
G02*
X167700000Y-89350001I0J249999D01*
G01*
X167700000Y-88449999D01*
G75*
G02*
X167949999Y-88200000I249999J0D01*
G01*
X168600001Y-88200000D01*
G75*
G02*
X168850000Y-88449999I0J-249999D01*
G01*
G37*
%TD.AperFunction*%
%TO.P,D1,1*%
%TO.N,GND*%
%TA.AperFunction,SMDPad,CuDef*%
G36*
G01*
X170900000Y-88449999D02*
X170900000Y-89350001D01*
G75*
G02*
X170650001Y-89600000I-249999J0D01*
G01*
X169999999Y-89600000D01*
G75*
G02*
X169750000Y-89350001I0J249999D01*
G01*
X169750000Y-88449999D01*
G75*
G02*
X169999999Y-88200000I249999J0D01*
G01*
X170650001Y-88200000D01*
G75*
G02*
X170900000Y-88449999I0J-249999D01*
G01*
G37*
%TD.AperFunction*%
%TD*%
%TA.AperFunction,SMDPad,CuDef*%
D14*
%TO.P,SW1,2*%
%TO.N,GND*%
G36*
X113066284Y-93264056D02*
G01*
X114126944Y-94324716D01*
X113066284Y-95385376D01*
X112005624Y-94324716D01*
X113066284Y-93264056D01*
G37*
%TD.AperFunction*%
%TA.AperFunction,SMDPad,CuDef*%
%TO.P,SW1,1*%
%TO.N,Net-(J2-Pad5)*%
G36*
X118581716Y-87748624D02*
G01*
X119642376Y-88809284D01*
X118581716Y-89869944D01*
X117521056Y-88809284D01*
X118581716Y-87748624D01*
G37*
%TD.AperFunction*%
%TD*%
%TO.P,R3,2*%
%TO.N,+3V3*%
%TA.AperFunction,SMDPad,CuDef*%
G36*
G01*
X102292999Y-95065000D02*
X103193001Y-95065000D01*
G75*
G02*
X103443000Y-95314999I0J-249999D01*
G01*
X103443000Y-95965001D01*
G75*
G02*
X103193001Y-96215000I-249999J0D01*
G01*
X102292999Y-96215000D01*
G75*
G02*
X102043000Y-95965001I0J249999D01*
G01*
X102043000Y-95314999D01*
G75*
G02*
X102292999Y-95065000I249999J0D01*
G01*
G37*
%TD.AperFunction*%
%TO.P,R3,1*%
%TO.N,Net-(J2-Pad5)*%
%TA.AperFunction,SMDPad,CuDef*%
G36*
G01*
X102292999Y-93015000D02*
X103193001Y-93015000D01*
G75*
G02*
X103443000Y-93264999I0J-249999D01*
G01*
X103443000Y-93915001D01*
G75*
G02*
X103193001Y-94165000I-249999J0D01*
G01*
X102292999Y-94165000D01*
G75*
G02*
X102043000Y-93915001I0J249999D01*
G01*
X102043000Y-93264999D01*
G75*
G02*
X102292999Y-93015000I249999J0D01*
G01*
G37*
%TD.AperFunction*%
%TD*%
%TO.P,R2,2*%
%TO.N,+3V3*%
%TA.AperFunction,SMDPad,CuDef*%
G36*
G01*
X104832999Y-95074000D02*
X105733001Y-95074000D01*
G75*
G02*
X105983000Y-95323999I0J-249999D01*
G01*
X105983000Y-95974001D01*
G75*
G02*
X105733001Y-96224000I-249999J0D01*
G01*
X104832999Y-96224000D01*
G75*
G02*
X104583000Y-95974001I0J249999D01*
G01*
X104583000Y-95323999D01*
G75*
G02*
X104832999Y-95074000I249999J0D01*
G01*
G37*
%TD.AperFunction*%
%TO.P,R2,1*%
%TO.N,Net-(J2-Pad3)*%
%TA.AperFunction,SMDPad,CuDef*%
G36*
G01*
X104832999Y-93024000D02*
X105733001Y-93024000D01*
G75*
G02*
X105983000Y-93273999I0J-249999D01*
G01*
X105983000Y-93924001D01*
G75*
G02*
X105733001Y-94174000I-249999J0D01*
G01*
X104832999Y-94174000D01*
G75*
G02*
X104583000Y-93924001I0J249999D01*
G01*
X104583000Y-93273999D01*
G75*
G02*
X104832999Y-93024000I249999J0D01*
G01*
G37*
%TD.AperFunction*%
%TD*%
%TO.P,U4,16*%
%TO.N,+5V*%
%TA.AperFunction,ComponentPad*%
G36*
G01*
X164370374Y-103410374D02*
X164370374Y-103410374D01*
G75*
G02*
X163239004Y-103410374I-565685J565685D01*
G01*
X162673318Y-102844688D01*
G75*
G02*
X162673318Y-101713318I565685J565685D01*
G01*
X162673318Y-101713318D01*
G75*
G02*
X163804688Y-101713318I565685J-565685D01*
G01*
X164370374Y-102279004D01*
G75*
G02*
X164370374Y-103410374I-565685J-565685D01*
G01*
G37*
%TD.AperFunction*%
%TO.P,U4,8*%
%TO.N,GND*%
%TA.AperFunction,ComponentPad*%
G36*
G01*
X182330887Y-96226169D02*
X182330887Y-96226169D01*
G75*
G02*
X181199517Y-96226169I-565685J565685D01*
G01*
X180633831Y-95660483D01*
G75*
G02*
X180633831Y-94529113I565685J565685D01*
G01*
X180633831Y-94529113D01*
G75*
G02*
X181765201Y-94529113I565685J-565685D01*
G01*
X182330887Y-95094799D01*
G75*
G02*
X182330887Y-96226169I-565685J-565685D01*
G01*
G37*
%TD.AperFunction*%
%TO.P,U4,15*%
%TA.AperFunction,ComponentPad*%
G36*
G01*
X166166426Y-101614323D02*
X166166426Y-101614323D01*
G75*
G02*
X165035056Y-101614323I-565685J565685D01*
G01*
X164469370Y-101048637D01*
G75*
G02*
X164469370Y-99917267I565685J565685D01*
G01*
X164469370Y-99917267D01*
G75*
G02*
X165600740Y-99917267I565685J-565685D01*
G01*
X166166426Y-100482953D01*
G75*
G02*
X166166426Y-101614323I-565685J-565685D01*
G01*
G37*
%TD.AperFunction*%
%TO.P,U4,7*%
%TO.N,Net-(U4-Pad7)*%
%TA.AperFunction,ComponentPad*%
G36*
G01*
X180534835Y-98022221D02*
X180534835Y-98022221D01*
G75*
G02*
X179403465Y-98022221I-565685J565685D01*
G01*
X178837779Y-97456535D01*
G75*
G02*
X178837779Y-96325165I565685J565685D01*
G01*
X178837779Y-96325165D01*
G75*
G02*
X179969149Y-96325165I565685J-565685D01*
G01*
X180534835Y-96890851D01*
G75*
G02*
X180534835Y-98022221I-565685J-565685D01*
G01*
G37*
%TD.AperFunction*%
%TO.P,U4,14*%
%TO.N,Net-(J1-Pad9)*%
%TA.AperFunction,ComponentPad*%
G36*
G01*
X167962477Y-99818272D02*
X167962477Y-99818272D01*
G75*
G02*
X166831107Y-99818272I-565685J565685D01*
G01*
X166265421Y-99252586D01*
G75*
G02*
X166265421Y-98121216I565685J565685D01*
G01*
X166265421Y-98121216D01*
G75*
G02*
X167396791Y-98121216I565685J-565685D01*
G01*
X167962477Y-98686902D01*
G75*
G02*
X167962477Y-99818272I-565685J-565685D01*
G01*
G37*
%TD.AperFunction*%
%TO.P,U4,6*%
%TO.N,Net-(J1-Pad1)*%
%TA.AperFunction,ComponentPad*%
G36*
G01*
X178738784Y-99818272D02*
X178738784Y-99818272D01*
G75*
G02*
X177607414Y-99818272I-565685J565685D01*
G01*
X177041728Y-99252586D01*
G75*
G02*
X177041728Y-98121216I565685J565685D01*
G01*
X177041728Y-98121216D01*
G75*
G02*
X178173098Y-98121216I565685J-565685D01*
G01*
X178738784Y-98686902D01*
G75*
G02*
X178738784Y-99818272I-565685J-565685D01*
G01*
G37*
%TD.AperFunction*%
%TO.P,U4,13*%
%TO.N,Net-(J1-Pad11)*%
%TA.AperFunction,ComponentPad*%
G36*
G01*
X169758528Y-98022221D02*
X169758528Y-98022221D01*
G75*
G02*
X168627158Y-98022221I-565685J565685D01*
G01*
X168061472Y-97456535D01*
G75*
G02*
X168061472Y-96325165I565685J565685D01*
G01*
X168061472Y-96325165D01*
G75*
G02*
X169192842Y-96325165I565685J-565685D01*
G01*
X169758528Y-96890851D01*
G75*
G02*
X169758528Y-98022221I-565685J-565685D01*
G01*
G37*
%TD.AperFunction*%
%TO.P,U4,5*%
%TO.N,Net-(J1-Pad3)*%
%TA.AperFunction,ComponentPad*%
G36*
G01*
X176942733Y-101614323D02*
X176942733Y-101614323D01*
G75*
G02*
X175811363Y-101614323I-565685J565685D01*
G01*
X175245677Y-101048637D01*
G75*
G02*
X175245677Y-99917267I565685J565685D01*
G01*
X175245677Y-99917267D01*
G75*
G02*
X176377047Y-99917267I565685J-565685D01*
G01*
X176942733Y-100482953D01*
G75*
G02*
X176942733Y-101614323I-565685J-565685D01*
G01*
G37*
%TD.AperFunction*%
%TO.P,U4,12*%
%TO.N,Net-(J1-Pad13)*%
%TA.AperFunction,ComponentPad*%
G36*
G01*
X171554579Y-96226169D02*
X171554579Y-96226169D01*
G75*
G02*
X170423209Y-96226169I-565685J565685D01*
G01*
X169857523Y-95660483D01*
G75*
G02*
X169857523Y-94529113I565685J565685D01*
G01*
X169857523Y-94529113D01*
G75*
G02*
X170988893Y-94529113I565685J-565685D01*
G01*
X171554579Y-95094799D01*
G75*
G02*
X171554579Y-96226169I-565685J-565685D01*
G01*
G37*
%TD.AperFunction*%
%TO.P,U4,4*%
%TO.N,Net-(J1-Pad5)*%
%TA.AperFunction,ComponentPad*%
G36*
G01*
X175146682Y-103410374D02*
X175146682Y-103410374D01*
G75*
G02*
X174015312Y-103410374I-565685J565685D01*
G01*
X173449626Y-102844688D01*
G75*
G02*
X173449626Y-101713318I565685J565685D01*
G01*
X173449626Y-101713318D01*
G75*
G02*
X174580996Y-101713318I565685J-565685D01*
G01*
X175146682Y-102279004D01*
G75*
G02*
X175146682Y-103410374I-565685J-565685D01*
G01*
G37*
%TD.AperFunction*%
%TO.P,U4,11*%
%TO.N,Net-(J1-Pad15)*%
%TA.AperFunction,ComponentPad*%
G36*
G01*
X173350630Y-94430118D02*
X173350630Y-94430118D01*
G75*
G02*
X172219260Y-94430118I-565685J565685D01*
G01*
X171653574Y-93864432D01*
G75*
G02*
X171653574Y-92733062I565685J565685D01*
G01*
X171653574Y-92733062D01*
G75*
G02*
X172784944Y-92733062I565685J-565685D01*
G01*
X173350630Y-93298748D01*
G75*
G02*
X173350630Y-94430118I-565685J-565685D01*
G01*
G37*
%TD.AperFunction*%
%TO.P,U4,3*%
%TO.N,Net-(J1-Pad7)*%
%TA.AperFunction,ComponentPad*%
G36*
G01*
X173350630Y-105206426D02*
X173350630Y-105206426D01*
G75*
G02*
X172219260Y-105206426I-565685J565685D01*
G01*
X171653574Y-104640740D01*
G75*
G02*
X171653574Y-103509370I565685J565685D01*
G01*
X171653574Y-103509370D01*
G75*
G02*
X172784944Y-103509370I565685J-565685D01*
G01*
X173350630Y-104075056D01*
G75*
G02*
X173350630Y-105206426I-565685J-565685D01*
G01*
G37*
%TD.AperFunction*%
%TO.P,U4,10*%
%TO.N,Net-(U3-Pad9)*%
%TA.AperFunction,ComponentPad*%
G36*
G01*
X175146682Y-92634067D02*
X175146682Y-92634067D01*
G75*
G02*
X174015312Y-92634067I-565685J565685D01*
G01*
X173449626Y-92068381D01*
G75*
G02*
X173449626Y-90937011I565685J565685D01*
G01*
X173449626Y-90937011D01*
G75*
G02*
X174580996Y-90937011I565685J-565685D01*
G01*
X175146682Y-91502697D01*
G75*
G02*
X175146682Y-92634067I-565685J-565685D01*
G01*
G37*
%TD.AperFunction*%
%TO.P,U4,2*%
%TO.N,Net-(J2-Pad6)*%
%TA.AperFunction,ComponentPad*%
G36*
G01*
X171554579Y-107002477D02*
X171554579Y-107002477D01*
G75*
G02*
X170423209Y-107002477I-565685J565685D01*
G01*
X169857523Y-106436791D01*
G75*
G02*
X169857523Y-105305421I565685J565685D01*
G01*
X169857523Y-105305421D01*
G75*
G02*
X170988893Y-105305421I565685J-565685D01*
G01*
X171554579Y-105871107D01*
G75*
G02*
X171554579Y-107002477I-565685J-565685D01*
G01*
G37*
%TD.AperFunction*%
%TO.P,U4,9*%
%TO.N,Net-(R4-Pad1)*%
%TA.AperFunction,ComponentPad*%
G36*
G01*
X176942733Y-90838016D02*
X176942733Y-90838016D01*
G75*
G02*
X175811363Y-90838016I-565685J565685D01*
G01*
X175245677Y-90272330D01*
G75*
G02*
X175245677Y-89140960I565685J565685D01*
G01*
X175245677Y-89140960D01*
G75*
G02*
X176377047Y-89140960I565685J-565685D01*
G01*
X176942733Y-89706646D01*
G75*
G02*
X176942733Y-90838016I-565685J-565685D01*
G01*
G37*
%TD.AperFunction*%
%TA.AperFunction,ComponentPad*%
D15*
%TO.P,U4,1*%
%TO.N,Net-(J2-Pad4)*%
G36*
X170324214Y-108232843D02*
G01*
X169192843Y-109364214D01*
X167495786Y-107667157D01*
X168627157Y-106535786D01*
X170324214Y-108232843D01*
G37*
%TD.AperFunction*%
%TD*%
%TO.P,U3,16*%
%TO.N,+5V*%
%TA.AperFunction,ComponentPad*%
G36*
G01*
X146718015Y-103282733D02*
X146718015Y-103282733D01*
G75*
G02*
X145586645Y-103282733I-565685J565685D01*
G01*
X145020959Y-102717047D01*
G75*
G02*
X145020959Y-101585677I565685J565685D01*
G01*
X145020959Y-101585677D01*
G75*
G02*
X146152329Y-101585677I565685J-565685D01*
G01*
X146718015Y-102151363D01*
G75*
G02*
X146718015Y-103282733I-565685J-565685D01*
G01*
G37*
%TD.AperFunction*%
%TO.P,U3,8*%
%TO.N,GND*%
%TA.AperFunction,ComponentPad*%
G36*
G01*
X164678528Y-96098528D02*
X164678528Y-96098528D01*
G75*
G02*
X163547158Y-96098528I-565685J565685D01*
G01*
X162981472Y-95532842D01*
G75*
G02*
X162981472Y-94401472I565685J565685D01*
G01*
X162981472Y-94401472D01*
G75*
G02*
X164112842Y-94401472I565685J-565685D01*
G01*
X164678528Y-94967158D01*
G75*
G02*
X164678528Y-96098528I-565685J-565685D01*
G01*
G37*
%TD.AperFunction*%
%TO.P,U3,15*%
%TA.AperFunction,ComponentPad*%
G36*
G01*
X148514067Y-101486682D02*
X148514067Y-101486682D01*
G75*
G02*
X147382697Y-101486682I-565685J565685D01*
G01*
X146817011Y-100920996D01*
G75*
G02*
X146817011Y-99789626I565685J565685D01*
G01*
X146817011Y-99789626D01*
G75*
G02*
X147948381Y-99789626I565685J-565685D01*
G01*
X148514067Y-100355312D01*
G75*
G02*
X148514067Y-101486682I-565685J-565685D01*
G01*
G37*
%TD.AperFunction*%
%TO.P,U3,7*%
%TO.N,Net-(U3-Pad7)*%
%TA.AperFunction,ComponentPad*%
G36*
G01*
X162882476Y-97894580D02*
X162882476Y-97894580D01*
G75*
G02*
X161751106Y-97894580I-565685J565685D01*
G01*
X161185420Y-97328894D01*
G75*
G02*
X161185420Y-96197524I565685J565685D01*
G01*
X161185420Y-96197524D01*
G75*
G02*
X162316790Y-96197524I565685J-565685D01*
G01*
X162882476Y-96763210D01*
G75*
G02*
X162882476Y-97894580I-565685J-565685D01*
G01*
G37*
%TD.AperFunction*%
%TO.P,U3,14*%
%TO.N,Net-(J1-Pad25)*%
%TA.AperFunction,ComponentPad*%
G36*
G01*
X150310118Y-99690631D02*
X150310118Y-99690631D01*
G75*
G02*
X149178748Y-99690631I-565685J565685D01*
G01*
X148613062Y-99124945D01*
G75*
G02*
X148613062Y-97993575I565685J565685D01*
G01*
X148613062Y-97993575D01*
G75*
G02*
X149744432Y-97993575I565685J-565685D01*
G01*
X150310118Y-98559261D01*
G75*
G02*
X150310118Y-99690631I-565685J-565685D01*
G01*
G37*
%TD.AperFunction*%
%TO.P,U3,6*%
%TO.N,Net-(J1-Pad17)*%
%TA.AperFunction,ComponentPad*%
G36*
G01*
X161086425Y-99690631D02*
X161086425Y-99690631D01*
G75*
G02*
X159955055Y-99690631I-565685J565685D01*
G01*
X159389369Y-99124945D01*
G75*
G02*
X159389369Y-97993575I565685J565685D01*
G01*
X159389369Y-97993575D01*
G75*
G02*
X160520739Y-97993575I565685J-565685D01*
G01*
X161086425Y-98559261D01*
G75*
G02*
X161086425Y-99690631I-565685J-565685D01*
G01*
G37*
%TD.AperFunction*%
%TO.P,U3,13*%
%TO.N,Net-(J1-Pad27)*%
%TA.AperFunction,ComponentPad*%
G36*
G01*
X152106169Y-97894580D02*
X152106169Y-97894580D01*
G75*
G02*
X150974799Y-97894580I-565685J565685D01*
G01*
X150409113Y-97328894D01*
G75*
G02*
X150409113Y-96197524I565685J565685D01*
G01*
X150409113Y-96197524D01*
G75*
G02*
X151540483Y-96197524I565685J-565685D01*
G01*
X152106169Y-96763210D01*
G75*
G02*
X152106169Y-97894580I-565685J-565685D01*
G01*
G37*
%TD.AperFunction*%
%TO.P,U3,5*%
%TO.N,Net-(J1-Pad19)*%
%TA.AperFunction,ComponentPad*%
G36*
G01*
X159290374Y-101486682D02*
X159290374Y-101486682D01*
G75*
G02*
X158159004Y-101486682I-565685J565685D01*
G01*
X157593318Y-100920996D01*
G75*
G02*
X157593318Y-99789626I565685J565685D01*
G01*
X157593318Y-99789626D01*
G75*
G02*
X158724688Y-99789626I565685J-565685D01*
G01*
X159290374Y-100355312D01*
G75*
G02*
X159290374Y-101486682I-565685J-565685D01*
G01*
G37*
%TD.AperFunction*%
%TO.P,U3,12*%
%TO.N,Net-(J1-Pad29)*%
%TA.AperFunction,ComponentPad*%
G36*
G01*
X153902220Y-96098528D02*
X153902220Y-96098528D01*
G75*
G02*
X152770850Y-96098528I-565685J565685D01*
G01*
X152205164Y-95532842D01*
G75*
G02*
X152205164Y-94401472I565685J565685D01*
G01*
X152205164Y-94401472D01*
G75*
G02*
X153336534Y-94401472I565685J-565685D01*
G01*
X153902220Y-94967158D01*
G75*
G02*
X153902220Y-96098528I-565685J-565685D01*
G01*
G37*
%TD.AperFunction*%
%TO.P,U3,4*%
%TO.N,Net-(J1-Pad21)*%
%TA.AperFunction,ComponentPad*%
G36*
G01*
X157494323Y-103282733D02*
X157494323Y-103282733D01*
G75*
G02*
X156362953Y-103282733I-565685J565685D01*
G01*
X155797267Y-102717047D01*
G75*
G02*
X155797267Y-101585677I565685J565685D01*
G01*
X155797267Y-101585677D01*
G75*
G02*
X156928637Y-101585677I565685J-565685D01*
G01*
X157494323Y-102151363D01*
G75*
G02*
X157494323Y-103282733I-565685J-565685D01*
G01*
G37*
%TD.AperFunction*%
%TO.P,U3,11*%
%TO.N,Net-(J1-Pad31)*%
%TA.AperFunction,ComponentPad*%
G36*
G01*
X155698271Y-94302477D02*
X155698271Y-94302477D01*
G75*
G02*
X154566901Y-94302477I-565685J565685D01*
G01*
X154001215Y-93736791D01*
G75*
G02*
X154001215Y-92605421I565685J565685D01*
G01*
X154001215Y-92605421D01*
G75*
G02*
X155132585Y-92605421I565685J-565685D01*
G01*
X155698271Y-93171107D01*
G75*
G02*
X155698271Y-94302477I-565685J-565685D01*
G01*
G37*
%TD.AperFunction*%
%TO.P,U3,3*%
%TO.N,Net-(J1-Pad23)*%
%TA.AperFunction,ComponentPad*%
G36*
G01*
X155698271Y-105078785D02*
X155698271Y-105078785D01*
G75*
G02*
X154566901Y-105078785I-565685J565685D01*
G01*
X154001215Y-104513099D01*
G75*
G02*
X154001215Y-103381729I565685J565685D01*
G01*
X154001215Y-103381729D01*
G75*
G02*
X155132585Y-103381729I565685J-565685D01*
G01*
X155698271Y-103947415D01*
G75*
G02*
X155698271Y-105078785I-565685J-565685D01*
G01*
G37*
%TD.AperFunction*%
%TO.P,U3,10*%
%TO.N,Net-(J3-Pad1)*%
%TA.AperFunction,ComponentPad*%
G36*
G01*
X157494323Y-92506426D02*
X157494323Y-92506426D01*
G75*
G02*
X156362953Y-92506426I-565685J565685D01*
G01*
X155797267Y-91940740D01*
G75*
G02*
X155797267Y-90809370I565685J565685D01*
G01*
X155797267Y-90809370D01*
G75*
G02*
X156928637Y-90809370I565685J-565685D01*
G01*
X157494323Y-91375056D01*
G75*
G02*
X157494323Y-92506426I-565685J-565685D01*
G01*
G37*
%TD.AperFunction*%
%TO.P,U3,2*%
%TO.N,Net-(J2-Pad6)*%
%TA.AperFunction,ComponentPad*%
G36*
G01*
X153902220Y-106874836D02*
X153902220Y-106874836D01*
G75*
G02*
X152770850Y-106874836I-565685J565685D01*
G01*
X152205164Y-106309150D01*
G75*
G02*
X152205164Y-105177780I565685J565685D01*
G01*
X152205164Y-105177780D01*
G75*
G02*
X153336534Y-105177780I565685J-565685D01*
G01*
X153902220Y-105743466D01*
G75*
G02*
X153902220Y-106874836I-565685J-565685D01*
G01*
G37*
%TD.AperFunction*%
%TO.P,U3,9*%
%TO.N,Net-(U3-Pad9)*%
%TA.AperFunction,ComponentPad*%
G36*
G01*
X159290374Y-90710375D02*
X159290374Y-90710375D01*
G75*
G02*
X158159004Y-90710375I-565685J565685D01*
G01*
X157593318Y-90144689D01*
G75*
G02*
X157593318Y-89013319I565685J565685D01*
G01*
X157593318Y-89013319D01*
G75*
G02*
X158724688Y-89013319I565685J-565685D01*
G01*
X159290374Y-89579005D01*
G75*
G02*
X159290374Y-90710375I-565685J-565685D01*
G01*
G37*
%TD.AperFunction*%
%TA.AperFunction,ComponentPad*%
%TO.P,U3,1*%
%TO.N,Net-(J2-Pad4)*%
G36*
X152671855Y-108105202D02*
G01*
X151540484Y-109236573D01*
X149843427Y-107539516D01*
X150974798Y-106408145D01*
X152671855Y-108105202D01*
G37*
%TD.AperFunction*%
%TD*%
%TO.P,U2,16*%
%TO.N,+5V*%
%TA.AperFunction,ComponentPad*%
G36*
G01*
X128938015Y-103282733D02*
X128938015Y-103282733D01*
G75*
G02*
X127806645Y-103282733I-565685J565685D01*
G01*
X127240959Y-102717047D01*
G75*
G02*
X127240959Y-101585677I565685J565685D01*
G01*
X127240959Y-101585677D01*
G75*
G02*
X128372329Y-101585677I565685J-565685D01*
G01*
X128938015Y-102151363D01*
G75*
G02*
X128938015Y-103282733I-565685J-565685D01*
G01*
G37*
%TD.AperFunction*%
%TO.P,U2,8*%
%TO.N,GND*%
%TA.AperFunction,ComponentPad*%
G36*
G01*
X146898528Y-96098528D02*
X146898528Y-96098528D01*
G75*
G02*
X145767158Y-96098528I-565685J565685D01*
G01*
X145201472Y-95532842D01*
G75*
G02*
X145201472Y-94401472I565685J565685D01*
G01*
X145201472Y-94401472D01*
G75*
G02*
X146332842Y-94401472I565685J-565685D01*
G01*
X146898528Y-94967158D01*
G75*
G02*
X146898528Y-96098528I-565685J-565685D01*
G01*
G37*
%TD.AperFunction*%
%TO.P,U2,15*%
%TO.N,Net-(J1-Pad47)*%
%TA.AperFunction,ComponentPad*%
G36*
G01*
X130734067Y-101486682D02*
X130734067Y-101486682D01*
G75*
G02*
X129602697Y-101486682I-565685J565685D01*
G01*
X129037011Y-100920996D01*
G75*
G02*
X129037011Y-99789626I565685J565685D01*
G01*
X129037011Y-99789626D01*
G75*
G02*
X130168381Y-99789626I565685J-565685D01*
G01*
X130734067Y-100355312D01*
G75*
G02*
X130734067Y-101486682I-565685J-565685D01*
G01*
G37*
%TD.AperFunction*%
%TO.P,U2,7*%
%TO.N,Net-(J1-Pad33)*%
%TA.AperFunction,ComponentPad*%
G36*
G01*
X145102476Y-97894580D02*
X145102476Y-97894580D01*
G75*
G02*
X143971106Y-97894580I-565685J565685D01*
G01*
X143405420Y-97328894D01*
G75*
G02*
X143405420Y-96197524I565685J565685D01*
G01*
X143405420Y-96197524D01*
G75*
G02*
X144536790Y-96197524I565685J-565685D01*
G01*
X145102476Y-96763210D01*
G75*
G02*
X145102476Y-97894580I-565685J-565685D01*
G01*
G37*
%TD.AperFunction*%
%TO.P,U2,14*%
%TO.N,Net-(U1-Pad9)*%
%TA.AperFunction,ComponentPad*%
G36*
G01*
X132530118Y-99690631D02*
X132530118Y-99690631D01*
G75*
G02*
X131398748Y-99690631I-565685J565685D01*
G01*
X130833062Y-99124945D01*
G75*
G02*
X130833062Y-97993575I565685J565685D01*
G01*
X130833062Y-97993575D01*
G75*
G02*
X131964432Y-97993575I565685J-565685D01*
G01*
X132530118Y-98559261D01*
G75*
G02*
X132530118Y-99690631I-565685J-565685D01*
G01*
G37*
%TD.AperFunction*%
%TO.P,U2,6*%
%TO.N,Net-(J1-Pad35)*%
%TA.AperFunction,ComponentPad*%
G36*
G01*
X143306425Y-99690631D02*
X143306425Y-99690631D01*
G75*
G02*
X142175055Y-99690631I-565685J565685D01*
G01*
X141609369Y-99124945D01*
G75*
G02*
X141609369Y-97993575I565685J565685D01*
G01*
X141609369Y-97993575D01*
G75*
G02*
X142740739Y-97993575I565685J-565685D01*
G01*
X143306425Y-98559261D01*
G75*
G02*
X143306425Y-99690631I-565685J-565685D01*
G01*
G37*
%TD.AperFunction*%
%TO.P,U2,13*%
%TO.N,GND*%
%TA.AperFunction,ComponentPad*%
G36*
G01*
X134326169Y-97894580D02*
X134326169Y-97894580D01*
G75*
G02*
X133194799Y-97894580I-565685J565685D01*
G01*
X132629113Y-97328894D01*
G75*
G02*
X132629113Y-96197524I565685J565685D01*
G01*
X132629113Y-96197524D01*
G75*
G02*
X133760483Y-96197524I565685J-565685D01*
G01*
X134326169Y-96763210D01*
G75*
G02*
X134326169Y-97894580I-565685J-565685D01*
G01*
G37*
%TD.AperFunction*%
%TO.P,U2,5*%
%TO.N,Net-(J1-Pad37)*%
%TA.AperFunction,ComponentPad*%
G36*
G01*
X141510374Y-101486682D02*
X141510374Y-101486682D01*
G75*
G02*
X140379004Y-101486682I-565685J565685D01*
G01*
X139813318Y-100920996D01*
G75*
G02*
X139813318Y-99789626I565685J565685D01*
G01*
X139813318Y-99789626D01*
G75*
G02*
X140944688Y-99789626I565685J-565685D01*
G01*
X141510374Y-100355312D01*
G75*
G02*
X141510374Y-101486682I-565685J-565685D01*
G01*
G37*
%TD.AperFunction*%
%TO.P,U2,12*%
%TO.N,Net-(J2-Pad4)*%
%TA.AperFunction,ComponentPad*%
G36*
G01*
X136122220Y-96098528D02*
X136122220Y-96098528D01*
G75*
G02*
X134990850Y-96098528I-565685J565685D01*
G01*
X134425164Y-95532842D01*
G75*
G02*
X134425164Y-94401472I565685J565685D01*
G01*
X134425164Y-94401472D01*
G75*
G02*
X135556534Y-94401472I565685J-565685D01*
G01*
X136122220Y-94967158D01*
G75*
G02*
X136122220Y-96098528I-565685J-565685D01*
G01*
G37*
%TD.AperFunction*%
%TO.P,U2,4*%
%TO.N,Net-(J1-Pad39)*%
%TA.AperFunction,ComponentPad*%
G36*
G01*
X139714323Y-103282733D02*
X139714323Y-103282733D01*
G75*
G02*
X138582953Y-103282733I-565685J565685D01*
G01*
X138017267Y-102717047D01*
G75*
G02*
X138017267Y-101585677I565685J565685D01*
G01*
X138017267Y-101585677D01*
G75*
G02*
X139148637Y-101585677I565685J-565685D01*
G01*
X139714323Y-102151363D01*
G75*
G02*
X139714323Y-103282733I-565685J-565685D01*
G01*
G37*
%TD.AperFunction*%
%TO.P,U2,11*%
%TO.N,Net-(J2-Pad6)*%
%TA.AperFunction,ComponentPad*%
G36*
G01*
X137918271Y-94302477D02*
X137918271Y-94302477D01*
G75*
G02*
X136786901Y-94302477I-565685J565685D01*
G01*
X136221215Y-93736791D01*
G75*
G02*
X136221215Y-92605421I565685J565685D01*
G01*
X136221215Y-92605421D01*
G75*
G02*
X137352585Y-92605421I565685J-565685D01*
G01*
X137918271Y-93171107D01*
G75*
G02*
X137918271Y-94302477I-565685J-565685D01*
G01*
G37*
%TD.AperFunction*%
%TO.P,U2,3*%
%TO.N,Net-(J1-Pad41)*%
%TA.AperFunction,ComponentPad*%
G36*
G01*
X137918271Y-105078785D02*
X137918271Y-105078785D01*
G75*
G02*
X136786901Y-105078785I-565685J565685D01*
G01*
X136221215Y-104513099D01*
G75*
G02*
X136221215Y-103381729I565685J565685D01*
G01*
X136221215Y-103381729D01*
G75*
G02*
X137352585Y-103381729I565685J-565685D01*
G01*
X137918271Y-103947415D01*
G75*
G02*
X137918271Y-105078785I-565685J-565685D01*
G01*
G37*
%TD.AperFunction*%
%TO.P,U2,10*%
%TO.N,Net-(R1-Pad2)*%
%TA.AperFunction,ComponentPad*%
G36*
G01*
X139714323Y-92506426D02*
X139714323Y-92506426D01*
G75*
G02*
X138582953Y-92506426I-565685J565685D01*
G01*
X138017267Y-91940740D01*
G75*
G02*
X138017267Y-90809370I565685J565685D01*
G01*
X138017267Y-90809370D01*
G75*
G02*
X139148637Y-90809370I565685J-565685D01*
G01*
X139714323Y-91375056D01*
G75*
G02*
X139714323Y-92506426I-565685J-565685D01*
G01*
G37*
%TD.AperFunction*%
%TO.P,U2,2*%
%TO.N,Net-(J1-Pad43)*%
%TA.AperFunction,ComponentPad*%
G36*
G01*
X136122220Y-106874836D02*
X136122220Y-106874836D01*
G75*
G02*
X134990850Y-106874836I-565685J565685D01*
G01*
X134425164Y-106309150D01*
G75*
G02*
X134425164Y-105177780I565685J565685D01*
G01*
X134425164Y-105177780D01*
G75*
G02*
X135556534Y-105177780I565685J-565685D01*
G01*
X136122220Y-105743466D01*
G75*
G02*
X136122220Y-106874836I-565685J-565685D01*
G01*
G37*
%TD.AperFunction*%
%TO.P,U2,9*%
%TO.N,Net-(U2-Pad9)*%
%TA.AperFunction,ComponentPad*%
G36*
G01*
X141510374Y-90710375D02*
X141510374Y-90710375D01*
G75*
G02*
X140379004Y-90710375I-565685J565685D01*
G01*
X139813318Y-90144689D01*
G75*
G02*
X139813318Y-89013319I565685J565685D01*
G01*
X139813318Y-89013319D01*
G75*
G02*
X140944688Y-89013319I565685J-565685D01*
G01*
X141510374Y-89579005D01*
G75*
G02*
X141510374Y-90710375I-565685J-565685D01*
G01*
G37*
%TD.AperFunction*%
%TA.AperFunction,ComponentPad*%
%TO.P,U2,1*%
%TO.N,Net-(J1-Pad45)*%
G36*
X134891855Y-108105202D02*
G01*
X133760484Y-109236573D01*
X132063427Y-107539516D01*
X133194798Y-106408145D01*
X134891855Y-108105202D01*
G37*
%TD.AperFunction*%
%TD*%
%TO.P,U1,16*%
%TO.N,+5V*%
%TA.AperFunction,ComponentPad*%
G36*
G01*
X111466169Y-103410374D02*
X111466169Y-103410374D01*
G75*
G02*
X110334799Y-103410374I-565685J565685D01*
G01*
X109769113Y-102844688D01*
G75*
G02*
X109769113Y-101713318I565685J565685D01*
G01*
X109769113Y-101713318D01*
G75*
G02*
X110900483Y-101713318I565685J-565685D01*
G01*
X111466169Y-102279004D01*
G75*
G02*
X111466169Y-103410374I-565685J-565685D01*
G01*
G37*
%TD.AperFunction*%
%TO.P,U1,8*%
%TO.N,GND*%
%TA.AperFunction,ComponentPad*%
G36*
G01*
X129426682Y-96226169D02*
X129426682Y-96226169D01*
G75*
G02*
X128295312Y-96226169I-565685J565685D01*
G01*
X127729626Y-95660483D01*
G75*
G02*
X127729626Y-94529113I565685J565685D01*
G01*
X127729626Y-94529113D01*
G75*
G02*
X128860996Y-94529113I565685J-565685D01*
G01*
X129426682Y-95094799D01*
G75*
G02*
X129426682Y-96226169I-565685J-565685D01*
G01*
G37*
%TD.AperFunction*%
%TO.P,U1,15*%
%TO.N,Net-(J1-Pad63)*%
%TA.AperFunction,ComponentPad*%
G36*
G01*
X113262221Y-101614323D02*
X113262221Y-101614323D01*
G75*
G02*
X112130851Y-101614323I-565685J565685D01*
G01*
X111565165Y-101048637D01*
G75*
G02*
X111565165Y-99917267I565685J565685D01*
G01*
X111565165Y-99917267D01*
G75*
G02*
X112696535Y-99917267I565685J-565685D01*
G01*
X113262221Y-100482953D01*
G75*
G02*
X113262221Y-101614323I-565685J-565685D01*
G01*
G37*
%TD.AperFunction*%
%TO.P,U1,7*%
%TO.N,Net-(J1-Pad49)*%
%TA.AperFunction,ComponentPad*%
G36*
G01*
X127630630Y-98022221D02*
X127630630Y-98022221D01*
G75*
G02*
X126499260Y-98022221I-565685J565685D01*
G01*
X125933574Y-97456535D01*
G75*
G02*
X125933574Y-96325165I565685J565685D01*
G01*
X125933574Y-96325165D01*
G75*
G02*
X127064944Y-96325165I565685J-565685D01*
G01*
X127630630Y-96890851D01*
G75*
G02*
X127630630Y-98022221I-565685J-565685D01*
G01*
G37*
%TD.AperFunction*%
%TO.P,U1,14*%
%TO.N,Net-(J2-Pad1)*%
%TA.AperFunction,ComponentPad*%
G36*
G01*
X115058272Y-99818272D02*
X115058272Y-99818272D01*
G75*
G02*
X113926902Y-99818272I-565685J565685D01*
G01*
X113361216Y-99252586D01*
G75*
G02*
X113361216Y-98121216I565685J565685D01*
G01*
X113361216Y-98121216D01*
G75*
G02*
X114492586Y-98121216I565685J-565685D01*
G01*
X115058272Y-98686902D01*
G75*
G02*
X115058272Y-99818272I-565685J-565685D01*
G01*
G37*
%TD.AperFunction*%
%TO.P,U1,6*%
%TO.N,Net-(J1-Pad51)*%
%TA.AperFunction,ComponentPad*%
G36*
G01*
X125834579Y-99818272D02*
X125834579Y-99818272D01*
G75*
G02*
X124703209Y-99818272I-565685J565685D01*
G01*
X124137523Y-99252586D01*
G75*
G02*
X124137523Y-98121216I565685J565685D01*
G01*
X124137523Y-98121216D01*
G75*
G02*
X125268893Y-98121216I565685J-565685D01*
G01*
X125834579Y-98686902D01*
G75*
G02*
X125834579Y-99818272I-565685J-565685D01*
G01*
G37*
%TD.AperFunction*%
%TO.P,U1,13*%
%TO.N,GND*%
%TA.AperFunction,ComponentPad*%
G36*
G01*
X116854323Y-98022221D02*
X116854323Y-98022221D01*
G75*
G02*
X115722953Y-98022221I-565685J565685D01*
G01*
X115157267Y-97456535D01*
G75*
G02*
X115157267Y-96325165I565685J565685D01*
G01*
X115157267Y-96325165D01*
G75*
G02*
X116288637Y-96325165I565685J-565685D01*
G01*
X116854323Y-96890851D01*
G75*
G02*
X116854323Y-98022221I-565685J-565685D01*
G01*
G37*
%TD.AperFunction*%
%TO.P,U1,5*%
%TO.N,Net-(J1-Pad53)*%
%TA.AperFunction,ComponentPad*%
G36*
G01*
X124038528Y-101614323D02*
X124038528Y-101614323D01*
G75*
G02*
X122907158Y-101614323I-565685J565685D01*
G01*
X122341472Y-101048637D01*
G75*
G02*
X122341472Y-99917267I565685J565685D01*
G01*
X122341472Y-99917267D01*
G75*
G02*
X123472842Y-99917267I565685J-565685D01*
G01*
X124038528Y-100482953D01*
G75*
G02*
X124038528Y-101614323I-565685J-565685D01*
G01*
G37*
%TD.AperFunction*%
%TO.P,U1,12*%
%TO.N,Net-(J2-Pad4)*%
%TA.AperFunction,ComponentPad*%
G36*
G01*
X118650374Y-96226169D02*
X118650374Y-96226169D01*
G75*
G02*
X117519004Y-96226169I-565685J565685D01*
G01*
X116953318Y-95660483D01*
G75*
G02*
X116953318Y-94529113I565685J565685D01*
G01*
X116953318Y-94529113D01*
G75*
G02*
X118084688Y-94529113I565685J-565685D01*
G01*
X118650374Y-95094799D01*
G75*
G02*
X118650374Y-96226169I-565685J-565685D01*
G01*
G37*
%TD.AperFunction*%
%TO.P,U1,4*%
%TO.N,Net-(J1-Pad55)*%
%TA.AperFunction,ComponentPad*%
G36*
G01*
X122242477Y-103410374D02*
X122242477Y-103410374D01*
G75*
G02*
X121111107Y-103410374I-565685J565685D01*
G01*
X120545421Y-102844688D01*
G75*
G02*
X120545421Y-101713318I565685J565685D01*
G01*
X120545421Y-101713318D01*
G75*
G02*
X121676791Y-101713318I565685J-565685D01*
G01*
X122242477Y-102279004D01*
G75*
G02*
X122242477Y-103410374I-565685J-565685D01*
G01*
G37*
%TD.AperFunction*%
%TO.P,U1,11*%
%TO.N,Net-(J2-Pad6)*%
%TA.AperFunction,ComponentPad*%
G36*
G01*
X120446425Y-94430118D02*
X120446425Y-94430118D01*
G75*
G02*
X119315055Y-94430118I-565685J565685D01*
G01*
X118749369Y-93864432D01*
G75*
G02*
X118749369Y-92733062I565685J565685D01*
G01*
X118749369Y-92733062D01*
G75*
G02*
X119880739Y-92733062I565685J-565685D01*
G01*
X120446425Y-93298748D01*
G75*
G02*
X120446425Y-94430118I-565685J-565685D01*
G01*
G37*
%TD.AperFunction*%
%TO.P,U1,3*%
%TO.N,Net-(J1-Pad57)*%
%TA.AperFunction,ComponentPad*%
G36*
G01*
X120446425Y-105206426D02*
X120446425Y-105206426D01*
G75*
G02*
X119315055Y-105206426I-565685J565685D01*
G01*
X118749369Y-104640740D01*
G75*
G02*
X118749369Y-103509370I565685J565685D01*
G01*
X118749369Y-103509370D01*
G75*
G02*
X119880739Y-103509370I565685J-565685D01*
G01*
X120446425Y-104075056D01*
G75*
G02*
X120446425Y-105206426I-565685J-565685D01*
G01*
G37*
%TD.AperFunction*%
%TO.P,U1,10*%
%TO.N,Net-(R1-Pad2)*%
%TA.AperFunction,ComponentPad*%
G36*
G01*
X122242477Y-92634067D02*
X122242477Y-92634067D01*
G75*
G02*
X121111107Y-92634067I-565685J565685D01*
G01*
X120545421Y-92068381D01*
G75*
G02*
X120545421Y-90937011I565685J565685D01*
G01*
X120545421Y-90937011D01*
G75*
G02*
X121676791Y-90937011I565685J-565685D01*
G01*
X122242477Y-91502697D01*
G75*
G02*
X122242477Y-92634067I-565685J-565685D01*
G01*
G37*
%TD.AperFunction*%
%TO.P,U1,2*%
%TO.N,Net-(J1-Pad59)*%
%TA.AperFunction,ComponentPad*%
G36*
G01*
X118650374Y-107002477D02*
X118650374Y-107002477D01*
G75*
G02*
X117519004Y-107002477I-565685J565685D01*
G01*
X116953318Y-106436791D01*
G75*
G02*
X116953318Y-105305421I565685J565685D01*
G01*
X116953318Y-105305421D01*
G75*
G02*
X118084688Y-105305421I565685J-565685D01*
G01*
X118650374Y-105871107D01*
G75*
G02*
X118650374Y-107002477I-565685J-565685D01*
G01*
G37*
%TD.AperFunction*%
%TO.P,U1,9*%
%TO.N,Net-(U1-Pad9)*%
%TA.AperFunction,ComponentPad*%
G36*
G01*
X124038528Y-90838016D02*
X124038528Y-90838016D01*
G75*
G02*
X122907158Y-90838016I-565685J565685D01*
G01*
X122341472Y-90272330D01*
G75*
G02*
X122341472Y-89140960I565685J565685D01*
G01*
X122341472Y-89140960D01*
G75*
G02*
X123472842Y-89140960I565685J-565685D01*
G01*
X124038528Y-89706646D01*
G75*
G02*
X124038528Y-90838016I-565685J-565685D01*
G01*
G37*
%TD.AperFunction*%
%TA.AperFunction,ComponentPad*%
%TO.P,U1,1*%
%TO.N,Net-(J1-Pad61)*%
G36*
X117420009Y-108232843D02*
G01*
X116288638Y-109364214D01*
X114591581Y-107667157D01*
X115722952Y-106535786D01*
X117420009Y-108232843D01*
G37*
%TD.AperFunction*%
%TD*%
D13*
%TO.P,J1,64*%
%TO.N,+5V*%
X102108000Y-115697000D03*
%TO.P,J1,63*%
%TO.N,Net-(J1-Pad63)*%
X102108000Y-113157000D03*
%TO.P,J1,62*%
%TO.N,+5V*%
X104648000Y-115697000D03*
%TO.P,J1,61*%
%TO.N,Net-(J1-Pad61)*%
X104648000Y-113157000D03*
%TO.P,J1,60*%
%TO.N,+5V*%
X107188000Y-115697000D03*
%TO.P,J1,59*%
%TO.N,Net-(J1-Pad59)*%
X107188000Y-113157000D03*
%TO.P,J1,58*%
%TO.N,+5V*%
X109728000Y-115697000D03*
%TO.P,J1,57*%
%TO.N,Net-(J1-Pad57)*%
X109728000Y-113157000D03*
%TO.P,J1,56*%
%TO.N,GND*%
X112268000Y-115697000D03*
%TO.P,J1,55*%
%TO.N,Net-(J1-Pad55)*%
X112268000Y-113157000D03*
%TO.P,J1,54*%
%TO.N,GND*%
X114808000Y-115697000D03*
%TO.P,J1,53*%
%TO.N,Net-(J1-Pad53)*%
X114808000Y-113157000D03*
%TO.P,J1,52*%
%TO.N,GND*%
X117348000Y-115697000D03*
%TO.P,J1,51*%
%TO.N,Net-(J1-Pad51)*%
X117348000Y-113157000D03*
%TO.P,J1,50*%
%TO.N,GND*%
X119888000Y-115697000D03*
%TO.P,J1,49*%
%TO.N,Net-(J1-Pad49)*%
X119888000Y-113157000D03*
%TO.P,J1,48*%
%TO.N,GND*%
X122428000Y-115697000D03*
%TO.P,J1,47*%
%TO.N,Net-(J1-Pad47)*%
X122428000Y-113157000D03*
%TO.P,J1,46*%
%TO.N,GND*%
X124968000Y-115697000D03*
%TO.P,J1,45*%
%TO.N,Net-(J1-Pad45)*%
X124968000Y-113157000D03*
%TO.P,J1,44*%
%TO.N,GND*%
X127508000Y-115697000D03*
%TO.P,J1,43*%
%TO.N,Net-(J1-Pad43)*%
X127508000Y-113157000D03*
%TO.P,J1,42*%
%TO.N,GND*%
X130048000Y-115697000D03*
%TO.P,J1,41*%
%TO.N,Net-(J1-Pad41)*%
X130048000Y-113157000D03*
%TO.P,J1,40*%
%TO.N,GND*%
X132588000Y-115697000D03*
%TO.P,J1,39*%
%TO.N,Net-(J1-Pad39)*%
X132588000Y-113157000D03*
%TO.P,J1,38*%
%TO.N,GND*%
X135128000Y-115697000D03*
%TO.P,J1,37*%
%TO.N,Net-(J1-Pad37)*%
X135128000Y-113157000D03*
%TO.P,J1,36*%
%TO.N,GND*%
X137668000Y-115697000D03*
%TO.P,J1,35*%
%TO.N,Net-(J1-Pad35)*%
X137668000Y-113157000D03*
%TO.P,J1,34*%
%TO.N,GND*%
X140208000Y-115697000D03*
%TO.P,J1,33*%
%TO.N,Net-(J1-Pad33)*%
X140208000Y-113157000D03*
%TO.P,J1,32*%
%TO.N,GND*%
X142748000Y-115697000D03*
%TO.P,J1,31*%
%TO.N,Net-(J1-Pad31)*%
X142748000Y-113157000D03*
%TO.P,J1,30*%
%TO.N,GND*%
X145288000Y-115697000D03*
%TO.P,J1,29*%
%TO.N,Net-(J1-Pad29)*%
X145288000Y-113157000D03*
%TO.P,J1,28*%
%TO.N,GND*%
X147828000Y-115697000D03*
%TO.P,J1,27*%
%TO.N,Net-(J1-Pad27)*%
X147828000Y-113157000D03*
%TO.P,J1,26*%
%TO.N,GND*%
X150368000Y-115697000D03*
%TO.P,J1,25*%
%TO.N,Net-(J1-Pad25)*%
X150368000Y-113157000D03*
%TO.P,J1,24*%
%TO.N,GND*%
X152908000Y-115697000D03*
%TO.P,J1,23*%
%TO.N,Net-(J1-Pad23)*%
X152908000Y-113157000D03*
%TO.P,J1,22*%
%TO.N,GND*%
X155448000Y-115697000D03*
%TO.P,J1,21*%
%TO.N,Net-(J1-Pad21)*%
X155448000Y-113157000D03*
%TO.P,J1,20*%
%TO.N,GND*%
X157988000Y-115697000D03*
%TO.P,J1,19*%
%TO.N,Net-(J1-Pad19)*%
X157988000Y-113157000D03*
%TO.P,J1,18*%
%TO.N,GND*%
X160528000Y-115697000D03*
%TO.P,J1,17*%
%TO.N,Net-(J1-Pad17)*%
X160528000Y-113157000D03*
%TO.P,J1,16*%
%TO.N,GND*%
X163068000Y-115697000D03*
%TO.P,J1,15*%
%TO.N,Net-(J1-Pad15)*%
X163068000Y-113157000D03*
%TO.P,J1,14*%
%TO.N,GND*%
X165608000Y-115697000D03*
%TO.P,J1,13*%
%TO.N,Net-(J1-Pad13)*%
X165608000Y-113157000D03*
%TO.P,J1,12*%
%TO.N,GND*%
X168148000Y-115697000D03*
%TO.P,J1,11*%
%TO.N,Net-(J1-Pad11)*%
X168148000Y-113157000D03*
%TO.P,J1,10*%
%TO.N,GND*%
X170688000Y-115697000D03*
%TO.P,J1,9*%
%TO.N,Net-(J1-Pad9)*%
X170688000Y-113157000D03*
%TO.P,J1,8*%
%TO.N,GND*%
X173228000Y-115697000D03*
%TO.P,J1,7*%
%TO.N,Net-(J1-Pad7)*%
X173228000Y-113157000D03*
%TO.P,J1,6*%
%TO.N,GND*%
X175768000Y-115697000D03*
%TO.P,J1,5*%
%TO.N,Net-(J1-Pad5)*%
X175768000Y-113157000D03*
%TO.P,J1,4*%
%TO.N,GND*%
X178308000Y-115697000D03*
%TO.P,J1,3*%
%TO.N,Net-(J1-Pad3)*%
X178308000Y-113157000D03*
%TO.P,J1,2*%
%TO.N,GND*%
X180848000Y-115697000D03*
D12*
%TO.P,J1,1*%
%TO.N,Net-(J1-Pad1)*%
X180848000Y-113157000D03*
%TD*%
D16*
%TO.N,+5V*%
X101346000Y-107442000D03*
X102235000Y-107442000D03*
%TO.N,Net-(R1-Pad2)*%
X129286000Y-88773000D03*
%TO.N,Net-(U1-Pad9)*%
X131064000Y-91948000D03*
%TO.N,+5V*%
X159639000Y-94615000D03*
X177800000Y-91821000D03*
%TO.N,GND*%
X104013000Y-108712000D03*
X104013000Y-109855000D03*
X161798000Y-110871000D03*
X111760000Y-108331000D03*
X119316500Y-100484398D03*
%TO.N,+3V3*%
X104031000Y-95649000D03*
X106662000Y-95649000D03*
X101219000Y-98425000D03*
X101219000Y-99568000D03*
X106934000Y-98425000D03*
X106934000Y-99568000D03*
X102616000Y-100711000D03*
X105664000Y-100711000D03*
X105664000Y-97409000D03*
X102616000Y-97409000D03*
X104140000Y-103759000D03*
X104140000Y-102616000D03*
X101201000Y-95649000D03*
%TO.N,Net-(D1-Pad2)*%
X166243000Y-88900000D03*
%TD*%
D17*
%TO.N,Net-(U1-Pad9)*%
X129105488Y-89989488D02*
X123190000Y-89989488D01*
X131064000Y-91948000D02*
X129105488Y-89989488D01*
%TO.N,Net-(J2-Pad5)*%
X104013000Y-88265000D02*
X102743000Y-89662000D01*
X102743000Y-89662000D02*
X102743000Y-93590000D01*
X116640432Y-86868000D02*
X118581716Y-88809284D01*
X105410000Y-86868000D02*
X116640432Y-86868000D01*
X104013000Y-88265000D02*
X105410000Y-86868000D01*
%TO.N,Net-(J2-Pad6)*%
X170578410Y-106026308D02*
X153053692Y-106026308D01*
X170706051Y-106153949D02*
X170578410Y-106026308D01*
X122542527Y-93581590D02*
X119597897Y-93581590D01*
X123160117Y-92964000D02*
X122542527Y-93581590D01*
X136579794Y-92964000D02*
X123160117Y-92964000D01*
X137069743Y-93453949D02*
X136579794Y-92964000D01*
X137069743Y-95286743D02*
X137069743Y-93453949D01*
X147828000Y-106045000D02*
X137069743Y-95286743D01*
X153035000Y-106045000D02*
X147828000Y-106045000D01*
X153053692Y-106026308D02*
X153035000Y-106045000D01*
%TO.N,Net-(J2-Pad3)*%
X105283000Y-89535000D02*
X106553000Y-88265000D01*
X105283000Y-93599000D02*
X105283000Y-89535000D01*
%TO.N,Net-(J2-Pad4)*%
X111959205Y-89535000D02*
X117801846Y-95377641D01*
X107950000Y-89535000D02*
X111959205Y-89535000D01*
X106553000Y-90805000D02*
X107950000Y-89535000D01*
X168782359Y-107822359D02*
X151257641Y-107822359D01*
X168910000Y-107950000D02*
X168782359Y-107822359D01*
X135273692Y-97173692D02*
X135273692Y-95250000D01*
X145923000Y-107823000D02*
X135273692Y-97173692D01*
X151257000Y-107823000D02*
X145923000Y-107823000D01*
X151257641Y-107822359D02*
X151257000Y-107823000D01*
X117802487Y-95377000D02*
X117801846Y-95377641D01*
X122301000Y-95377000D02*
X117802487Y-95377000D01*
X123952000Y-93726000D02*
X122301000Y-95377000D01*
X133749692Y-93726000D02*
X123952000Y-93726000D01*
X135273692Y-95250000D02*
X133749692Y-93726000D01*
%TO.N,+5V*%
X105918000Y-115570000D02*
X105791000Y-115697000D01*
X105918000Y-111125000D02*
X105918000Y-115570000D01*
D18*
X109728000Y-115697000D02*
X108458000Y-115697000D01*
X108458000Y-115697000D02*
X105791000Y-115697000D01*
X105791000Y-115697000D02*
X103251000Y-115697000D01*
X103251000Y-115697000D02*
X102108000Y-115697000D01*
D17*
X107823000Y-111125000D02*
X105918000Y-111125000D01*
X108458000Y-111760000D02*
X107823000Y-111125000D01*
X108458000Y-115697000D02*
X108458000Y-111760000D01*
D19*
X159639000Y-94615000D02*
X159639000Y-94615000D01*
X150876000Y-103378000D02*
X159639000Y-94615000D01*
X146813282Y-103378000D02*
X150876000Y-103378000D01*
X145869487Y-102434205D02*
X146813282Y-103378000D01*
X110617000Y-102562487D02*
X110617641Y-102561846D01*
X115316000Y-110236000D02*
X110617000Y-105537000D01*
X120287692Y-110236000D02*
X115316000Y-110236000D01*
X128089487Y-102434205D02*
X120287692Y-110236000D01*
D17*
X103251000Y-115697000D02*
X103378000Y-115570000D01*
D19*
X103886000Y-111125000D02*
X103378000Y-111125000D01*
D17*
X103378000Y-111125000D02*
X103378000Y-110998000D01*
X103378000Y-115570000D02*
X103378000Y-111125000D01*
D19*
X104267000Y-111125000D02*
X103886000Y-111125000D01*
X105918000Y-111125000D02*
X104267000Y-111125000D01*
X108712000Y-107442000D02*
X102235000Y-107442000D01*
X110617641Y-105536359D02*
X108712000Y-107442000D01*
X110617641Y-102561846D02*
X110617641Y-105536359D01*
X101346000Y-110236000D02*
X101346000Y-107442000D01*
X102235000Y-111125000D02*
X101346000Y-110236000D01*
X103378000Y-111125000D02*
X102235000Y-111125000D01*
X103251000Y-111125000D02*
X104267000Y-111125000D01*
X102235000Y-110109000D02*
X103251000Y-111125000D01*
X102235000Y-107442000D02*
X102235000Y-110109000D01*
X177800000Y-91821000D02*
X177800000Y-91821000D01*
X165735000Y-103886000D02*
X177800000Y-91821000D01*
X164846000Y-103886000D02*
X165735000Y-103886000D01*
X163521846Y-102561846D02*
X164846000Y-103886000D01*
%TO.N,GND*%
X109093000Y-90805000D02*
X109093000Y-92583000D01*
X109093000Y-92583000D02*
X108077000Y-93599000D01*
X111324568Y-92583000D02*
X109093000Y-92583000D01*
X113066284Y-94324716D02*
X111324568Y-92583000D01*
D18*
X123698000Y-115697000D02*
X121158000Y-115697000D01*
X126238000Y-115697000D02*
X123698000Y-115697000D01*
D17*
X128778000Y-112522000D02*
X128778000Y-115824000D01*
X129413000Y-111887000D02*
X128778000Y-112522000D01*
X133223000Y-111887000D02*
X129413000Y-111887000D01*
X133858000Y-112522000D02*
X133223000Y-111887000D01*
X133858000Y-115824000D02*
X133858000Y-112522000D01*
D19*
X131808589Y-95377000D02*
X133477641Y-97046052D01*
X128578795Y-95377000D02*
X131808589Y-95377000D01*
X128578154Y-95377641D02*
X128578795Y-95377000D01*
X113066284Y-94324716D02*
X116005795Y-97173693D01*
%TO.N,+3V3*%
X100729000Y-95649000D02*
X101201000Y-95649000D01*
X99949000Y-94869000D02*
X100729000Y-95649000D01*
X99949000Y-89631000D02*
X99949000Y-94869000D01*
X101410000Y-88170000D02*
X99949000Y-89631000D01*
X104031000Y-95649000D02*
X106662000Y-95649000D01*
X102997000Y-95649000D02*
X104031000Y-95649000D01*
D17*
%TO.N,GND*%
X170135000Y-88900000D02*
X170180000Y-88855000D01*
X170180000Y-88900000D02*
X163830000Y-95250000D01*
X170325000Y-88900000D02*
X170180000Y-88900000D01*
X131318000Y-111887000D02*
X131318000Y-115824000D01*
X113538000Y-111252000D02*
X113538000Y-115697000D01*
D18*
X113538000Y-115697000D02*
X112268000Y-115697000D01*
D17*
X113538000Y-111252000D02*
X115570000Y-111252000D01*
X115570000Y-111252000D02*
X116078000Y-111760000D01*
X116078000Y-111760000D02*
X116078000Y-115697000D01*
D18*
X116078000Y-115697000D02*
X113538000Y-115697000D01*
X121158000Y-115697000D02*
X116078000Y-115697000D01*
D19*
X104013000Y-109855000D02*
X104140000Y-109982000D01*
X104013000Y-109855000D02*
X104013000Y-108712000D01*
D17*
X161798000Y-110871000D02*
X161798000Y-115697000D01*
D18*
X180848000Y-115697000D02*
X164338000Y-115697000D01*
X159258000Y-115697000D02*
X126238000Y-115697000D01*
X164338000Y-115697000D02*
X159258000Y-115697000D01*
D17*
X164338000Y-111760000D02*
X164338000Y-115697000D01*
X163449000Y-110871000D02*
X164338000Y-111760000D01*
X161798000Y-110871000D02*
X163449000Y-110871000D01*
X160274000Y-110871000D02*
X159258000Y-111887000D01*
X159258000Y-111887000D02*
X159258000Y-115697000D01*
X161798000Y-110871000D02*
X160274000Y-110871000D01*
D19*
X104013000Y-108712000D02*
X110998000Y-108712000D01*
X113538000Y-111252000D02*
X110998000Y-108712000D01*
D17*
X110998000Y-114427000D02*
X110998000Y-108712000D01*
X112268000Y-115697000D02*
X110998000Y-114427000D01*
D19*
X111760000Y-108331000D02*
X110998000Y-108712000D01*
X119316500Y-100484398D02*
X116005795Y-97173693D01*
X131318000Y-104140000D02*
X131318000Y-111887000D01*
X133477641Y-101980359D02*
X131318000Y-104140000D01*
X133477641Y-97046052D02*
X133477641Y-101980359D01*
D17*
%TO.N,Net-(R1-Pad2)*%
X122174000Y-88011000D02*
X121393949Y-88791051D01*
X121393949Y-88791051D02*
X121393949Y-91785539D01*
X129159000Y-88011000D02*
X122174000Y-88011000D01*
X129286000Y-88138000D02*
X129159000Y-88011000D01*
X129286000Y-88773000D02*
X129286000Y-88138000D01*
X129413000Y-88011000D02*
X129286000Y-88138000D01*
X135218897Y-88011000D02*
X129413000Y-88011000D01*
X138865795Y-91657898D02*
X135218897Y-88011000D01*
D19*
%TO.N,+3V3*%
X104031000Y-95649000D02*
X104031000Y-95649000D01*
X106662000Y-95649000D02*
X108077000Y-95649000D01*
X101201000Y-95649000D02*
X102997000Y-95649000D01*
D17*
%TO.N,Net-(D1-Pad2)*%
X166243000Y-88900000D02*
X168275000Y-88900000D01*
D19*
%TO.N,Net-(J3-Pad1)*%
X154522897Y-89535000D02*
X149479000Y-89535000D01*
X156645795Y-91657898D02*
X154522897Y-89535000D01*
%TD*%
D20*
%TO.N,+3V3*%
X110109000Y-100859300D02*
X110053490Y-100864767D01*
X109782991Y-100946821D01*
X109533698Y-101080072D01*
X109315191Y-101259396D01*
X109135867Y-101477903D01*
X109002616Y-101727196D01*
X108920562Y-101997695D01*
X108892855Y-102279003D01*
X108920562Y-102560311D01*
X109002616Y-102830810D01*
X109135867Y-103080103D01*
X109270255Y-103243855D01*
X109732641Y-103706241D01*
X109732642Y-105169779D01*
X108345422Y-106557000D01*
X102773454Y-106557000D01*
X102725256Y-106524795D01*
X102536898Y-106446774D01*
X102336939Y-106407000D01*
X102133061Y-106407000D01*
X101933102Y-106446774D01*
X101790500Y-106505842D01*
X101647898Y-106446774D01*
X101447939Y-106407000D01*
X101244061Y-106407000D01*
X101044102Y-106446774D01*
X100855744Y-106524795D01*
X100686226Y-106638063D01*
X100542063Y-106782226D01*
X100525510Y-106807000D01*
X99720000Y-106807000D01*
X99720000Y-96647000D01*
X110109000Y-96647000D01*
X110109000Y-100859300D01*
%TA.AperFunction,Conductor*%
D21*
G36*
X110109000Y-100859300D02*
G01*
X110053490Y-100864767D01*
X109782991Y-100946821D01*
X109533698Y-101080072D01*
X109315191Y-101259396D01*
X109135867Y-101477903D01*
X109002616Y-101727196D01*
X108920562Y-101997695D01*
X108892855Y-102279003D01*
X108920562Y-102560311D01*
X109002616Y-102830810D01*
X109135867Y-103080103D01*
X109270255Y-103243855D01*
X109732641Y-103706241D01*
X109732642Y-105169779D01*
X108345422Y-106557000D01*
X102773454Y-106557000D01*
X102725256Y-106524795D01*
X102536898Y-106446774D01*
X102336939Y-106407000D01*
X102133061Y-106407000D01*
X101933102Y-106446774D01*
X101790500Y-106505842D01*
X101647898Y-106446774D01*
X101447939Y-106407000D01*
X101244061Y-106407000D01*
X101044102Y-106446774D01*
X100855744Y-106524795D01*
X100686226Y-106638063D01*
X100542063Y-106782226D01*
X100525510Y-106807000D01*
X99720000Y-106807000D01*
X99720000Y-96647000D01*
X110109000Y-96647000D01*
X110109000Y-100859300D01*
G37*
%TD.AperFunction*%
%TD*%
M02*
