%TF.GenerationSoftware,KiCad,Pcbnew,5.1.9+dfsg1-1+deb11u1*%
%TF.CreationDate,2025-02-02T16:03:13-08:00*%
%TF.ProjectId,esp01Expander,65737030-3145-4787-9061-6e6465722e6b,rev?*%
%TF.SameCoordinates,Original*%
%TF.FileFunction,Legend,Top*%
%TF.FilePolarity,Positive*%
%FSLAX46Y46*%
G04 Gerber Fmt 4.6, Leading zero omitted, Abs format (unit mm)*
G04 Created by KiCad (PCBNEW 5.1.9+dfsg1-1+deb11u1) date 2025-02-02 16:03:13*
%MOMM*%
%LPD*%
G01*
G04 APERTURE LIST*
%ADD10C,0.150000*%
%ADD11C,0.120000*%
%ADD12C,0.250000*%
%ADD13C,0.100000*%
G04 APERTURE END LIST*
D10*
X105854523Y-107656380D02*
X105378333Y-107656380D01*
X105330714Y-108132571D01*
X105378333Y-108084952D01*
X105473571Y-108037333D01*
X105711666Y-108037333D01*
X105806904Y-108084952D01*
X105854523Y-108132571D01*
X105902142Y-108227809D01*
X105902142Y-108465904D01*
X105854523Y-108561142D01*
X105806904Y-108608761D01*
X105711666Y-108656380D01*
X105473571Y-108656380D01*
X105378333Y-108608761D01*
X105330714Y-108561142D01*
X106187857Y-107656380D02*
X106521190Y-108656380D01*
X106854523Y-107656380D01*
X150669761Y-88463380D02*
X150669761Y-87463380D01*
X151145952Y-88082428D02*
X151907857Y-88082428D01*
X152907857Y-88463380D02*
X152336428Y-88463380D01*
X152622142Y-88463380D02*
X152622142Y-87463380D01*
X152526904Y-87606238D01*
X152431666Y-87701476D01*
X152336428Y-87749095D01*
D11*
X148209000Y-91567000D02*
X147447000Y-92456000D01*
X149606000Y-91567000D02*
X148209000Y-91567000D01*
X150495000Y-91567000D02*
X151638000Y-90551000D01*
X149606000Y-91567000D02*
X150495000Y-91567000D01*
X149479000Y-93345000D02*
X150368000Y-94996000D01*
X149479000Y-93345000D02*
X148590000Y-94996000D01*
X149479000Y-90805000D02*
X149479000Y-93345000D01*
D10*
X181300380Y-111315380D02*
X180300380Y-111315380D01*
X181300380Y-110315380D02*
X181300380Y-110886809D01*
X181300380Y-110601095D02*
X180300380Y-110601095D01*
X180443238Y-110696333D01*
X180538476Y-110791571D01*
X180586095Y-110886809D01*
X180300380Y-109410619D02*
X180300380Y-109886809D01*
X180776571Y-109934428D01*
X180728952Y-109886809D01*
X180681333Y-109791571D01*
X180681333Y-109553476D01*
X180728952Y-109458238D01*
X180776571Y-109410619D01*
X180871809Y-109363000D01*
X181109904Y-109363000D01*
X181205142Y-109410619D01*
X181252761Y-109458238D01*
X181300380Y-109553476D01*
X181300380Y-109791571D01*
X181252761Y-109886809D01*
X181205142Y-109934428D01*
X178760380Y-111315380D02*
X177760380Y-111315380D01*
X178760380Y-110315380D02*
X178760380Y-110886809D01*
X178760380Y-110601095D02*
X177760380Y-110601095D01*
X177903238Y-110696333D01*
X177998476Y-110791571D01*
X178046095Y-110886809D01*
X178093714Y-109458238D02*
X178760380Y-109458238D01*
X177712761Y-109696333D02*
X178427047Y-109934428D01*
X178427047Y-109315380D01*
X176220380Y-111315380D02*
X175220380Y-111315380D01*
X176220380Y-110315380D02*
X176220380Y-110886809D01*
X176220380Y-110601095D02*
X175220380Y-110601095D01*
X175363238Y-110696333D01*
X175458476Y-110791571D01*
X175506095Y-110886809D01*
X175220380Y-109982047D02*
X175220380Y-109363000D01*
X175601333Y-109696333D01*
X175601333Y-109553476D01*
X175648952Y-109458238D01*
X175696571Y-109410619D01*
X175791809Y-109363000D01*
X176029904Y-109363000D01*
X176125142Y-109410619D01*
X176172761Y-109458238D01*
X176220380Y-109553476D01*
X176220380Y-109839190D01*
X176172761Y-109934428D01*
X176125142Y-109982047D01*
X173680380Y-111315380D02*
X172680380Y-111315380D01*
X173680380Y-110315380D02*
X173680380Y-110886809D01*
X173680380Y-110601095D02*
X172680380Y-110601095D01*
X172823238Y-110696333D01*
X172918476Y-110791571D01*
X172966095Y-110886809D01*
X172775619Y-109934428D02*
X172728000Y-109886809D01*
X172680380Y-109791571D01*
X172680380Y-109553476D01*
X172728000Y-109458238D01*
X172775619Y-109410619D01*
X172870857Y-109363000D01*
X172966095Y-109363000D01*
X173108952Y-109410619D01*
X173680380Y-109982047D01*
X173680380Y-109363000D01*
X171140380Y-111315380D02*
X170140380Y-111315380D01*
X171140380Y-110315380D02*
X171140380Y-110886809D01*
X171140380Y-110601095D02*
X170140380Y-110601095D01*
X170283238Y-110696333D01*
X170378476Y-110791571D01*
X170426095Y-110886809D01*
X171140380Y-109363000D02*
X171140380Y-109934428D01*
X171140380Y-109648714D02*
X170140380Y-109648714D01*
X170283238Y-109743952D01*
X170378476Y-109839190D01*
X170426095Y-109934428D01*
X168600380Y-111315380D02*
X167600380Y-111315380D01*
X168600380Y-110315380D02*
X168600380Y-110886809D01*
X168600380Y-110601095D02*
X167600380Y-110601095D01*
X167743238Y-110696333D01*
X167838476Y-110791571D01*
X167886095Y-110886809D01*
X167600380Y-109696333D02*
X167600380Y-109601095D01*
X167648000Y-109505857D01*
X167695619Y-109458238D01*
X167790857Y-109410619D01*
X167981333Y-109363000D01*
X168219428Y-109363000D01*
X168409904Y-109410619D01*
X168505142Y-109458238D01*
X168552761Y-109505857D01*
X168600380Y-109601095D01*
X168600380Y-109696333D01*
X168552761Y-109791571D01*
X168505142Y-109839190D01*
X168409904Y-109886809D01*
X168219428Y-109934428D01*
X167981333Y-109934428D01*
X167790857Y-109886809D01*
X167695619Y-109839190D01*
X167648000Y-109791571D01*
X167600380Y-109696333D01*
X166060380Y-111347190D02*
X165060380Y-111347190D01*
X166060380Y-110823380D02*
X166060380Y-110632904D01*
X166012761Y-110537666D01*
X165965142Y-110490047D01*
X165822285Y-110394809D01*
X165631809Y-110347190D01*
X165250857Y-110347190D01*
X165155619Y-110394809D01*
X165108000Y-110442428D01*
X165060380Y-110537666D01*
X165060380Y-110728142D01*
X165108000Y-110823380D01*
X165155619Y-110871000D01*
X165250857Y-110918619D01*
X165488952Y-110918619D01*
X165584190Y-110871000D01*
X165631809Y-110823380D01*
X165679428Y-110728142D01*
X165679428Y-110537666D01*
X165631809Y-110442428D01*
X165584190Y-110394809D01*
X165488952Y-110347190D01*
X163520380Y-111347190D02*
X162520380Y-111347190D01*
X162948952Y-110728142D02*
X162901333Y-110823380D01*
X162853714Y-110871000D01*
X162758476Y-110918619D01*
X162710857Y-110918619D01*
X162615619Y-110871000D01*
X162568000Y-110823380D01*
X162520380Y-110728142D01*
X162520380Y-110537666D01*
X162568000Y-110442428D01*
X162615619Y-110394809D01*
X162710857Y-110347190D01*
X162758476Y-110347190D01*
X162853714Y-110394809D01*
X162901333Y-110442428D01*
X162948952Y-110537666D01*
X162948952Y-110728142D01*
X162996571Y-110823380D01*
X163044190Y-110871000D01*
X163139428Y-110918619D01*
X163329904Y-110918619D01*
X163425142Y-110871000D01*
X163472761Y-110823380D01*
X163520380Y-110728142D01*
X163520380Y-110537666D01*
X163472761Y-110442428D01*
X163425142Y-110394809D01*
X163329904Y-110347190D01*
X163139428Y-110347190D01*
X163044190Y-110394809D01*
X162996571Y-110442428D01*
X162948952Y-110537666D01*
X161107380Y-111347190D02*
X160107380Y-111347190D01*
X160107380Y-110966238D02*
X160107380Y-110299571D01*
X161107380Y-110728142D01*
X158440380Y-111347190D02*
X157440380Y-111347190D01*
X157440380Y-110442428D02*
X157440380Y-110632904D01*
X157488000Y-110728142D01*
X157535619Y-110775761D01*
X157678476Y-110871000D01*
X157868952Y-110918619D01*
X158249904Y-110918619D01*
X158345142Y-110871000D01*
X158392761Y-110823380D01*
X158440380Y-110728142D01*
X158440380Y-110537666D01*
X158392761Y-110442428D01*
X158345142Y-110394809D01*
X158249904Y-110347190D01*
X158011809Y-110347190D01*
X157916571Y-110394809D01*
X157868952Y-110442428D01*
X157821333Y-110537666D01*
X157821333Y-110728142D01*
X157868952Y-110823380D01*
X157916571Y-110871000D01*
X158011809Y-110918619D01*
X155900380Y-111347190D02*
X154900380Y-111347190D01*
X154900380Y-110394809D02*
X154900380Y-110871000D01*
X155376571Y-110918619D01*
X155328952Y-110871000D01*
X155281333Y-110775761D01*
X155281333Y-110537666D01*
X155328952Y-110442428D01*
X155376571Y-110394809D01*
X155471809Y-110347190D01*
X155709904Y-110347190D01*
X155805142Y-110394809D01*
X155852761Y-110442428D01*
X155900380Y-110537666D01*
X155900380Y-110775761D01*
X155852761Y-110871000D01*
X155805142Y-110918619D01*
X153360380Y-111347190D02*
X152360380Y-111347190D01*
X152693714Y-110442428D02*
X153360380Y-110442428D01*
X152312761Y-110680523D02*
X153027047Y-110918619D01*
X153027047Y-110299571D01*
X150820380Y-111347190D02*
X149820380Y-111347190D01*
X149820380Y-110966238D02*
X149820380Y-110347190D01*
X150201333Y-110680523D01*
X150201333Y-110537666D01*
X150248952Y-110442428D01*
X150296571Y-110394809D01*
X150391809Y-110347190D01*
X150629904Y-110347190D01*
X150725142Y-110394809D01*
X150772761Y-110442428D01*
X150820380Y-110537666D01*
X150820380Y-110823380D01*
X150772761Y-110918619D01*
X150725142Y-110966238D01*
X148280380Y-111347190D02*
X147280380Y-111347190D01*
X147375619Y-110918619D02*
X147328000Y-110871000D01*
X147280380Y-110775761D01*
X147280380Y-110537666D01*
X147328000Y-110442428D01*
X147375619Y-110394809D01*
X147470857Y-110347190D01*
X147566095Y-110347190D01*
X147708952Y-110394809D01*
X148280380Y-110966238D01*
X148280380Y-110347190D01*
X145740380Y-111347190D02*
X144740380Y-111347190D01*
X145740380Y-110347190D02*
X145740380Y-110918619D01*
X145740380Y-110632904D02*
X144740380Y-110632904D01*
X144883238Y-110728142D01*
X144978476Y-110823380D01*
X145026095Y-110918619D01*
X143200380Y-111347190D02*
X142200380Y-111347190D01*
X142200380Y-110680523D02*
X142200380Y-110585285D01*
X142248000Y-110490047D01*
X142295619Y-110442428D01*
X142390857Y-110394809D01*
X142581333Y-110347190D01*
X142819428Y-110347190D01*
X143009904Y-110394809D01*
X143105142Y-110442428D01*
X143152761Y-110490047D01*
X143200380Y-110585285D01*
X143200380Y-110680523D01*
X143152761Y-110775761D01*
X143105142Y-110823380D01*
X143009904Y-110871000D01*
X142819428Y-110918619D01*
X142581333Y-110918619D01*
X142390857Y-110871000D01*
X142295619Y-110823380D01*
X142248000Y-110775761D01*
X142200380Y-110680523D01*
X120562619Y-110839238D02*
X120515000Y-110934476D01*
X120419761Y-111029714D01*
X120276904Y-111172571D01*
X120229285Y-111267809D01*
X120229285Y-111363047D01*
X120467380Y-111315428D02*
X120419761Y-111410666D01*
X120324523Y-111505904D01*
X120134047Y-111553523D01*
X119800714Y-111553523D01*
X119610238Y-111505904D01*
X119515000Y-111410666D01*
X119467380Y-111315428D01*
X119467380Y-111124952D01*
X119515000Y-111029714D01*
X119610238Y-110934476D01*
X119800714Y-110886857D01*
X120134047Y-110886857D01*
X120324523Y-110934476D01*
X120419761Y-111029714D01*
X120467380Y-111124952D01*
X120467380Y-111315428D01*
X119467380Y-110553523D02*
X119467380Y-109886857D01*
X120467380Y-110315428D01*
X117895619Y-110839238D02*
X117848000Y-110934476D01*
X117752761Y-111029714D01*
X117609904Y-111172571D01*
X117562285Y-111267809D01*
X117562285Y-111363047D01*
X117800380Y-111315428D02*
X117752761Y-111410666D01*
X117657523Y-111505904D01*
X117467047Y-111553523D01*
X117133714Y-111553523D01*
X116943238Y-111505904D01*
X116848000Y-111410666D01*
X116800380Y-111315428D01*
X116800380Y-111124952D01*
X116848000Y-111029714D01*
X116943238Y-110934476D01*
X117133714Y-110886857D01*
X117467047Y-110886857D01*
X117657523Y-110934476D01*
X117752761Y-111029714D01*
X117800380Y-111124952D01*
X117800380Y-111315428D01*
X116800380Y-110029714D02*
X116800380Y-110220190D01*
X116848000Y-110315428D01*
X116895619Y-110363047D01*
X117038476Y-110458285D01*
X117228952Y-110505904D01*
X117609904Y-110505904D01*
X117705142Y-110458285D01*
X117752761Y-110410666D01*
X117800380Y-110315428D01*
X117800380Y-110124952D01*
X117752761Y-110029714D01*
X117705142Y-109982095D01*
X117609904Y-109934476D01*
X117371809Y-109934476D01*
X117276571Y-109982095D01*
X117228952Y-110029714D01*
X117181333Y-110124952D01*
X117181333Y-110315428D01*
X117228952Y-110410666D01*
X117276571Y-110458285D01*
X117371809Y-110505904D01*
X115355619Y-110839238D02*
X115308000Y-110934476D01*
X115212761Y-111029714D01*
X115069904Y-111172571D01*
X115022285Y-111267809D01*
X115022285Y-111363047D01*
X115260380Y-111315428D02*
X115212761Y-111410666D01*
X115117523Y-111505904D01*
X114927047Y-111553523D01*
X114593714Y-111553523D01*
X114403238Y-111505904D01*
X114308000Y-111410666D01*
X114260380Y-111315428D01*
X114260380Y-111124952D01*
X114308000Y-111029714D01*
X114403238Y-110934476D01*
X114593714Y-110886857D01*
X114927047Y-110886857D01*
X115117523Y-110934476D01*
X115212761Y-111029714D01*
X115260380Y-111124952D01*
X115260380Y-111315428D01*
X114260380Y-109982095D02*
X114260380Y-110458285D01*
X114736571Y-110505904D01*
X114688952Y-110458285D01*
X114641333Y-110363047D01*
X114641333Y-110124952D01*
X114688952Y-110029714D01*
X114736571Y-109982095D01*
X114831809Y-109934476D01*
X115069904Y-109934476D01*
X115165142Y-109982095D01*
X115212761Y-110029714D01*
X115260380Y-110124952D01*
X115260380Y-110363047D01*
X115212761Y-110458285D01*
X115165142Y-110505904D01*
X112815619Y-110839238D02*
X112768000Y-110934476D01*
X112672761Y-111029714D01*
X112529904Y-111172571D01*
X112482285Y-111267809D01*
X112482285Y-111363047D01*
X112720380Y-111315428D02*
X112672761Y-111410666D01*
X112577523Y-111505904D01*
X112387047Y-111553523D01*
X112053714Y-111553523D01*
X111863238Y-111505904D01*
X111768000Y-111410666D01*
X111720380Y-111315428D01*
X111720380Y-111124952D01*
X111768000Y-111029714D01*
X111863238Y-110934476D01*
X112053714Y-110886857D01*
X112387047Y-110886857D01*
X112577523Y-110934476D01*
X112672761Y-111029714D01*
X112720380Y-111124952D01*
X112720380Y-111315428D01*
X112053714Y-110029714D02*
X112720380Y-110029714D01*
X111672761Y-110267809D02*
X112387047Y-110505904D01*
X112387047Y-109886857D01*
X110275619Y-110331238D02*
X110228000Y-110426476D01*
X110132761Y-110521714D01*
X109989904Y-110664571D01*
X109942285Y-110759809D01*
X109942285Y-110855047D01*
X110180380Y-110807428D02*
X110132761Y-110902666D01*
X110037523Y-110997904D01*
X109847047Y-111045523D01*
X109513714Y-111045523D01*
X109323238Y-110997904D01*
X109228000Y-110902666D01*
X109180380Y-110807428D01*
X109180380Y-110616952D01*
X109228000Y-110521714D01*
X109323238Y-110426476D01*
X109513714Y-110378857D01*
X109847047Y-110378857D01*
X110037523Y-110426476D01*
X110132761Y-110521714D01*
X110180380Y-110616952D01*
X110180380Y-110807428D01*
X109180380Y-110045523D02*
X109180380Y-109426476D01*
X109561333Y-109759809D01*
X109561333Y-109616952D01*
X109608952Y-109521714D01*
X109656571Y-109474095D01*
X109751809Y-109426476D01*
X109989904Y-109426476D01*
X110085142Y-109474095D01*
X110132761Y-109521714D01*
X110180380Y-109616952D01*
X110180380Y-109902666D01*
X110132761Y-109997904D01*
X110085142Y-110045523D01*
X107735619Y-110331238D02*
X107688000Y-110426476D01*
X107592761Y-110521714D01*
X107449904Y-110664571D01*
X107402285Y-110759809D01*
X107402285Y-110855047D01*
X107640380Y-110807428D02*
X107592761Y-110902666D01*
X107497523Y-110997904D01*
X107307047Y-111045523D01*
X106973714Y-111045523D01*
X106783238Y-110997904D01*
X106688000Y-110902666D01*
X106640380Y-110807428D01*
X106640380Y-110616952D01*
X106688000Y-110521714D01*
X106783238Y-110426476D01*
X106973714Y-110378857D01*
X107307047Y-110378857D01*
X107497523Y-110426476D01*
X107592761Y-110521714D01*
X107640380Y-110616952D01*
X107640380Y-110807428D01*
X106735619Y-109997904D02*
X106688000Y-109950285D01*
X106640380Y-109855047D01*
X106640380Y-109616952D01*
X106688000Y-109521714D01*
X106735619Y-109474095D01*
X106830857Y-109426476D01*
X106926095Y-109426476D01*
X107068952Y-109474095D01*
X107640380Y-110045523D01*
X107640380Y-109426476D01*
X105195619Y-110331238D02*
X105148000Y-110426476D01*
X105052761Y-110521714D01*
X104909904Y-110664571D01*
X104862285Y-110759809D01*
X104862285Y-110855047D01*
X105100380Y-110807428D02*
X105052761Y-110902666D01*
X104957523Y-110997904D01*
X104767047Y-111045523D01*
X104433714Y-111045523D01*
X104243238Y-110997904D01*
X104148000Y-110902666D01*
X104100380Y-110807428D01*
X104100380Y-110616952D01*
X104148000Y-110521714D01*
X104243238Y-110426476D01*
X104433714Y-110378857D01*
X104767047Y-110378857D01*
X104957523Y-110426476D01*
X105052761Y-110521714D01*
X105100380Y-110616952D01*
X105100380Y-110807428D01*
X105100380Y-109426476D02*
X105100380Y-109997904D01*
X105100380Y-109712190D02*
X104100380Y-109712190D01*
X104243238Y-109807428D01*
X104338476Y-109902666D01*
X104386095Y-109997904D01*
X102655619Y-110331238D02*
X102608000Y-110426476D01*
X102512761Y-110521714D01*
X102369904Y-110664571D01*
X102322285Y-110759809D01*
X102322285Y-110855047D01*
X102560380Y-110807428D02*
X102512761Y-110902666D01*
X102417523Y-110997904D01*
X102227047Y-111045523D01*
X101893714Y-111045523D01*
X101703238Y-110997904D01*
X101608000Y-110902666D01*
X101560380Y-110807428D01*
X101560380Y-110616952D01*
X101608000Y-110521714D01*
X101703238Y-110426476D01*
X101893714Y-110378857D01*
X102227047Y-110378857D01*
X102417523Y-110426476D01*
X102512761Y-110521714D01*
X102560380Y-110616952D01*
X102560380Y-110807428D01*
X101560380Y-109759809D02*
X101560380Y-109664571D01*
X101608000Y-109569333D01*
X101655619Y-109521714D01*
X101750857Y-109474095D01*
X101941333Y-109426476D01*
X102179428Y-109426476D01*
X102369904Y-109474095D01*
X102465142Y-109521714D01*
X102512761Y-109569333D01*
X102560380Y-109664571D01*
X102560380Y-109759809D01*
X102512761Y-109855047D01*
X102465142Y-109902666D01*
X102369904Y-109950285D01*
X102179428Y-109997904D01*
X101941333Y-109997904D01*
X101750857Y-109950285D01*
X101655619Y-109902666D01*
X101608000Y-109855047D01*
X101560380Y-109759809D01*
X140755619Y-110807428D02*
X140708000Y-110902666D01*
X140612761Y-110997904D01*
X140469904Y-111140761D01*
X140422285Y-111236000D01*
X140422285Y-111331238D01*
X140660380Y-111283619D02*
X140612761Y-111378857D01*
X140517523Y-111474095D01*
X140327047Y-111521714D01*
X139993714Y-111521714D01*
X139803238Y-111474095D01*
X139708000Y-111378857D01*
X139660380Y-111283619D01*
X139660380Y-111093142D01*
X139708000Y-110997904D01*
X139803238Y-110902666D01*
X139993714Y-110855047D01*
X140327047Y-110855047D01*
X140517523Y-110902666D01*
X140612761Y-110997904D01*
X140660380Y-111093142D01*
X140660380Y-111283619D01*
X140660380Y-109902666D02*
X140660380Y-110474095D01*
X140660380Y-110188380D02*
X139660380Y-110188380D01*
X139803238Y-110283619D01*
X139898476Y-110378857D01*
X139946095Y-110474095D01*
X139660380Y-108997904D02*
X139660380Y-109474095D01*
X140136571Y-109521714D01*
X140088952Y-109474095D01*
X140041333Y-109378857D01*
X140041333Y-109140761D01*
X140088952Y-109045523D01*
X140136571Y-108997904D01*
X140231809Y-108950285D01*
X140469904Y-108950285D01*
X140565142Y-108997904D01*
X140612761Y-109045523D01*
X140660380Y-109140761D01*
X140660380Y-109378857D01*
X140612761Y-109474095D01*
X140565142Y-109521714D01*
X138342619Y-110807428D02*
X138295000Y-110902666D01*
X138199761Y-110997904D01*
X138056904Y-111140761D01*
X138009285Y-111236000D01*
X138009285Y-111331238D01*
X138247380Y-111283619D02*
X138199761Y-111378857D01*
X138104523Y-111474095D01*
X137914047Y-111521714D01*
X137580714Y-111521714D01*
X137390238Y-111474095D01*
X137295000Y-111378857D01*
X137247380Y-111283619D01*
X137247380Y-111093142D01*
X137295000Y-110997904D01*
X137390238Y-110902666D01*
X137580714Y-110855047D01*
X137914047Y-110855047D01*
X138104523Y-110902666D01*
X138199761Y-110997904D01*
X138247380Y-111093142D01*
X138247380Y-111283619D01*
X138247380Y-109902666D02*
X138247380Y-110474095D01*
X138247380Y-110188380D02*
X137247380Y-110188380D01*
X137390238Y-110283619D01*
X137485476Y-110378857D01*
X137533095Y-110474095D01*
X137580714Y-109045523D02*
X138247380Y-109045523D01*
X137199761Y-109283619D02*
X137914047Y-109521714D01*
X137914047Y-108902666D01*
X135802619Y-110807428D02*
X135755000Y-110902666D01*
X135659761Y-110997904D01*
X135516904Y-111140761D01*
X135469285Y-111236000D01*
X135469285Y-111331238D01*
X135707380Y-111283619D02*
X135659761Y-111378857D01*
X135564523Y-111474095D01*
X135374047Y-111521714D01*
X135040714Y-111521714D01*
X134850238Y-111474095D01*
X134755000Y-111378857D01*
X134707380Y-111283619D01*
X134707380Y-111093142D01*
X134755000Y-110997904D01*
X134850238Y-110902666D01*
X135040714Y-110855047D01*
X135374047Y-110855047D01*
X135564523Y-110902666D01*
X135659761Y-110997904D01*
X135707380Y-111093142D01*
X135707380Y-111283619D01*
X135707380Y-109902666D02*
X135707380Y-110474095D01*
X135707380Y-110188380D02*
X134707380Y-110188380D01*
X134850238Y-110283619D01*
X134945476Y-110378857D01*
X134993095Y-110474095D01*
X134707380Y-109569333D02*
X134707380Y-108950285D01*
X135088333Y-109283619D01*
X135088333Y-109140761D01*
X135135952Y-109045523D01*
X135183571Y-108997904D01*
X135278809Y-108950285D01*
X135516904Y-108950285D01*
X135612142Y-108997904D01*
X135659761Y-109045523D01*
X135707380Y-109140761D01*
X135707380Y-109426476D01*
X135659761Y-109521714D01*
X135612142Y-109569333D01*
X133135619Y-110807428D02*
X133088000Y-110902666D01*
X132992761Y-110997904D01*
X132849904Y-111140761D01*
X132802285Y-111236000D01*
X132802285Y-111331238D01*
X133040380Y-111283619D02*
X132992761Y-111378857D01*
X132897523Y-111474095D01*
X132707047Y-111521714D01*
X132373714Y-111521714D01*
X132183238Y-111474095D01*
X132088000Y-111378857D01*
X132040380Y-111283619D01*
X132040380Y-111093142D01*
X132088000Y-110997904D01*
X132183238Y-110902666D01*
X132373714Y-110855047D01*
X132707047Y-110855047D01*
X132897523Y-110902666D01*
X132992761Y-110997904D01*
X133040380Y-111093142D01*
X133040380Y-111283619D01*
X133040380Y-109902666D02*
X133040380Y-110474095D01*
X133040380Y-110188380D02*
X132040380Y-110188380D01*
X132183238Y-110283619D01*
X132278476Y-110378857D01*
X132326095Y-110474095D01*
X132135619Y-109521714D02*
X132088000Y-109474095D01*
X132040380Y-109378857D01*
X132040380Y-109140761D01*
X132088000Y-109045523D01*
X132135619Y-108997904D01*
X132230857Y-108950285D01*
X132326095Y-108950285D01*
X132468952Y-108997904D01*
X133040380Y-109569333D01*
X133040380Y-108950285D01*
X130722619Y-110807428D02*
X130675000Y-110902666D01*
X130579761Y-110997904D01*
X130436904Y-111140761D01*
X130389285Y-111236000D01*
X130389285Y-111331238D01*
X130627380Y-111283619D02*
X130579761Y-111378857D01*
X130484523Y-111474095D01*
X130294047Y-111521714D01*
X129960714Y-111521714D01*
X129770238Y-111474095D01*
X129675000Y-111378857D01*
X129627380Y-111283619D01*
X129627380Y-111093142D01*
X129675000Y-110997904D01*
X129770238Y-110902666D01*
X129960714Y-110855047D01*
X130294047Y-110855047D01*
X130484523Y-110902666D01*
X130579761Y-110997904D01*
X130627380Y-111093142D01*
X130627380Y-111283619D01*
X130627380Y-109902666D02*
X130627380Y-110474095D01*
X130627380Y-110188380D02*
X129627380Y-110188380D01*
X129770238Y-110283619D01*
X129865476Y-110378857D01*
X129913095Y-110474095D01*
X130627380Y-108950285D02*
X130627380Y-109521714D01*
X130627380Y-109236000D02*
X129627380Y-109236000D01*
X129770238Y-109331238D01*
X129865476Y-109426476D01*
X129913095Y-109521714D01*
X128055619Y-110807428D02*
X128008000Y-110902666D01*
X127912761Y-110997904D01*
X127769904Y-111140761D01*
X127722285Y-111236000D01*
X127722285Y-111331238D01*
X127960380Y-111283619D02*
X127912761Y-111378857D01*
X127817523Y-111474095D01*
X127627047Y-111521714D01*
X127293714Y-111521714D01*
X127103238Y-111474095D01*
X127008000Y-111378857D01*
X126960380Y-111283619D01*
X126960380Y-111093142D01*
X127008000Y-110997904D01*
X127103238Y-110902666D01*
X127293714Y-110855047D01*
X127627047Y-110855047D01*
X127817523Y-110902666D01*
X127912761Y-110997904D01*
X127960380Y-111093142D01*
X127960380Y-111283619D01*
X127960380Y-109902666D02*
X127960380Y-110474095D01*
X127960380Y-110188380D02*
X126960380Y-110188380D01*
X127103238Y-110283619D01*
X127198476Y-110378857D01*
X127246095Y-110474095D01*
X126960380Y-109283619D02*
X126960380Y-109188380D01*
X127008000Y-109093142D01*
X127055619Y-109045523D01*
X127150857Y-108997904D01*
X127341333Y-108950285D01*
X127579428Y-108950285D01*
X127769904Y-108997904D01*
X127865142Y-109045523D01*
X127912761Y-109093142D01*
X127960380Y-109188380D01*
X127960380Y-109283619D01*
X127912761Y-109378857D01*
X127865142Y-109426476D01*
X127769904Y-109474095D01*
X127579428Y-109521714D01*
X127341333Y-109521714D01*
X127150857Y-109474095D01*
X127055619Y-109426476D01*
X127008000Y-109378857D01*
X126960380Y-109283619D01*
X125515619Y-110712238D02*
X125468000Y-110807476D01*
X125372761Y-110902714D01*
X125229904Y-111045571D01*
X125182285Y-111140809D01*
X125182285Y-111236047D01*
X125420380Y-111188428D02*
X125372761Y-111283666D01*
X125277523Y-111378904D01*
X125087047Y-111426523D01*
X124753714Y-111426523D01*
X124563238Y-111378904D01*
X124468000Y-111283666D01*
X124420380Y-111188428D01*
X124420380Y-110997952D01*
X124468000Y-110902714D01*
X124563238Y-110807476D01*
X124753714Y-110759857D01*
X125087047Y-110759857D01*
X125277523Y-110807476D01*
X125372761Y-110902714D01*
X125420380Y-110997952D01*
X125420380Y-111188428D01*
X125420380Y-110283666D02*
X125420380Y-110093190D01*
X125372761Y-109997952D01*
X125325142Y-109950333D01*
X125182285Y-109855095D01*
X124991809Y-109807476D01*
X124610857Y-109807476D01*
X124515619Y-109855095D01*
X124468000Y-109902714D01*
X124420380Y-109997952D01*
X124420380Y-110188428D01*
X124468000Y-110283666D01*
X124515619Y-110331285D01*
X124610857Y-110378904D01*
X124848952Y-110378904D01*
X124944190Y-110331285D01*
X124991809Y-110283666D01*
X125039428Y-110188428D01*
X125039428Y-109997952D01*
X124991809Y-109902714D01*
X124944190Y-109855095D01*
X124848952Y-109807476D01*
X122975619Y-110839238D02*
X122928000Y-110934476D01*
X122832761Y-111029714D01*
X122689904Y-111172571D01*
X122642285Y-111267809D01*
X122642285Y-111363047D01*
X122880380Y-111315428D02*
X122832761Y-111410666D01*
X122737523Y-111505904D01*
X122547047Y-111553523D01*
X122213714Y-111553523D01*
X122023238Y-111505904D01*
X121928000Y-111410666D01*
X121880380Y-111315428D01*
X121880380Y-111124952D01*
X121928000Y-111029714D01*
X122023238Y-110934476D01*
X122213714Y-110886857D01*
X122547047Y-110886857D01*
X122737523Y-110934476D01*
X122832761Y-111029714D01*
X122880380Y-111124952D01*
X122880380Y-111315428D01*
X122308952Y-110315428D02*
X122261333Y-110410666D01*
X122213714Y-110458285D01*
X122118476Y-110505904D01*
X122070857Y-110505904D01*
X121975619Y-110458285D01*
X121928000Y-110410666D01*
X121880380Y-110315428D01*
X121880380Y-110124952D01*
X121928000Y-110029714D01*
X121975619Y-109982095D01*
X122070857Y-109934476D01*
X122118476Y-109934476D01*
X122213714Y-109982095D01*
X122261333Y-110029714D01*
X122308952Y-110124952D01*
X122308952Y-110315428D01*
X122356571Y-110410666D01*
X122404190Y-110458285D01*
X122499428Y-110505904D01*
X122689904Y-110505904D01*
X122785142Y-110458285D01*
X122832761Y-110410666D01*
X122880380Y-110315428D01*
X122880380Y-110124952D01*
X122832761Y-110029714D01*
X122785142Y-109982095D01*
X122689904Y-109934476D01*
X122499428Y-109934476D01*
X122404190Y-109982095D01*
X122356571Y-110029714D01*
X122308952Y-110124952D01*
D12*
X101473000Y-111379000D02*
X110363000Y-111379000D01*
D13*
X104352285Y-94553428D02*
X104352285Y-94982000D01*
X104352285Y-94767714D02*
X103602285Y-94767714D01*
X103709428Y-94839142D01*
X103780857Y-94910571D01*
X103816571Y-94982000D01*
X103602285Y-94089142D02*
X103602285Y-94017714D01*
X103638000Y-93946285D01*
X103673714Y-93910571D01*
X103745142Y-93874857D01*
X103888000Y-93839142D01*
X104066571Y-93839142D01*
X104209428Y-93874857D01*
X104280857Y-93910571D01*
X104316571Y-93946285D01*
X104352285Y-94017714D01*
X104352285Y-94089142D01*
X104316571Y-94160571D01*
X104280857Y-94196285D01*
X104209428Y-94232000D01*
X104066571Y-94267714D01*
X103888000Y-94267714D01*
X103745142Y-94232000D01*
X103673714Y-94196285D01*
X103638000Y-94160571D01*
X103602285Y-94089142D01*
X104352285Y-93517714D02*
X103602285Y-93517714D01*
X104066571Y-93446285D02*
X104352285Y-93232000D01*
X103852285Y-93232000D02*
X104138000Y-93517714D01*
X101685285Y-94553428D02*
X101685285Y-94982000D01*
X101685285Y-94767714D02*
X100935285Y-94767714D01*
X101042428Y-94839142D01*
X101113857Y-94910571D01*
X101149571Y-94982000D01*
X100935285Y-94089142D02*
X100935285Y-94017714D01*
X100971000Y-93946285D01*
X101006714Y-93910571D01*
X101078142Y-93874857D01*
X101221000Y-93839142D01*
X101399571Y-93839142D01*
X101542428Y-93874857D01*
X101613857Y-93910571D01*
X101649571Y-93946285D01*
X101685285Y-94017714D01*
X101685285Y-94089142D01*
X101649571Y-94160571D01*
X101613857Y-94196285D01*
X101542428Y-94232000D01*
X101399571Y-94267714D01*
X101221000Y-94267714D01*
X101078142Y-94232000D01*
X101006714Y-94196285D01*
X100971000Y-94160571D01*
X100935285Y-94089142D01*
X101685285Y-93517714D02*
X100935285Y-93517714D01*
X101399571Y-93446285D02*
X101685285Y-93232000D01*
X101185285Y-93232000D02*
X101471000Y-93517714D01*
D10*
X107838904Y-94337238D02*
X107934142Y-94289619D01*
X108124619Y-94289619D01*
X108219857Y-94337238D01*
X108267476Y-94384857D01*
X108315095Y-94480095D01*
X108315095Y-94765809D01*
X108267476Y-94861047D01*
X108219857Y-94908666D01*
X108124619Y-94956285D01*
X107934142Y-94956285D01*
X107838904Y-94908666D01*
X166854476Y-90606571D02*
X166997333Y-90654190D01*
X167044952Y-90701809D01*
X167092571Y-90797047D01*
X167092571Y-90939904D01*
X167044952Y-91035142D01*
X166997333Y-91082761D01*
X166902095Y-91130380D01*
X166521142Y-91130380D01*
X166521142Y-90130380D01*
X166854476Y-90130380D01*
X166949714Y-90178000D01*
X166997333Y-90225619D01*
X167044952Y-90320857D01*
X167044952Y-90416095D01*
X166997333Y-90511333D01*
X166949714Y-90558952D01*
X166854476Y-90606571D01*
X166521142Y-90606571D01*
X167425904Y-90130380D02*
X168092571Y-90130380D01*
X167425904Y-91130380D01*
X168092571Y-91130380D01*
X168378285Y-90130380D02*
X169044952Y-90130380D01*
X168378285Y-91130380D01*
X169044952Y-91130380D01*
X169330666Y-90130380D02*
X169997333Y-90130380D01*
X169330666Y-91130380D01*
X169997333Y-91130380D01*
X170283047Y-90130380D02*
X170949714Y-90130380D01*
X170283047Y-91130380D01*
X170949714Y-91130380D01*
X171235428Y-90130380D02*
X171902095Y-90130380D01*
X171235428Y-91130380D01*
X171902095Y-91130380D01*
X112324355Y-90139629D02*
X112459042Y-90072286D01*
X112526385Y-90072286D01*
X112627400Y-90105957D01*
X112728416Y-90206973D01*
X112762087Y-90307988D01*
X112762087Y-90375331D01*
X112728416Y-90476347D01*
X112459042Y-90745721D01*
X111751935Y-90038614D01*
X111987637Y-89802912D01*
X112088652Y-89769240D01*
X112155996Y-89769240D01*
X112257011Y-89802912D01*
X112324355Y-89870255D01*
X112358026Y-89971270D01*
X112358026Y-90038614D01*
X112324355Y-90139629D01*
X112088652Y-90375331D01*
X113267164Y-89937599D02*
X113166148Y-89971270D01*
X113098805Y-89971270D01*
X112997790Y-89937599D01*
X112795759Y-89735568D01*
X112762087Y-89634553D01*
X112762087Y-89567209D01*
X112795759Y-89466194D01*
X112896774Y-89365179D01*
X112997790Y-89331507D01*
X113065133Y-89331507D01*
X113166148Y-89365179D01*
X113368179Y-89567209D01*
X113401851Y-89668225D01*
X113401851Y-89735568D01*
X113368179Y-89836583D01*
X113267164Y-89937599D01*
X113906927Y-89297835D02*
X113805912Y-89331507D01*
X113738568Y-89331507D01*
X113637553Y-89297835D01*
X113435522Y-89095805D01*
X113401851Y-88994790D01*
X113401851Y-88927446D01*
X113435522Y-88826431D01*
X113536538Y-88725416D01*
X113637553Y-88691744D01*
X113704896Y-88691744D01*
X113805912Y-88725416D01*
X114007942Y-88927446D01*
X114041614Y-89028461D01*
X114041614Y-89095805D01*
X114007942Y-89196820D01*
X113906927Y-89297835D01*
X113974270Y-88287683D02*
X114681377Y-88994790D01*
X114007942Y-88321355D02*
X114041614Y-88220339D01*
X114176301Y-88085652D01*
X114277316Y-88051981D01*
X114344660Y-88051981D01*
X114445675Y-88085652D01*
X114647705Y-88287683D01*
X114681377Y-88388698D01*
X114681377Y-88456042D01*
X114647705Y-88557057D01*
X114513018Y-88691744D01*
X114412003Y-88725416D01*
X130032380Y-87591380D02*
X130270476Y-88591380D01*
X130460952Y-87877095D01*
X130651428Y-88591380D01*
X130889523Y-87591380D01*
X131270476Y-88591380D02*
X131270476Y-87591380D01*
X131699047Y-88591380D02*
X131699047Y-88067571D01*
X131651428Y-87972333D01*
X131556190Y-87924714D01*
X131413333Y-87924714D01*
X131318095Y-87972333D01*
X131270476Y-88019952D01*
X132556190Y-88543761D02*
X132460952Y-88591380D01*
X132270476Y-88591380D01*
X132175238Y-88543761D01*
X132127619Y-88448523D01*
X132127619Y-88067571D01*
X132175238Y-87972333D01*
X132270476Y-87924714D01*
X132460952Y-87924714D01*
X132556190Y-87972333D01*
X132603809Y-88067571D01*
X132603809Y-88162809D01*
X132127619Y-88258047D01*
X133032380Y-88591380D02*
X133032380Y-87924714D01*
X133032380Y-88115190D02*
X133080000Y-88019952D01*
X133127619Y-87972333D01*
X133222857Y-87924714D01*
X133318095Y-87924714D01*
X134032380Y-88543761D02*
X133937142Y-88591380D01*
X133746666Y-88591380D01*
X133651428Y-88543761D01*
X133603809Y-88448523D01*
X133603809Y-88067571D01*
X133651428Y-87972333D01*
X133746666Y-87924714D01*
X133937142Y-87924714D01*
X134032380Y-87972333D01*
X134080000Y-88067571D01*
X134080000Y-88162809D01*
X133603809Y-88258047D01*
X127270476Y-90241380D02*
X127270476Y-89241380D01*
X127270476Y-90193761D02*
X127175238Y-90241380D01*
X126984761Y-90241380D01*
X126889523Y-90193761D01*
X126841904Y-90146142D01*
X126794285Y-90050904D01*
X126794285Y-89765190D01*
X126841904Y-89669952D01*
X126889523Y-89622333D01*
X126984761Y-89574714D01*
X127175238Y-89574714D01*
X127270476Y-89622333D01*
X127746666Y-90241380D02*
X127746666Y-89574714D01*
X127746666Y-89241380D02*
X127699047Y-89289000D01*
X127746666Y-89336619D01*
X127794285Y-89289000D01*
X127746666Y-89241380D01*
X127746666Y-89336619D01*
X128175238Y-90193761D02*
X128270476Y-90241380D01*
X128460952Y-90241380D01*
X128556190Y-90193761D01*
X128603809Y-90098523D01*
X128603809Y-90050904D01*
X128556190Y-89955666D01*
X128460952Y-89908047D01*
X128318095Y-89908047D01*
X128222857Y-89860428D01*
X128175238Y-89765190D01*
X128175238Y-89717571D01*
X128222857Y-89622333D01*
X128318095Y-89574714D01*
X128460952Y-89574714D01*
X128556190Y-89622333D01*
X129460952Y-90193761D02*
X129365714Y-90241380D01*
X129175238Y-90241380D01*
X129080000Y-90193761D01*
X129032380Y-90146142D01*
X128984761Y-90050904D01*
X128984761Y-89765190D01*
X129032380Y-89669952D01*
X129080000Y-89622333D01*
X129175238Y-89574714D01*
X129365714Y-89574714D01*
X129460952Y-89622333D01*
X129889523Y-90241380D02*
X129889523Y-89574714D01*
X129889523Y-89765190D02*
X129937142Y-89669952D01*
X129984761Y-89622333D01*
X130080000Y-89574714D01*
X130175238Y-89574714D01*
X130889523Y-90193761D02*
X130794285Y-90241380D01*
X130603809Y-90241380D01*
X130508571Y-90193761D01*
X130460952Y-90098523D01*
X130460952Y-89717571D01*
X130508571Y-89622333D01*
X130603809Y-89574714D01*
X130794285Y-89574714D01*
X130889523Y-89622333D01*
X130937142Y-89717571D01*
X130937142Y-89812809D01*
X130460952Y-89908047D01*
X131222857Y-89574714D02*
X131603809Y-89574714D01*
X131365714Y-89241380D02*
X131365714Y-90098523D01*
X131413333Y-90193761D01*
X131508571Y-90241380D01*
X131603809Y-90241380D01*
X132318095Y-90193761D02*
X132222857Y-90241380D01*
X132032380Y-90241380D01*
X131937142Y-90193761D01*
X131889523Y-90098523D01*
X131889523Y-89717571D01*
X131937142Y-89622333D01*
X132032380Y-89574714D01*
X132222857Y-89574714D01*
X132318095Y-89622333D01*
X132365714Y-89717571D01*
X132365714Y-89812809D01*
X131889523Y-89908047D01*
X132746666Y-90193761D02*
X132841904Y-90241380D01*
X133032380Y-90241380D01*
X133127619Y-90193761D01*
X133175238Y-90098523D01*
X133175238Y-90050904D01*
X133127619Y-89955666D01*
X133032380Y-89908047D01*
X132889523Y-89908047D01*
X132794285Y-89860428D01*
X132746666Y-89765190D01*
X132746666Y-89717571D01*
X132794285Y-89622333D01*
X132889523Y-89574714D01*
X133032380Y-89574714D01*
X133127619Y-89622333D01*
X134365714Y-90241380D02*
X134365714Y-89241380D01*
X134794285Y-90241380D02*
X134794285Y-89717571D01*
X134746666Y-89622333D01*
X134651428Y-89574714D01*
X134508571Y-89574714D01*
X134413333Y-89622333D01*
X134365714Y-89669952D01*
X135699047Y-90241380D02*
X135699047Y-89717571D01*
X135651428Y-89622333D01*
X135556190Y-89574714D01*
X135365714Y-89574714D01*
X135270476Y-89622333D01*
X135699047Y-90193761D02*
X135603809Y-90241380D01*
X135365714Y-90241380D01*
X135270476Y-90193761D01*
X135222857Y-90098523D01*
X135222857Y-90003285D01*
X135270476Y-89908047D01*
X135365714Y-89860428D01*
X135603809Y-89860428D01*
X135699047Y-89812809D01*
X136080000Y-89574714D02*
X136318095Y-90241380D01*
X136556190Y-89574714D01*
X137318095Y-90193761D02*
X137222857Y-90241380D01*
X137032380Y-90241380D01*
X136937142Y-90193761D01*
X136889523Y-90098523D01*
X136889523Y-89717571D01*
X136937142Y-89622333D01*
X137032380Y-89574714D01*
X137222857Y-89574714D01*
X137318095Y-89622333D01*
X137365714Y-89717571D01*
X137365714Y-89812809D01*
X136889523Y-89908047D01*
X129032380Y-91224714D02*
X129032380Y-91891380D01*
X129032380Y-91319952D02*
X129080000Y-91272333D01*
X129175238Y-91224714D01*
X129318095Y-91224714D01*
X129413333Y-91272333D01*
X129460952Y-91367571D01*
X129460952Y-91891380D01*
X130080000Y-91891380D02*
X129984761Y-91843761D01*
X129937142Y-91796142D01*
X129889523Y-91700904D01*
X129889523Y-91415190D01*
X129937142Y-91319952D01*
X129984761Y-91272333D01*
X130080000Y-91224714D01*
X130222857Y-91224714D01*
X130318095Y-91272333D01*
X130365714Y-91319952D01*
X130413333Y-91415190D01*
X130413333Y-91700904D01*
X130365714Y-91796142D01*
X130318095Y-91843761D01*
X130222857Y-91891380D01*
X130080000Y-91891380D01*
X131603809Y-91224714D02*
X131603809Y-91891380D01*
X131603809Y-91319952D02*
X131651428Y-91272333D01*
X131746666Y-91224714D01*
X131889523Y-91224714D01*
X131984761Y-91272333D01*
X132032380Y-91367571D01*
X132032380Y-91891380D01*
X132937142Y-91891380D02*
X132937142Y-91367571D01*
X132889523Y-91272333D01*
X132794285Y-91224714D01*
X132603809Y-91224714D01*
X132508571Y-91272333D01*
X132937142Y-91843761D02*
X132841904Y-91891380D01*
X132603809Y-91891380D01*
X132508571Y-91843761D01*
X132460952Y-91748523D01*
X132460952Y-91653285D01*
X132508571Y-91558047D01*
X132603809Y-91510428D01*
X132841904Y-91510428D01*
X132937142Y-91462809D01*
X133413333Y-91891380D02*
X133413333Y-91224714D01*
X133413333Y-91319952D02*
X133460952Y-91272333D01*
X133556190Y-91224714D01*
X133699047Y-91224714D01*
X133794285Y-91272333D01*
X133841904Y-91367571D01*
X133841904Y-91891380D01*
X133841904Y-91367571D02*
X133889523Y-91272333D01*
X133984761Y-91224714D01*
X134127619Y-91224714D01*
X134222857Y-91272333D01*
X134270476Y-91367571D01*
X134270476Y-91891380D01*
X135127619Y-91843761D02*
X135032380Y-91891380D01*
X134841904Y-91891380D01*
X134746666Y-91843761D01*
X134699047Y-91748523D01*
X134699047Y-91367571D01*
X134746666Y-91272333D01*
X134841904Y-91224714D01*
X135032380Y-91224714D01*
X135127619Y-91272333D01*
X135175238Y-91367571D01*
X135175238Y-91462809D01*
X134699047Y-91558047D01*
D11*
%TO.C,J3*%
X148149000Y-90865000D02*
X150809000Y-90865000D01*
X148149000Y-90805000D02*
X148149000Y-90865000D01*
X150809000Y-90805000D02*
X150809000Y-90865000D01*
X148149000Y-90805000D02*
X150809000Y-90805000D01*
X148149000Y-89535000D02*
X148149000Y-88205000D01*
X148149000Y-88205000D02*
X149479000Y-88205000D01*
%TO.C,J2*%
X100143000Y-86935000D02*
X100143000Y-92135000D01*
X107823000Y-86935000D02*
X100143000Y-86935000D01*
X110423000Y-92135000D02*
X100143000Y-92135000D01*
X107823000Y-86935000D02*
X107823000Y-89535000D01*
X107823000Y-89535000D02*
X110423000Y-89535000D01*
X110423000Y-89535000D02*
X110423000Y-92135000D01*
X109093000Y-86935000D02*
X110423000Y-86935000D01*
X110423000Y-86935000D02*
X110423000Y-88265000D01*
%TO.C,C2*%
X107367000Y-94885252D02*
X107367000Y-94362748D01*
X108787000Y-94885252D02*
X108787000Y-94362748D01*
%TO.C,D1*%
X168300000Y-89860000D02*
X171160000Y-89860000D01*
X171160000Y-89860000D02*
X171160000Y-87940000D01*
X171160000Y-87940000D02*
X168300000Y-87940000D01*
%TO.C,SW1*%
X119295894Y-90711401D02*
X114968401Y-95038894D01*
X114968401Y-95038894D02*
X112352106Y-92422599D01*
X112352106Y-92422599D02*
X116679599Y-88095106D01*
X116679599Y-88095106D02*
X119295894Y-90711401D01*
%TO.C,R3*%
X102033000Y-94353748D02*
X102033000Y-94876252D01*
X103453000Y-94353748D02*
X103453000Y-94876252D01*
%TO.C,R2*%
X104573000Y-94362748D02*
X104573000Y-94885252D01*
X105993000Y-94362748D02*
X105993000Y-94885252D01*
%TO.C,U4*%
X165982578Y-106903482D02*
X166866461Y-107787365D01*
X166866461Y-107787365D02*
X181319724Y-93334103D01*
X181319724Y-93334103D02*
X178137743Y-90152122D01*
X178137743Y-90152122D02*
X163684481Y-104605385D01*
X163684481Y-104605385D02*
X164568364Y-105489268D01*
X164568364Y-105489268D02*
G75*
G02*
X165982578Y-106903482I707107J-707107D01*
G01*
%TO.C,U3*%
X148330219Y-106775841D02*
X149214102Y-107659724D01*
X149214102Y-107659724D02*
X163667365Y-93206462D01*
X163667365Y-93206462D02*
X160485384Y-90024481D01*
X160485384Y-90024481D02*
X146032122Y-104477744D01*
X146032122Y-104477744D02*
X146916005Y-105361627D01*
X146916005Y-105361627D02*
G75*
G02*
X148330219Y-106775841I707107J-707107D01*
G01*
%TO.C,U2*%
X130550219Y-106775841D02*
X131434102Y-107659724D01*
X131434102Y-107659724D02*
X145887365Y-93206462D01*
X145887365Y-93206462D02*
X142705384Y-90024481D01*
X142705384Y-90024481D02*
X128252122Y-104477744D01*
X128252122Y-104477744D02*
X129136005Y-105361627D01*
X129136005Y-105361627D02*
G75*
G02*
X130550219Y-106775841I707107J-707107D01*
G01*
%TO.C,U1*%
X113078373Y-106903482D02*
X113962256Y-107787365D01*
X113962256Y-107787365D02*
X128415519Y-93334103D01*
X128415519Y-93334103D02*
X125233538Y-90152122D01*
X125233538Y-90152122D02*
X110780276Y-104605385D01*
X110780276Y-104605385D02*
X111664159Y-105489268D01*
X111664159Y-105489268D02*
G75*
G02*
X113078373Y-106903482I707107J-707107D01*
G01*
%TO.C,J1*%
X100778000Y-111827000D02*
X100778000Y-117027000D01*
X179578000Y-111827000D02*
X100778000Y-111827000D01*
X182178000Y-117027000D02*
X100778000Y-117027000D01*
X179578000Y-111827000D02*
X179578000Y-114427000D01*
X179578000Y-114427000D02*
X182178000Y-114427000D01*
X182178000Y-114427000D02*
X182178000Y-117027000D01*
X180848000Y-111827000D02*
X182178000Y-111827000D01*
X182178000Y-111827000D02*
X182178000Y-113157000D01*
%TO.C,U4*%
D10*
X169746275Y-100878274D02*
X170217679Y-100406870D01*
X170621740Y-101417022D01*
X171025801Y-100070152D02*
X171497206Y-100541557D01*
X170588068Y-99969137D02*
X170924786Y-100642572D01*
X171362519Y-100204839D01*
X172204312Y-99834450D02*
X171867595Y-100171167D01*
X171160488Y-99464061D01*
X172372671Y-99598748D02*
X172507358Y-99531404D01*
X172675717Y-99363045D01*
X172709389Y-99262030D01*
X172709389Y-99194687D01*
X172675717Y-99093671D01*
X172608374Y-99026328D01*
X172507358Y-98992656D01*
X172440015Y-98992656D01*
X172339000Y-99026328D01*
X172170641Y-99127343D01*
X172069625Y-99161015D01*
X172002282Y-99161015D01*
X171901267Y-99127343D01*
X171833923Y-99060000D01*
X171800251Y-98958984D01*
X171800251Y-98891641D01*
X171833923Y-98790625D01*
X172002282Y-98622267D01*
X172136969Y-98554923D01*
X173483839Y-98554923D02*
X173079778Y-98958984D01*
X173281809Y-98756954D02*
X172574702Y-98049847D01*
X172608374Y-98218206D01*
X172608374Y-98352893D01*
X172574702Y-98453908D01*
X173382824Y-97241725D02*
X173248137Y-97376412D01*
X173214465Y-97477427D01*
X173214465Y-97544771D01*
X173248137Y-97713129D01*
X173349152Y-97881488D01*
X173618526Y-98150862D01*
X173719541Y-98184534D01*
X173786885Y-98184534D01*
X173887900Y-98150862D01*
X174022587Y-98016175D01*
X174056259Y-97915160D01*
X174056259Y-97847816D01*
X174022587Y-97746801D01*
X173854228Y-97578442D01*
X173753213Y-97544771D01*
X173685870Y-97544771D01*
X173584854Y-97578442D01*
X173450167Y-97713129D01*
X173416496Y-97814145D01*
X173416496Y-97881488D01*
X173450167Y-97982503D01*
X174089931Y-96534618D02*
X173753213Y-96871336D01*
X174056259Y-97241725D01*
X174056259Y-97174381D01*
X174089931Y-97073366D01*
X174258289Y-96905007D01*
X174359305Y-96871336D01*
X174426648Y-96871336D01*
X174527663Y-96905007D01*
X174696022Y-97073366D01*
X174729694Y-97174381D01*
X174729694Y-97241725D01*
X174696022Y-97342740D01*
X174527663Y-97511099D01*
X174426648Y-97544771D01*
X174359305Y-97544771D01*
%TO.C,U3*%
X152093275Y-100878274D02*
X152564679Y-100406870D01*
X152968740Y-101417022D01*
X153372801Y-100070152D02*
X153844206Y-100541557D01*
X152935068Y-99969137D02*
X153271786Y-100642572D01*
X153709519Y-100204839D01*
X154551312Y-99834450D02*
X154214595Y-100171167D01*
X153507488Y-99464061D01*
X154719671Y-99598748D02*
X154854358Y-99531404D01*
X155022717Y-99363045D01*
X155056389Y-99262030D01*
X155056389Y-99194687D01*
X155022717Y-99093671D01*
X154955374Y-99026328D01*
X154854358Y-98992656D01*
X154787015Y-98992656D01*
X154686000Y-99026328D01*
X154517641Y-99127343D01*
X154416625Y-99161015D01*
X154349282Y-99161015D01*
X154248267Y-99127343D01*
X154180923Y-99060000D01*
X154147251Y-98958984D01*
X154147251Y-98891641D01*
X154180923Y-98790625D01*
X154349282Y-98622267D01*
X154483969Y-98554923D01*
X155830839Y-98554923D02*
X155426778Y-98958984D01*
X155628809Y-98756954D02*
X154921702Y-98049847D01*
X154955374Y-98218206D01*
X154955374Y-98352893D01*
X154921702Y-98453908D01*
X155729824Y-97241725D02*
X155595137Y-97376412D01*
X155561465Y-97477427D01*
X155561465Y-97544771D01*
X155595137Y-97713129D01*
X155696152Y-97881488D01*
X155965526Y-98150862D01*
X156066541Y-98184534D01*
X156133885Y-98184534D01*
X156234900Y-98150862D01*
X156369587Y-98016175D01*
X156403259Y-97915160D01*
X156403259Y-97847816D01*
X156369587Y-97746801D01*
X156201228Y-97578442D01*
X156100213Y-97544771D01*
X156032870Y-97544771D01*
X155931854Y-97578442D01*
X155797167Y-97713129D01*
X155763496Y-97814145D01*
X155763496Y-97881488D01*
X155797167Y-97982503D01*
X156436931Y-96534618D02*
X156100213Y-96871336D01*
X156403259Y-97241725D01*
X156403259Y-97174381D01*
X156436931Y-97073366D01*
X156605289Y-96905007D01*
X156706305Y-96871336D01*
X156773648Y-96871336D01*
X156874663Y-96905007D01*
X157043022Y-97073366D01*
X157076694Y-97174381D01*
X157076694Y-97241725D01*
X157043022Y-97342740D01*
X156874663Y-97511099D01*
X156773648Y-97544771D01*
X156706305Y-97544771D01*
%TO.C,U2*%
X128984482Y-105849867D02*
X128412062Y-106422287D01*
X128378390Y-106523302D01*
X128378390Y-106590646D01*
X128412062Y-106691661D01*
X128546749Y-106826348D01*
X128647764Y-106860020D01*
X128715108Y-106860020D01*
X128816123Y-106826348D01*
X129388543Y-106253928D01*
X129624245Y-106624318D02*
X129691588Y-106624318D01*
X129792604Y-106657989D01*
X129960962Y-106826348D01*
X129994634Y-106927363D01*
X129994634Y-106994707D01*
X129960962Y-107095722D01*
X129893619Y-107163066D01*
X129758932Y-107230409D01*
X128950810Y-107230409D01*
X129388543Y-107668142D01*
X133958259Y-101106289D02*
X134429664Y-100634885D01*
X134833725Y-101645037D01*
X135237786Y-100298167D02*
X135709190Y-100769572D01*
X134800053Y-100197152D02*
X135136771Y-100870587D01*
X135574503Y-100432854D01*
X136079580Y-100399183D02*
X135372473Y-99692076D01*
X135709190Y-100028793D02*
X136113251Y-99624732D01*
X136483641Y-99995122D02*
X135776534Y-99288015D01*
X137157076Y-99186999D02*
X137157076Y-99254343D01*
X137089732Y-99389030D01*
X137022389Y-99456374D01*
X136887702Y-99523717D01*
X136753015Y-99523717D01*
X136652000Y-99490045D01*
X136483641Y-99389030D01*
X136382625Y-99288015D01*
X136281610Y-99119656D01*
X136247938Y-99018641D01*
X136247938Y-98883954D01*
X136315282Y-98749267D01*
X136382625Y-98681923D01*
X136517312Y-98614580D01*
X136584656Y-98614580D01*
X137157076Y-97907473D02*
X136820358Y-98244190D01*
X137123404Y-98614580D01*
X137123404Y-98547236D01*
X137157076Y-98446221D01*
X137325435Y-98277862D01*
X137426450Y-98244190D01*
X137493793Y-98244190D01*
X137594809Y-98277862D01*
X137763167Y-98446221D01*
X137796839Y-98547236D01*
X137796839Y-98614580D01*
X137763167Y-98715595D01*
X137594809Y-98883954D01*
X137493793Y-98917625D01*
X137426450Y-98917625D01*
X138234572Y-98244190D02*
X138369259Y-98109503D01*
X138402931Y-98008488D01*
X138402931Y-97941145D01*
X138369259Y-97772786D01*
X138268244Y-97604427D01*
X137998870Y-97335053D01*
X137897854Y-97301381D01*
X137830511Y-97301381D01*
X137729496Y-97335053D01*
X137594809Y-97469740D01*
X137561137Y-97570755D01*
X137561137Y-97638099D01*
X137594809Y-97739114D01*
X137763167Y-97907473D01*
X137864183Y-97941145D01*
X137931526Y-97941145D01*
X138032541Y-97907473D01*
X138167228Y-97772786D01*
X138200900Y-97671771D01*
X138200900Y-97604427D01*
X138167228Y-97503412D01*
X138503946Y-96560603D02*
X138167228Y-96897320D01*
X138470274Y-97267710D01*
X138470274Y-97200366D01*
X138503946Y-97099351D01*
X138672305Y-96930992D01*
X138773320Y-96897320D01*
X138840663Y-96897320D01*
X138941679Y-96930992D01*
X139110037Y-97099351D01*
X139143709Y-97200366D01*
X139143709Y-97267710D01*
X139110037Y-97368725D01*
X138941679Y-97537084D01*
X138840663Y-97570755D01*
X138773320Y-97570755D01*
%TO.C,U1*%
X116686259Y-100979289D02*
X117157664Y-100507885D01*
X117561725Y-101518037D01*
X117965786Y-100171167D02*
X118437190Y-100642572D01*
X117528053Y-100070152D02*
X117864771Y-100743587D01*
X118302503Y-100305854D01*
X118807580Y-100272183D02*
X118100473Y-99565076D01*
X118437190Y-99901793D02*
X118841251Y-99497732D01*
X119211641Y-99868122D02*
X118504534Y-99161015D01*
X119885076Y-99060000D02*
X119885076Y-99127343D01*
X119817732Y-99262030D01*
X119750389Y-99329374D01*
X119615702Y-99396717D01*
X119481015Y-99396717D01*
X119380000Y-99363045D01*
X119211641Y-99262030D01*
X119110625Y-99161015D01*
X119009610Y-98992656D01*
X118975938Y-98891641D01*
X118975938Y-98756954D01*
X119043282Y-98622267D01*
X119110625Y-98554923D01*
X119245312Y-98487580D01*
X119312656Y-98487580D01*
X119885076Y-97780473D02*
X119548358Y-98117190D01*
X119851404Y-98487580D01*
X119851404Y-98420236D01*
X119885076Y-98319221D01*
X120053435Y-98150862D01*
X120154450Y-98117190D01*
X120221793Y-98117190D01*
X120322809Y-98150862D01*
X120491167Y-98319221D01*
X120524839Y-98420236D01*
X120524839Y-98487580D01*
X120491167Y-98588595D01*
X120322809Y-98756954D01*
X120221793Y-98790625D01*
X120154450Y-98790625D01*
X120962572Y-98117190D02*
X121097259Y-97982503D01*
X121130931Y-97881488D01*
X121130931Y-97814145D01*
X121097259Y-97645786D01*
X120996244Y-97477427D01*
X120726870Y-97208053D01*
X120625854Y-97174381D01*
X120558511Y-97174381D01*
X120457496Y-97208053D01*
X120322809Y-97342740D01*
X120289137Y-97443755D01*
X120289137Y-97511099D01*
X120322809Y-97612114D01*
X120491167Y-97780473D01*
X120592183Y-97814145D01*
X120659526Y-97814145D01*
X120760541Y-97780473D01*
X120895228Y-97645786D01*
X120928900Y-97544771D01*
X120928900Y-97477427D01*
X120895228Y-97376412D01*
X121231946Y-96433603D02*
X120895228Y-96770320D01*
X121198274Y-97140710D01*
X121198274Y-97073366D01*
X121231946Y-96972351D01*
X121400305Y-96803992D01*
X121501320Y-96770320D01*
X121568663Y-96770320D01*
X121669679Y-96803992D01*
X121838037Y-96972351D01*
X121871709Y-97073366D01*
X121871709Y-97140710D01*
X121838037Y-97241725D01*
X121669679Y-97410084D01*
X121568663Y-97443755D01*
X121501320Y-97443755D01*
%TD*%
M02*
