%TF.GenerationSoftware,KiCad,Pcbnew,5.1.9+dfsg1-1+deb11u1*%
%TF.CreationDate,2025-02-02T16:03:13-08:00*%
%TF.ProjectId,esp01Expander,65737030-3145-4787-9061-6e6465722e6b,rev?*%
%TF.SameCoordinates,Original*%
%TF.FileFunction,Copper,L2,Bot*%
%TF.FilePolarity,Positive*%
%FSLAX46Y46*%
G04 Gerber Fmt 4.6, Leading zero omitted, Abs format (unit mm)*
G04 Created by KiCad (PCBNEW 5.1.9+dfsg1-1+deb11u1) date 2025-02-02 16:03:13*
%MOMM*%
%LPD*%
G01*
G04 APERTURE LIST*
%TA.AperFunction,ComponentPad*%
%ADD10R,1.700000X1.700000*%
%TD*%
%TA.AperFunction,ComponentPad*%
%ADD11O,1.700000X1.700000*%
%TD*%
%TA.AperFunction,SMDPad,CuDef*%
%ADD12R,1.500000X2.000000*%
%TD*%
%TA.AperFunction,SMDPad,CuDef*%
%ADD13R,3.800000X2.000000*%
%TD*%
%TA.AperFunction,ComponentPad*%
%ADD14C,0.100000*%
%TD*%
%TA.AperFunction,ViaPad*%
%ADD15C,0.800000*%
%TD*%
%TA.AperFunction,Conductor*%
%ADD16C,0.250000*%
%TD*%
%TA.AperFunction,Conductor*%
%ADD17C,1.000000*%
%TD*%
%TA.AperFunction,Conductor*%
%ADD18C,0.500000*%
%TD*%
%TA.AperFunction,Conductor*%
%ADD19C,0.254000*%
%TD*%
%TA.AperFunction,Conductor*%
%ADD20C,0.100000*%
%TD*%
G04 APERTURE END LIST*
D10*
%TO.P,J3,1*%
%TO.N,Net-(J3-Pad1)*%
X149479000Y-89535000D03*
%TD*%
D11*
%TO.P,J2,8*%
%TO.N,Net-(J2-Pad8)*%
X101473000Y-90805000D03*
%TO.P,J2,7*%
%TO.N,+3V3*%
X101473000Y-88265000D03*
%TO.P,J2,6*%
%TO.N,Net-(J2-Pad6)*%
X104013000Y-90805000D03*
%TO.P,J2,5*%
%TO.N,Net-(J2-Pad5)*%
X104013000Y-88265000D03*
%TO.P,J2,4*%
%TO.N,Net-(J2-Pad4)*%
X106553000Y-90805000D03*
%TO.P,J2,3*%
%TO.N,Net-(J2-Pad3)*%
X106553000Y-88265000D03*
%TO.P,J2,2*%
%TO.N,GND*%
X109093000Y-90805000D03*
D10*
%TO.P,J2,1*%
%TO.N,Net-(J2-Pad1)*%
X109093000Y-88265000D03*
%TD*%
%TO.P,C5,2*%
%TO.N,GND*%
%TA.AperFunction,SMDPad,CuDef*%
G36*
G01*
X178599215Y-93129612D02*
X179235612Y-92493215D01*
G75*
G02*
X179589164Y-92493215I176776J-176776D01*
G01*
X180048785Y-92952836D01*
G75*
G02*
X180048785Y-93306388I-176776J-176776D01*
G01*
X179412388Y-93942785D01*
G75*
G02*
X179058836Y-93942785I-176776J176776D01*
G01*
X178599215Y-93483164D01*
G75*
G02*
X178599215Y-93129612I176776J176776D01*
G01*
G37*
%TD.AperFunction*%
%TO.P,C5,1*%
%TO.N,+5V*%
%TA.AperFunction,SMDPad,CuDef*%
G36*
G01*
X177149647Y-91680044D02*
X177786044Y-91043647D01*
G75*
G02*
X178139596Y-91043647I176776J-176776D01*
G01*
X178599217Y-91503268D01*
G75*
G02*
X178599217Y-91856820I-176776J-176776D01*
G01*
X177962820Y-92493217D01*
G75*
G02*
X177609268Y-92493217I-176776J176776D01*
G01*
X177149647Y-92033596D01*
G75*
G02*
X177149647Y-91680044I176776J176776D01*
G01*
G37*
%TD.AperFunction*%
%TD*%
%TO.P,C4,2*%
%TO.N,GND*%
%TA.AperFunction,SMDPad,CuDef*%
G36*
G01*
X161200215Y-93002612D02*
X161836612Y-92366215D01*
G75*
G02*
X162190164Y-92366215I176776J-176776D01*
G01*
X162649785Y-92825836D01*
G75*
G02*
X162649785Y-93179388I-176776J-176776D01*
G01*
X162013388Y-93815785D01*
G75*
G02*
X161659836Y-93815785I-176776J176776D01*
G01*
X161200215Y-93356164D01*
G75*
G02*
X161200215Y-93002612I176776J176776D01*
G01*
G37*
%TD.AperFunction*%
%TO.P,C4,1*%
%TO.N,+5V*%
%TA.AperFunction,SMDPad,CuDef*%
G36*
G01*
X159750647Y-91553044D02*
X160387044Y-90916647D01*
G75*
G02*
X160740596Y-90916647I176776J-176776D01*
G01*
X161200217Y-91376268D01*
G75*
G02*
X161200217Y-91729820I-176776J-176776D01*
G01*
X160563820Y-92366217D01*
G75*
G02*
X160210268Y-92366217I-176776J176776D01*
G01*
X159750647Y-91906596D01*
G75*
G02*
X159750647Y-91553044I176776J176776D01*
G01*
G37*
%TD.AperFunction*%
%TD*%
%TO.P,C3,2*%
%TO.N,GND*%
%TA.AperFunction,SMDPad,CuDef*%
G36*
G01*
X143293215Y-93129612D02*
X143929612Y-92493215D01*
G75*
G02*
X144283164Y-92493215I176776J-176776D01*
G01*
X144742785Y-92952836D01*
G75*
G02*
X144742785Y-93306388I-176776J-176776D01*
G01*
X144106388Y-93942785D01*
G75*
G02*
X143752836Y-93942785I-176776J176776D01*
G01*
X143293215Y-93483164D01*
G75*
G02*
X143293215Y-93129612I176776J176776D01*
G01*
G37*
%TD.AperFunction*%
%TO.P,C3,1*%
%TO.N,+5V*%
%TA.AperFunction,SMDPad,CuDef*%
G36*
G01*
X141843647Y-91680044D02*
X142480044Y-91043647D01*
G75*
G02*
X142833596Y-91043647I176776J-176776D01*
G01*
X143293217Y-91503268D01*
G75*
G02*
X143293217Y-91856820I-176776J-176776D01*
G01*
X142656820Y-92493217D01*
G75*
G02*
X142303268Y-92493217I-176776J176776D01*
G01*
X141843647Y-92033596D01*
G75*
G02*
X141843647Y-91680044I176776J176776D01*
G01*
G37*
%TD.AperFunction*%
%TD*%
%TO.P,C1,2*%
%TO.N,GND*%
%TA.AperFunction,SMDPad,CuDef*%
G36*
G01*
X114553999Y-104776396D02*
X115190396Y-104139999D01*
G75*
G02*
X115543948Y-104139999I176776J-176776D01*
G01*
X116003569Y-104599620D01*
G75*
G02*
X116003569Y-104953172I-176776J-176776D01*
G01*
X115367172Y-105589569D01*
G75*
G02*
X115013620Y-105589569I-176776J176776D01*
G01*
X114553999Y-105129948D01*
G75*
G02*
X114553999Y-104776396I176776J176776D01*
G01*
G37*
%TD.AperFunction*%
%TO.P,C1,1*%
%TO.N,+5V*%
%TA.AperFunction,SMDPad,CuDef*%
G36*
G01*
X113104431Y-103326828D02*
X113740828Y-102690431D01*
G75*
G02*
X114094380Y-102690431I176776J-176776D01*
G01*
X114554001Y-103150052D01*
G75*
G02*
X114554001Y-103503604I-176776J-176776D01*
G01*
X113917604Y-104140001D01*
G75*
G02*
X113564052Y-104140001I-176776J176776D01*
G01*
X113104431Y-103680380D01*
G75*
G02*
X113104431Y-103326828I176776J176776D01*
G01*
G37*
%TD.AperFunction*%
%TD*%
%TO.P,R5,2*%
%TO.N,Net-(D1-Pad2)*%
%TA.AperFunction,SMDPad,CuDef*%
G36*
G01*
X163030783Y-91277180D02*
X163667180Y-90640783D01*
G75*
G02*
X164020732Y-90640783I176776J-176776D01*
G01*
X164480353Y-91100404D01*
G75*
G02*
X164480353Y-91453956I-176776J-176776D01*
G01*
X163843956Y-92090353D01*
G75*
G02*
X163490404Y-92090353I-176776J176776D01*
G01*
X163030783Y-91630732D01*
G75*
G02*
X163030783Y-91277180I176776J176776D01*
G01*
G37*
%TD.AperFunction*%
%TO.P,R5,1*%
%TO.N,+5V*%
%TA.AperFunction,SMDPad,CuDef*%
G36*
G01*
X161581215Y-89827612D02*
X162217612Y-89191215D01*
G75*
G02*
X162571164Y-89191215I176776J-176776D01*
G01*
X163030785Y-89650836D01*
G75*
G02*
X163030785Y-90004388I-176776J-176776D01*
G01*
X162394388Y-90640785D01*
G75*
G02*
X162040836Y-90640785I-176776J176776D01*
G01*
X161581215Y-90181164D01*
G75*
G02*
X161581215Y-89827612I176776J176776D01*
G01*
G37*
%TD.AperFunction*%
%TD*%
%TO.P,R4,2*%
%TO.N,Net-(J2-Pad8)*%
%TA.AperFunction,SMDPad,CuDef*%
G36*
G01*
X132900000Y-87179999D02*
X132900000Y-88080001D01*
G75*
G02*
X132650001Y-88330000I-249999J0D01*
G01*
X131999999Y-88330000D01*
G75*
G02*
X131750000Y-88080001I0J249999D01*
G01*
X131750000Y-87179999D01*
G75*
G02*
X131999999Y-86930000I249999J0D01*
G01*
X132650001Y-86930000D01*
G75*
G02*
X132900000Y-87179999I0J-249999D01*
G01*
G37*
%TD.AperFunction*%
%TO.P,R4,1*%
%TO.N,Net-(R4-Pad1)*%
%TA.AperFunction,SMDPad,CuDef*%
G36*
G01*
X134950000Y-87179999D02*
X134950000Y-88080001D01*
G75*
G02*
X134700001Y-88330000I-249999J0D01*
G01*
X134049999Y-88330000D01*
G75*
G02*
X133800000Y-88080001I0J249999D01*
G01*
X133800000Y-87179999D01*
G75*
G02*
X134049999Y-86930000I249999J0D01*
G01*
X134700001Y-86930000D01*
G75*
G02*
X134950000Y-87179999I0J-249999D01*
G01*
G37*
%TD.AperFunction*%
%TD*%
D12*
%TO.P,U5,1*%
%TO.N,GND*%
X106440000Y-105360000D03*
%TO.P,U5,3*%
%TO.N,+5V*%
X101840000Y-105360000D03*
%TO.P,U5,2*%
%TO.N,+3V3*%
X104140000Y-105360000D03*
D13*
X104140000Y-99060000D03*
%TD*%
%TO.P,R1,2*%
%TO.N,Net-(R1-Pad2)*%
%TA.AperFunction,SMDPad,CuDef*%
G36*
G01*
X129736001Y-89339000D02*
X128835999Y-89339000D01*
G75*
G02*
X128586000Y-89089001I0J249999D01*
G01*
X128586000Y-88438999D01*
G75*
G02*
X128835999Y-88189000I249999J0D01*
G01*
X129736001Y-88189000D01*
G75*
G02*
X129986000Y-88438999I0J-249999D01*
G01*
X129986000Y-89089001D01*
G75*
G02*
X129736001Y-89339000I-249999J0D01*
G01*
G37*
%TD.AperFunction*%
%TO.P,R1,1*%
%TO.N,+5V*%
%TA.AperFunction,SMDPad,CuDef*%
G36*
G01*
X129736001Y-91389000D02*
X128835999Y-91389000D01*
G75*
G02*
X128586000Y-91139001I0J249999D01*
G01*
X128586000Y-90488999D01*
G75*
G02*
X128835999Y-90239000I249999J0D01*
G01*
X129736001Y-90239000D01*
G75*
G02*
X129986000Y-90488999I0J-249999D01*
G01*
X129986000Y-91139001D01*
G75*
G02*
X129736001Y-91389000I-249999J0D01*
G01*
G37*
%TD.AperFunction*%
%TD*%
%TO.P,U4,16*%
%TO.N,+5V*%
%TA.AperFunction,ComponentPad*%
G36*
G01*
X164370374Y-103410374D02*
X164370374Y-103410374D01*
G75*
G02*
X163239004Y-103410374I-565685J565685D01*
G01*
X162673318Y-102844688D01*
G75*
G02*
X162673318Y-101713318I565685J565685D01*
G01*
X162673318Y-101713318D01*
G75*
G02*
X163804688Y-101713318I565685J-565685D01*
G01*
X164370374Y-102279004D01*
G75*
G02*
X164370374Y-103410374I-565685J-565685D01*
G01*
G37*
%TD.AperFunction*%
%TO.P,U4,8*%
%TO.N,GND*%
%TA.AperFunction,ComponentPad*%
G36*
G01*
X182330887Y-96226169D02*
X182330887Y-96226169D01*
G75*
G02*
X181199517Y-96226169I-565685J565685D01*
G01*
X180633831Y-95660483D01*
G75*
G02*
X180633831Y-94529113I565685J565685D01*
G01*
X180633831Y-94529113D01*
G75*
G02*
X181765201Y-94529113I565685J-565685D01*
G01*
X182330887Y-95094799D01*
G75*
G02*
X182330887Y-96226169I-565685J-565685D01*
G01*
G37*
%TD.AperFunction*%
%TO.P,U4,15*%
%TA.AperFunction,ComponentPad*%
G36*
G01*
X166166426Y-101614323D02*
X166166426Y-101614323D01*
G75*
G02*
X165035056Y-101614323I-565685J565685D01*
G01*
X164469370Y-101048637D01*
G75*
G02*
X164469370Y-99917267I565685J565685D01*
G01*
X164469370Y-99917267D01*
G75*
G02*
X165600740Y-99917267I565685J-565685D01*
G01*
X166166426Y-100482953D01*
G75*
G02*
X166166426Y-101614323I-565685J-565685D01*
G01*
G37*
%TD.AperFunction*%
%TO.P,U4,7*%
%TO.N,Net-(U4-Pad7)*%
%TA.AperFunction,ComponentPad*%
G36*
G01*
X180534835Y-98022221D02*
X180534835Y-98022221D01*
G75*
G02*
X179403465Y-98022221I-565685J565685D01*
G01*
X178837779Y-97456535D01*
G75*
G02*
X178837779Y-96325165I565685J565685D01*
G01*
X178837779Y-96325165D01*
G75*
G02*
X179969149Y-96325165I565685J-565685D01*
G01*
X180534835Y-96890851D01*
G75*
G02*
X180534835Y-98022221I-565685J-565685D01*
G01*
G37*
%TD.AperFunction*%
%TO.P,U4,14*%
%TO.N,Net-(J1-Pad9)*%
%TA.AperFunction,ComponentPad*%
G36*
G01*
X167962477Y-99818272D02*
X167962477Y-99818272D01*
G75*
G02*
X166831107Y-99818272I-565685J565685D01*
G01*
X166265421Y-99252586D01*
G75*
G02*
X166265421Y-98121216I565685J565685D01*
G01*
X166265421Y-98121216D01*
G75*
G02*
X167396791Y-98121216I565685J-565685D01*
G01*
X167962477Y-98686902D01*
G75*
G02*
X167962477Y-99818272I-565685J-565685D01*
G01*
G37*
%TD.AperFunction*%
%TO.P,U4,6*%
%TO.N,Net-(J1-Pad1)*%
%TA.AperFunction,ComponentPad*%
G36*
G01*
X178738784Y-99818272D02*
X178738784Y-99818272D01*
G75*
G02*
X177607414Y-99818272I-565685J565685D01*
G01*
X177041728Y-99252586D01*
G75*
G02*
X177041728Y-98121216I565685J565685D01*
G01*
X177041728Y-98121216D01*
G75*
G02*
X178173098Y-98121216I565685J-565685D01*
G01*
X178738784Y-98686902D01*
G75*
G02*
X178738784Y-99818272I-565685J-565685D01*
G01*
G37*
%TD.AperFunction*%
%TO.P,U4,13*%
%TO.N,Net-(J1-Pad11)*%
%TA.AperFunction,ComponentPad*%
G36*
G01*
X169758528Y-98022221D02*
X169758528Y-98022221D01*
G75*
G02*
X168627158Y-98022221I-565685J565685D01*
G01*
X168061472Y-97456535D01*
G75*
G02*
X168061472Y-96325165I565685J565685D01*
G01*
X168061472Y-96325165D01*
G75*
G02*
X169192842Y-96325165I565685J-565685D01*
G01*
X169758528Y-96890851D01*
G75*
G02*
X169758528Y-98022221I-565685J-565685D01*
G01*
G37*
%TD.AperFunction*%
%TO.P,U4,5*%
%TO.N,Net-(J1-Pad3)*%
%TA.AperFunction,ComponentPad*%
G36*
G01*
X176942733Y-101614323D02*
X176942733Y-101614323D01*
G75*
G02*
X175811363Y-101614323I-565685J565685D01*
G01*
X175245677Y-101048637D01*
G75*
G02*
X175245677Y-99917267I565685J565685D01*
G01*
X175245677Y-99917267D01*
G75*
G02*
X176377047Y-99917267I565685J-565685D01*
G01*
X176942733Y-100482953D01*
G75*
G02*
X176942733Y-101614323I-565685J-565685D01*
G01*
G37*
%TD.AperFunction*%
%TO.P,U4,12*%
%TO.N,Net-(J1-Pad13)*%
%TA.AperFunction,ComponentPad*%
G36*
G01*
X171554579Y-96226169D02*
X171554579Y-96226169D01*
G75*
G02*
X170423209Y-96226169I-565685J565685D01*
G01*
X169857523Y-95660483D01*
G75*
G02*
X169857523Y-94529113I565685J565685D01*
G01*
X169857523Y-94529113D01*
G75*
G02*
X170988893Y-94529113I565685J-565685D01*
G01*
X171554579Y-95094799D01*
G75*
G02*
X171554579Y-96226169I-565685J-565685D01*
G01*
G37*
%TD.AperFunction*%
%TO.P,U4,4*%
%TO.N,Net-(J1-Pad5)*%
%TA.AperFunction,ComponentPad*%
G36*
G01*
X175146682Y-103410374D02*
X175146682Y-103410374D01*
G75*
G02*
X174015312Y-103410374I-565685J565685D01*
G01*
X173449626Y-102844688D01*
G75*
G02*
X173449626Y-101713318I565685J565685D01*
G01*
X173449626Y-101713318D01*
G75*
G02*
X174580996Y-101713318I565685J-565685D01*
G01*
X175146682Y-102279004D01*
G75*
G02*
X175146682Y-103410374I-565685J-565685D01*
G01*
G37*
%TD.AperFunction*%
%TO.P,U4,11*%
%TO.N,Net-(J1-Pad15)*%
%TA.AperFunction,ComponentPad*%
G36*
G01*
X173350630Y-94430118D02*
X173350630Y-94430118D01*
G75*
G02*
X172219260Y-94430118I-565685J565685D01*
G01*
X171653574Y-93864432D01*
G75*
G02*
X171653574Y-92733062I565685J565685D01*
G01*
X171653574Y-92733062D01*
G75*
G02*
X172784944Y-92733062I565685J-565685D01*
G01*
X173350630Y-93298748D01*
G75*
G02*
X173350630Y-94430118I-565685J-565685D01*
G01*
G37*
%TD.AperFunction*%
%TO.P,U4,3*%
%TO.N,Net-(J1-Pad7)*%
%TA.AperFunction,ComponentPad*%
G36*
G01*
X173350630Y-105206426D02*
X173350630Y-105206426D01*
G75*
G02*
X172219260Y-105206426I-565685J565685D01*
G01*
X171653574Y-104640740D01*
G75*
G02*
X171653574Y-103509370I565685J565685D01*
G01*
X171653574Y-103509370D01*
G75*
G02*
X172784944Y-103509370I565685J-565685D01*
G01*
X173350630Y-104075056D01*
G75*
G02*
X173350630Y-105206426I-565685J-565685D01*
G01*
G37*
%TD.AperFunction*%
%TO.P,U4,10*%
%TO.N,Net-(U3-Pad9)*%
%TA.AperFunction,ComponentPad*%
G36*
G01*
X175146682Y-92634067D02*
X175146682Y-92634067D01*
G75*
G02*
X174015312Y-92634067I-565685J565685D01*
G01*
X173449626Y-92068381D01*
G75*
G02*
X173449626Y-90937011I565685J565685D01*
G01*
X173449626Y-90937011D01*
G75*
G02*
X174580996Y-90937011I565685J-565685D01*
G01*
X175146682Y-91502697D01*
G75*
G02*
X175146682Y-92634067I-565685J-565685D01*
G01*
G37*
%TD.AperFunction*%
%TO.P,U4,2*%
%TO.N,Net-(J2-Pad6)*%
%TA.AperFunction,ComponentPad*%
G36*
G01*
X171554579Y-107002477D02*
X171554579Y-107002477D01*
G75*
G02*
X170423209Y-107002477I-565685J565685D01*
G01*
X169857523Y-106436791D01*
G75*
G02*
X169857523Y-105305421I565685J565685D01*
G01*
X169857523Y-105305421D01*
G75*
G02*
X170988893Y-105305421I565685J-565685D01*
G01*
X171554579Y-105871107D01*
G75*
G02*
X171554579Y-107002477I-565685J-565685D01*
G01*
G37*
%TD.AperFunction*%
%TO.P,U4,9*%
%TO.N,Net-(R4-Pad1)*%
%TA.AperFunction,ComponentPad*%
G36*
G01*
X176942733Y-90838016D02*
X176942733Y-90838016D01*
G75*
G02*
X175811363Y-90838016I-565685J565685D01*
G01*
X175245677Y-90272330D01*
G75*
G02*
X175245677Y-89140960I565685J565685D01*
G01*
X175245677Y-89140960D01*
G75*
G02*
X176377047Y-89140960I565685J-565685D01*
G01*
X176942733Y-89706646D01*
G75*
G02*
X176942733Y-90838016I-565685J-565685D01*
G01*
G37*
%TD.AperFunction*%
%TA.AperFunction,ComponentPad*%
D14*
%TO.P,U4,1*%
%TO.N,Net-(J2-Pad4)*%
G36*
X170324214Y-108232843D02*
G01*
X169192843Y-109364214D01*
X167495786Y-107667157D01*
X168627157Y-106535786D01*
X170324214Y-108232843D01*
G37*
%TD.AperFunction*%
%TD*%
%TO.P,U3,16*%
%TO.N,+5V*%
%TA.AperFunction,ComponentPad*%
G36*
G01*
X146718015Y-103282733D02*
X146718015Y-103282733D01*
G75*
G02*
X145586645Y-103282733I-565685J565685D01*
G01*
X145020959Y-102717047D01*
G75*
G02*
X145020959Y-101585677I565685J565685D01*
G01*
X145020959Y-101585677D01*
G75*
G02*
X146152329Y-101585677I565685J-565685D01*
G01*
X146718015Y-102151363D01*
G75*
G02*
X146718015Y-103282733I-565685J-565685D01*
G01*
G37*
%TD.AperFunction*%
%TO.P,U3,8*%
%TO.N,GND*%
%TA.AperFunction,ComponentPad*%
G36*
G01*
X164678528Y-96098528D02*
X164678528Y-96098528D01*
G75*
G02*
X163547158Y-96098528I-565685J565685D01*
G01*
X162981472Y-95532842D01*
G75*
G02*
X162981472Y-94401472I565685J565685D01*
G01*
X162981472Y-94401472D01*
G75*
G02*
X164112842Y-94401472I565685J-565685D01*
G01*
X164678528Y-94967158D01*
G75*
G02*
X164678528Y-96098528I-565685J-565685D01*
G01*
G37*
%TD.AperFunction*%
%TO.P,U3,15*%
%TA.AperFunction,ComponentPad*%
G36*
G01*
X148514067Y-101486682D02*
X148514067Y-101486682D01*
G75*
G02*
X147382697Y-101486682I-565685J565685D01*
G01*
X146817011Y-100920996D01*
G75*
G02*
X146817011Y-99789626I565685J565685D01*
G01*
X146817011Y-99789626D01*
G75*
G02*
X147948381Y-99789626I565685J-565685D01*
G01*
X148514067Y-100355312D01*
G75*
G02*
X148514067Y-101486682I-565685J-565685D01*
G01*
G37*
%TD.AperFunction*%
%TO.P,U3,7*%
%TO.N,Net-(U3-Pad7)*%
%TA.AperFunction,ComponentPad*%
G36*
G01*
X162882476Y-97894580D02*
X162882476Y-97894580D01*
G75*
G02*
X161751106Y-97894580I-565685J565685D01*
G01*
X161185420Y-97328894D01*
G75*
G02*
X161185420Y-96197524I565685J565685D01*
G01*
X161185420Y-96197524D01*
G75*
G02*
X162316790Y-96197524I565685J-565685D01*
G01*
X162882476Y-96763210D01*
G75*
G02*
X162882476Y-97894580I-565685J-565685D01*
G01*
G37*
%TD.AperFunction*%
%TO.P,U3,14*%
%TO.N,Net-(J1-Pad25)*%
%TA.AperFunction,ComponentPad*%
G36*
G01*
X150310118Y-99690631D02*
X150310118Y-99690631D01*
G75*
G02*
X149178748Y-99690631I-565685J565685D01*
G01*
X148613062Y-99124945D01*
G75*
G02*
X148613062Y-97993575I565685J565685D01*
G01*
X148613062Y-97993575D01*
G75*
G02*
X149744432Y-97993575I565685J-565685D01*
G01*
X150310118Y-98559261D01*
G75*
G02*
X150310118Y-99690631I-565685J-565685D01*
G01*
G37*
%TD.AperFunction*%
%TO.P,U3,6*%
%TO.N,Net-(J1-Pad17)*%
%TA.AperFunction,ComponentPad*%
G36*
G01*
X161086425Y-99690631D02*
X161086425Y-99690631D01*
G75*
G02*
X159955055Y-99690631I-565685J565685D01*
G01*
X159389369Y-99124945D01*
G75*
G02*
X159389369Y-97993575I565685J565685D01*
G01*
X159389369Y-97993575D01*
G75*
G02*
X160520739Y-97993575I565685J-565685D01*
G01*
X161086425Y-98559261D01*
G75*
G02*
X161086425Y-99690631I-565685J-565685D01*
G01*
G37*
%TD.AperFunction*%
%TO.P,U3,13*%
%TO.N,Net-(J1-Pad27)*%
%TA.AperFunction,ComponentPad*%
G36*
G01*
X152106169Y-97894580D02*
X152106169Y-97894580D01*
G75*
G02*
X150974799Y-97894580I-565685J565685D01*
G01*
X150409113Y-97328894D01*
G75*
G02*
X150409113Y-96197524I565685J565685D01*
G01*
X150409113Y-96197524D01*
G75*
G02*
X151540483Y-96197524I565685J-565685D01*
G01*
X152106169Y-96763210D01*
G75*
G02*
X152106169Y-97894580I-565685J-565685D01*
G01*
G37*
%TD.AperFunction*%
%TO.P,U3,5*%
%TO.N,Net-(J1-Pad19)*%
%TA.AperFunction,ComponentPad*%
G36*
G01*
X159290374Y-101486682D02*
X159290374Y-101486682D01*
G75*
G02*
X158159004Y-101486682I-565685J565685D01*
G01*
X157593318Y-100920996D01*
G75*
G02*
X157593318Y-99789626I565685J565685D01*
G01*
X157593318Y-99789626D01*
G75*
G02*
X158724688Y-99789626I565685J-565685D01*
G01*
X159290374Y-100355312D01*
G75*
G02*
X159290374Y-101486682I-565685J-565685D01*
G01*
G37*
%TD.AperFunction*%
%TO.P,U3,12*%
%TO.N,Net-(J1-Pad29)*%
%TA.AperFunction,ComponentPad*%
G36*
G01*
X153902220Y-96098528D02*
X153902220Y-96098528D01*
G75*
G02*
X152770850Y-96098528I-565685J565685D01*
G01*
X152205164Y-95532842D01*
G75*
G02*
X152205164Y-94401472I565685J565685D01*
G01*
X152205164Y-94401472D01*
G75*
G02*
X153336534Y-94401472I565685J-565685D01*
G01*
X153902220Y-94967158D01*
G75*
G02*
X153902220Y-96098528I-565685J-565685D01*
G01*
G37*
%TD.AperFunction*%
%TO.P,U3,4*%
%TO.N,Net-(J1-Pad21)*%
%TA.AperFunction,ComponentPad*%
G36*
G01*
X157494323Y-103282733D02*
X157494323Y-103282733D01*
G75*
G02*
X156362953Y-103282733I-565685J565685D01*
G01*
X155797267Y-102717047D01*
G75*
G02*
X155797267Y-101585677I565685J565685D01*
G01*
X155797267Y-101585677D01*
G75*
G02*
X156928637Y-101585677I565685J-565685D01*
G01*
X157494323Y-102151363D01*
G75*
G02*
X157494323Y-103282733I-565685J-565685D01*
G01*
G37*
%TD.AperFunction*%
%TO.P,U3,11*%
%TO.N,Net-(J1-Pad31)*%
%TA.AperFunction,ComponentPad*%
G36*
G01*
X155698271Y-94302477D02*
X155698271Y-94302477D01*
G75*
G02*
X154566901Y-94302477I-565685J565685D01*
G01*
X154001215Y-93736791D01*
G75*
G02*
X154001215Y-92605421I565685J565685D01*
G01*
X154001215Y-92605421D01*
G75*
G02*
X155132585Y-92605421I565685J-565685D01*
G01*
X155698271Y-93171107D01*
G75*
G02*
X155698271Y-94302477I-565685J-565685D01*
G01*
G37*
%TD.AperFunction*%
%TO.P,U3,3*%
%TO.N,Net-(J1-Pad23)*%
%TA.AperFunction,ComponentPad*%
G36*
G01*
X155698271Y-105078785D02*
X155698271Y-105078785D01*
G75*
G02*
X154566901Y-105078785I-565685J565685D01*
G01*
X154001215Y-104513099D01*
G75*
G02*
X154001215Y-103381729I565685J565685D01*
G01*
X154001215Y-103381729D01*
G75*
G02*
X155132585Y-103381729I565685J-565685D01*
G01*
X155698271Y-103947415D01*
G75*
G02*
X155698271Y-105078785I-565685J-565685D01*
G01*
G37*
%TD.AperFunction*%
%TO.P,U3,10*%
%TO.N,Net-(J3-Pad1)*%
%TA.AperFunction,ComponentPad*%
G36*
G01*
X157494323Y-92506426D02*
X157494323Y-92506426D01*
G75*
G02*
X156362953Y-92506426I-565685J565685D01*
G01*
X155797267Y-91940740D01*
G75*
G02*
X155797267Y-90809370I565685J565685D01*
G01*
X155797267Y-90809370D01*
G75*
G02*
X156928637Y-90809370I565685J-565685D01*
G01*
X157494323Y-91375056D01*
G75*
G02*
X157494323Y-92506426I-565685J-565685D01*
G01*
G37*
%TD.AperFunction*%
%TO.P,U3,2*%
%TO.N,Net-(J2-Pad6)*%
%TA.AperFunction,ComponentPad*%
G36*
G01*
X153902220Y-106874836D02*
X153902220Y-106874836D01*
G75*
G02*
X152770850Y-106874836I-565685J565685D01*
G01*
X152205164Y-106309150D01*
G75*
G02*
X152205164Y-105177780I565685J565685D01*
G01*
X152205164Y-105177780D01*
G75*
G02*
X153336534Y-105177780I565685J-565685D01*
G01*
X153902220Y-105743466D01*
G75*
G02*
X153902220Y-106874836I-565685J-565685D01*
G01*
G37*
%TD.AperFunction*%
%TO.P,U3,9*%
%TO.N,Net-(U3-Pad9)*%
%TA.AperFunction,ComponentPad*%
G36*
G01*
X159290374Y-90710375D02*
X159290374Y-90710375D01*
G75*
G02*
X158159004Y-90710375I-565685J565685D01*
G01*
X157593318Y-90144689D01*
G75*
G02*
X157593318Y-89013319I565685J565685D01*
G01*
X157593318Y-89013319D01*
G75*
G02*
X158724688Y-89013319I565685J-565685D01*
G01*
X159290374Y-89579005D01*
G75*
G02*
X159290374Y-90710375I-565685J-565685D01*
G01*
G37*
%TD.AperFunction*%
%TA.AperFunction,ComponentPad*%
%TO.P,U3,1*%
%TO.N,Net-(J2-Pad4)*%
G36*
X152671855Y-108105202D02*
G01*
X151540484Y-109236573D01*
X149843427Y-107539516D01*
X150974798Y-106408145D01*
X152671855Y-108105202D01*
G37*
%TD.AperFunction*%
%TD*%
%TO.P,U2,16*%
%TO.N,+5V*%
%TA.AperFunction,ComponentPad*%
G36*
G01*
X128938015Y-103282733D02*
X128938015Y-103282733D01*
G75*
G02*
X127806645Y-103282733I-565685J565685D01*
G01*
X127240959Y-102717047D01*
G75*
G02*
X127240959Y-101585677I565685J565685D01*
G01*
X127240959Y-101585677D01*
G75*
G02*
X128372329Y-101585677I565685J-565685D01*
G01*
X128938015Y-102151363D01*
G75*
G02*
X128938015Y-103282733I-565685J-565685D01*
G01*
G37*
%TD.AperFunction*%
%TO.P,U2,8*%
%TO.N,GND*%
%TA.AperFunction,ComponentPad*%
G36*
G01*
X146898528Y-96098528D02*
X146898528Y-96098528D01*
G75*
G02*
X145767158Y-96098528I-565685J565685D01*
G01*
X145201472Y-95532842D01*
G75*
G02*
X145201472Y-94401472I565685J565685D01*
G01*
X145201472Y-94401472D01*
G75*
G02*
X146332842Y-94401472I565685J-565685D01*
G01*
X146898528Y-94967158D01*
G75*
G02*
X146898528Y-96098528I-565685J-565685D01*
G01*
G37*
%TD.AperFunction*%
%TO.P,U2,15*%
%TO.N,Net-(J1-Pad47)*%
%TA.AperFunction,ComponentPad*%
G36*
G01*
X130734067Y-101486682D02*
X130734067Y-101486682D01*
G75*
G02*
X129602697Y-101486682I-565685J565685D01*
G01*
X129037011Y-100920996D01*
G75*
G02*
X129037011Y-99789626I565685J565685D01*
G01*
X129037011Y-99789626D01*
G75*
G02*
X130168381Y-99789626I565685J-565685D01*
G01*
X130734067Y-100355312D01*
G75*
G02*
X130734067Y-101486682I-565685J-565685D01*
G01*
G37*
%TD.AperFunction*%
%TO.P,U2,7*%
%TO.N,Net-(J1-Pad33)*%
%TA.AperFunction,ComponentPad*%
G36*
G01*
X145102476Y-97894580D02*
X145102476Y-97894580D01*
G75*
G02*
X143971106Y-97894580I-565685J565685D01*
G01*
X143405420Y-97328894D01*
G75*
G02*
X143405420Y-96197524I565685J565685D01*
G01*
X143405420Y-96197524D01*
G75*
G02*
X144536790Y-96197524I565685J-565685D01*
G01*
X145102476Y-96763210D01*
G75*
G02*
X145102476Y-97894580I-565685J-565685D01*
G01*
G37*
%TD.AperFunction*%
%TO.P,U2,14*%
%TO.N,Net-(U1-Pad9)*%
%TA.AperFunction,ComponentPad*%
G36*
G01*
X132530118Y-99690631D02*
X132530118Y-99690631D01*
G75*
G02*
X131398748Y-99690631I-565685J565685D01*
G01*
X130833062Y-99124945D01*
G75*
G02*
X130833062Y-97993575I565685J565685D01*
G01*
X130833062Y-97993575D01*
G75*
G02*
X131964432Y-97993575I565685J-565685D01*
G01*
X132530118Y-98559261D01*
G75*
G02*
X132530118Y-99690631I-565685J-565685D01*
G01*
G37*
%TD.AperFunction*%
%TO.P,U2,6*%
%TO.N,Net-(J1-Pad35)*%
%TA.AperFunction,ComponentPad*%
G36*
G01*
X143306425Y-99690631D02*
X143306425Y-99690631D01*
G75*
G02*
X142175055Y-99690631I-565685J565685D01*
G01*
X141609369Y-99124945D01*
G75*
G02*
X141609369Y-97993575I565685J565685D01*
G01*
X141609369Y-97993575D01*
G75*
G02*
X142740739Y-97993575I565685J-565685D01*
G01*
X143306425Y-98559261D01*
G75*
G02*
X143306425Y-99690631I-565685J-565685D01*
G01*
G37*
%TD.AperFunction*%
%TO.P,U2,13*%
%TO.N,GND*%
%TA.AperFunction,ComponentPad*%
G36*
G01*
X134326169Y-97894580D02*
X134326169Y-97894580D01*
G75*
G02*
X133194799Y-97894580I-565685J565685D01*
G01*
X132629113Y-97328894D01*
G75*
G02*
X132629113Y-96197524I565685J565685D01*
G01*
X132629113Y-96197524D01*
G75*
G02*
X133760483Y-96197524I565685J-565685D01*
G01*
X134326169Y-96763210D01*
G75*
G02*
X134326169Y-97894580I-565685J-565685D01*
G01*
G37*
%TD.AperFunction*%
%TO.P,U2,5*%
%TO.N,Net-(J1-Pad37)*%
%TA.AperFunction,ComponentPad*%
G36*
G01*
X141510374Y-101486682D02*
X141510374Y-101486682D01*
G75*
G02*
X140379004Y-101486682I-565685J565685D01*
G01*
X139813318Y-100920996D01*
G75*
G02*
X139813318Y-99789626I565685J565685D01*
G01*
X139813318Y-99789626D01*
G75*
G02*
X140944688Y-99789626I565685J-565685D01*
G01*
X141510374Y-100355312D01*
G75*
G02*
X141510374Y-101486682I-565685J-565685D01*
G01*
G37*
%TD.AperFunction*%
%TO.P,U2,12*%
%TO.N,Net-(J2-Pad4)*%
%TA.AperFunction,ComponentPad*%
G36*
G01*
X136122220Y-96098528D02*
X136122220Y-96098528D01*
G75*
G02*
X134990850Y-96098528I-565685J565685D01*
G01*
X134425164Y-95532842D01*
G75*
G02*
X134425164Y-94401472I565685J565685D01*
G01*
X134425164Y-94401472D01*
G75*
G02*
X135556534Y-94401472I565685J-565685D01*
G01*
X136122220Y-94967158D01*
G75*
G02*
X136122220Y-96098528I-565685J-565685D01*
G01*
G37*
%TD.AperFunction*%
%TO.P,U2,4*%
%TO.N,Net-(J1-Pad39)*%
%TA.AperFunction,ComponentPad*%
G36*
G01*
X139714323Y-103282733D02*
X139714323Y-103282733D01*
G75*
G02*
X138582953Y-103282733I-565685J565685D01*
G01*
X138017267Y-102717047D01*
G75*
G02*
X138017267Y-101585677I565685J565685D01*
G01*
X138017267Y-101585677D01*
G75*
G02*
X139148637Y-101585677I565685J-565685D01*
G01*
X139714323Y-102151363D01*
G75*
G02*
X139714323Y-103282733I-565685J-565685D01*
G01*
G37*
%TD.AperFunction*%
%TO.P,U2,11*%
%TO.N,Net-(J2-Pad6)*%
%TA.AperFunction,ComponentPad*%
G36*
G01*
X137918271Y-94302477D02*
X137918271Y-94302477D01*
G75*
G02*
X136786901Y-94302477I-565685J565685D01*
G01*
X136221215Y-93736791D01*
G75*
G02*
X136221215Y-92605421I565685J565685D01*
G01*
X136221215Y-92605421D01*
G75*
G02*
X137352585Y-92605421I565685J-565685D01*
G01*
X137918271Y-93171107D01*
G75*
G02*
X137918271Y-94302477I-565685J-565685D01*
G01*
G37*
%TD.AperFunction*%
%TO.P,U2,3*%
%TO.N,Net-(J1-Pad41)*%
%TA.AperFunction,ComponentPad*%
G36*
G01*
X137918271Y-105078785D02*
X137918271Y-105078785D01*
G75*
G02*
X136786901Y-105078785I-565685J565685D01*
G01*
X136221215Y-104513099D01*
G75*
G02*
X136221215Y-103381729I565685J565685D01*
G01*
X136221215Y-103381729D01*
G75*
G02*
X137352585Y-103381729I565685J-565685D01*
G01*
X137918271Y-103947415D01*
G75*
G02*
X137918271Y-105078785I-565685J-565685D01*
G01*
G37*
%TD.AperFunction*%
%TO.P,U2,10*%
%TO.N,Net-(R1-Pad2)*%
%TA.AperFunction,ComponentPad*%
G36*
G01*
X139714323Y-92506426D02*
X139714323Y-92506426D01*
G75*
G02*
X138582953Y-92506426I-565685J565685D01*
G01*
X138017267Y-91940740D01*
G75*
G02*
X138017267Y-90809370I565685J565685D01*
G01*
X138017267Y-90809370D01*
G75*
G02*
X139148637Y-90809370I565685J-565685D01*
G01*
X139714323Y-91375056D01*
G75*
G02*
X139714323Y-92506426I-565685J-565685D01*
G01*
G37*
%TD.AperFunction*%
%TO.P,U2,2*%
%TO.N,Net-(J1-Pad43)*%
%TA.AperFunction,ComponentPad*%
G36*
G01*
X136122220Y-106874836D02*
X136122220Y-106874836D01*
G75*
G02*
X134990850Y-106874836I-565685J565685D01*
G01*
X134425164Y-106309150D01*
G75*
G02*
X134425164Y-105177780I565685J565685D01*
G01*
X134425164Y-105177780D01*
G75*
G02*
X135556534Y-105177780I565685J-565685D01*
G01*
X136122220Y-105743466D01*
G75*
G02*
X136122220Y-106874836I-565685J-565685D01*
G01*
G37*
%TD.AperFunction*%
%TO.P,U2,9*%
%TO.N,Net-(U2-Pad9)*%
%TA.AperFunction,ComponentPad*%
G36*
G01*
X141510374Y-90710375D02*
X141510374Y-90710375D01*
G75*
G02*
X140379004Y-90710375I-565685J565685D01*
G01*
X139813318Y-90144689D01*
G75*
G02*
X139813318Y-89013319I565685J565685D01*
G01*
X139813318Y-89013319D01*
G75*
G02*
X140944688Y-89013319I565685J-565685D01*
G01*
X141510374Y-89579005D01*
G75*
G02*
X141510374Y-90710375I-565685J-565685D01*
G01*
G37*
%TD.AperFunction*%
%TA.AperFunction,ComponentPad*%
%TO.P,U2,1*%
%TO.N,Net-(J1-Pad45)*%
G36*
X134891855Y-108105202D02*
G01*
X133760484Y-109236573D01*
X132063427Y-107539516D01*
X133194798Y-106408145D01*
X134891855Y-108105202D01*
G37*
%TD.AperFunction*%
%TD*%
%TO.P,U1,16*%
%TO.N,+5V*%
%TA.AperFunction,ComponentPad*%
G36*
G01*
X111466169Y-103410374D02*
X111466169Y-103410374D01*
G75*
G02*
X110334799Y-103410374I-565685J565685D01*
G01*
X109769113Y-102844688D01*
G75*
G02*
X109769113Y-101713318I565685J565685D01*
G01*
X109769113Y-101713318D01*
G75*
G02*
X110900483Y-101713318I565685J-565685D01*
G01*
X111466169Y-102279004D01*
G75*
G02*
X111466169Y-103410374I-565685J-565685D01*
G01*
G37*
%TD.AperFunction*%
%TO.P,U1,8*%
%TO.N,GND*%
%TA.AperFunction,ComponentPad*%
G36*
G01*
X129426682Y-96226169D02*
X129426682Y-96226169D01*
G75*
G02*
X128295312Y-96226169I-565685J565685D01*
G01*
X127729626Y-95660483D01*
G75*
G02*
X127729626Y-94529113I565685J565685D01*
G01*
X127729626Y-94529113D01*
G75*
G02*
X128860996Y-94529113I565685J-565685D01*
G01*
X129426682Y-95094799D01*
G75*
G02*
X129426682Y-96226169I-565685J-565685D01*
G01*
G37*
%TD.AperFunction*%
%TO.P,U1,15*%
%TO.N,Net-(J1-Pad63)*%
%TA.AperFunction,ComponentPad*%
G36*
G01*
X113262221Y-101614323D02*
X113262221Y-101614323D01*
G75*
G02*
X112130851Y-101614323I-565685J565685D01*
G01*
X111565165Y-101048637D01*
G75*
G02*
X111565165Y-99917267I565685J565685D01*
G01*
X111565165Y-99917267D01*
G75*
G02*
X112696535Y-99917267I565685J-565685D01*
G01*
X113262221Y-100482953D01*
G75*
G02*
X113262221Y-101614323I-565685J-565685D01*
G01*
G37*
%TD.AperFunction*%
%TO.P,U1,7*%
%TO.N,Net-(J1-Pad49)*%
%TA.AperFunction,ComponentPad*%
G36*
G01*
X127630630Y-98022221D02*
X127630630Y-98022221D01*
G75*
G02*
X126499260Y-98022221I-565685J565685D01*
G01*
X125933574Y-97456535D01*
G75*
G02*
X125933574Y-96325165I565685J565685D01*
G01*
X125933574Y-96325165D01*
G75*
G02*
X127064944Y-96325165I565685J-565685D01*
G01*
X127630630Y-96890851D01*
G75*
G02*
X127630630Y-98022221I-565685J-565685D01*
G01*
G37*
%TD.AperFunction*%
%TO.P,U1,14*%
%TO.N,Net-(J2-Pad1)*%
%TA.AperFunction,ComponentPad*%
G36*
G01*
X115058272Y-99818272D02*
X115058272Y-99818272D01*
G75*
G02*
X113926902Y-99818272I-565685J565685D01*
G01*
X113361216Y-99252586D01*
G75*
G02*
X113361216Y-98121216I565685J565685D01*
G01*
X113361216Y-98121216D01*
G75*
G02*
X114492586Y-98121216I565685J-565685D01*
G01*
X115058272Y-98686902D01*
G75*
G02*
X115058272Y-99818272I-565685J-565685D01*
G01*
G37*
%TD.AperFunction*%
%TO.P,U1,6*%
%TO.N,Net-(J1-Pad51)*%
%TA.AperFunction,ComponentPad*%
G36*
G01*
X125834579Y-99818272D02*
X125834579Y-99818272D01*
G75*
G02*
X124703209Y-99818272I-565685J565685D01*
G01*
X124137523Y-99252586D01*
G75*
G02*
X124137523Y-98121216I565685J565685D01*
G01*
X124137523Y-98121216D01*
G75*
G02*
X125268893Y-98121216I565685J-565685D01*
G01*
X125834579Y-98686902D01*
G75*
G02*
X125834579Y-99818272I-565685J-565685D01*
G01*
G37*
%TD.AperFunction*%
%TO.P,U1,13*%
%TO.N,GND*%
%TA.AperFunction,ComponentPad*%
G36*
G01*
X116854323Y-98022221D02*
X116854323Y-98022221D01*
G75*
G02*
X115722953Y-98022221I-565685J565685D01*
G01*
X115157267Y-97456535D01*
G75*
G02*
X115157267Y-96325165I565685J565685D01*
G01*
X115157267Y-96325165D01*
G75*
G02*
X116288637Y-96325165I565685J-565685D01*
G01*
X116854323Y-96890851D01*
G75*
G02*
X116854323Y-98022221I-565685J-565685D01*
G01*
G37*
%TD.AperFunction*%
%TO.P,U1,5*%
%TO.N,Net-(J1-Pad53)*%
%TA.AperFunction,ComponentPad*%
G36*
G01*
X124038528Y-101614323D02*
X124038528Y-101614323D01*
G75*
G02*
X122907158Y-101614323I-565685J565685D01*
G01*
X122341472Y-101048637D01*
G75*
G02*
X122341472Y-99917267I565685J565685D01*
G01*
X122341472Y-99917267D01*
G75*
G02*
X123472842Y-99917267I565685J-565685D01*
G01*
X124038528Y-100482953D01*
G75*
G02*
X124038528Y-101614323I-565685J-565685D01*
G01*
G37*
%TD.AperFunction*%
%TO.P,U1,12*%
%TO.N,Net-(J2-Pad4)*%
%TA.AperFunction,ComponentPad*%
G36*
G01*
X118650374Y-96226169D02*
X118650374Y-96226169D01*
G75*
G02*
X117519004Y-96226169I-565685J565685D01*
G01*
X116953318Y-95660483D01*
G75*
G02*
X116953318Y-94529113I565685J565685D01*
G01*
X116953318Y-94529113D01*
G75*
G02*
X118084688Y-94529113I565685J-565685D01*
G01*
X118650374Y-95094799D01*
G75*
G02*
X118650374Y-96226169I-565685J-565685D01*
G01*
G37*
%TD.AperFunction*%
%TO.P,U1,4*%
%TO.N,Net-(J1-Pad55)*%
%TA.AperFunction,ComponentPad*%
G36*
G01*
X122242477Y-103410374D02*
X122242477Y-103410374D01*
G75*
G02*
X121111107Y-103410374I-565685J565685D01*
G01*
X120545421Y-102844688D01*
G75*
G02*
X120545421Y-101713318I565685J565685D01*
G01*
X120545421Y-101713318D01*
G75*
G02*
X121676791Y-101713318I565685J-565685D01*
G01*
X122242477Y-102279004D01*
G75*
G02*
X122242477Y-103410374I-565685J-565685D01*
G01*
G37*
%TD.AperFunction*%
%TO.P,U1,11*%
%TO.N,Net-(J2-Pad6)*%
%TA.AperFunction,ComponentPad*%
G36*
G01*
X120446425Y-94430118D02*
X120446425Y-94430118D01*
G75*
G02*
X119315055Y-94430118I-565685J565685D01*
G01*
X118749369Y-93864432D01*
G75*
G02*
X118749369Y-92733062I565685J565685D01*
G01*
X118749369Y-92733062D01*
G75*
G02*
X119880739Y-92733062I565685J-565685D01*
G01*
X120446425Y-93298748D01*
G75*
G02*
X120446425Y-94430118I-565685J-565685D01*
G01*
G37*
%TD.AperFunction*%
%TO.P,U1,3*%
%TO.N,Net-(J1-Pad57)*%
%TA.AperFunction,ComponentPad*%
G36*
G01*
X120446425Y-105206426D02*
X120446425Y-105206426D01*
G75*
G02*
X119315055Y-105206426I-565685J565685D01*
G01*
X118749369Y-104640740D01*
G75*
G02*
X118749369Y-103509370I565685J565685D01*
G01*
X118749369Y-103509370D01*
G75*
G02*
X119880739Y-103509370I565685J-565685D01*
G01*
X120446425Y-104075056D01*
G75*
G02*
X120446425Y-105206426I-565685J-565685D01*
G01*
G37*
%TD.AperFunction*%
%TO.P,U1,10*%
%TO.N,Net-(R1-Pad2)*%
%TA.AperFunction,ComponentPad*%
G36*
G01*
X122242477Y-92634067D02*
X122242477Y-92634067D01*
G75*
G02*
X121111107Y-92634067I-565685J565685D01*
G01*
X120545421Y-92068381D01*
G75*
G02*
X120545421Y-90937011I565685J565685D01*
G01*
X120545421Y-90937011D01*
G75*
G02*
X121676791Y-90937011I565685J-565685D01*
G01*
X122242477Y-91502697D01*
G75*
G02*
X122242477Y-92634067I-565685J-565685D01*
G01*
G37*
%TD.AperFunction*%
%TO.P,U1,2*%
%TO.N,Net-(J1-Pad59)*%
%TA.AperFunction,ComponentPad*%
G36*
G01*
X118650374Y-107002477D02*
X118650374Y-107002477D01*
G75*
G02*
X117519004Y-107002477I-565685J565685D01*
G01*
X116953318Y-106436791D01*
G75*
G02*
X116953318Y-105305421I565685J565685D01*
G01*
X116953318Y-105305421D01*
G75*
G02*
X118084688Y-105305421I565685J-565685D01*
G01*
X118650374Y-105871107D01*
G75*
G02*
X118650374Y-107002477I-565685J-565685D01*
G01*
G37*
%TD.AperFunction*%
%TO.P,U1,9*%
%TO.N,Net-(U1-Pad9)*%
%TA.AperFunction,ComponentPad*%
G36*
G01*
X124038528Y-90838016D02*
X124038528Y-90838016D01*
G75*
G02*
X122907158Y-90838016I-565685J565685D01*
G01*
X122341472Y-90272330D01*
G75*
G02*
X122341472Y-89140960I565685J565685D01*
G01*
X122341472Y-89140960D01*
G75*
G02*
X123472842Y-89140960I565685J-565685D01*
G01*
X124038528Y-89706646D01*
G75*
G02*
X124038528Y-90838016I-565685J-565685D01*
G01*
G37*
%TD.AperFunction*%
%TA.AperFunction,ComponentPad*%
%TO.P,U1,1*%
%TO.N,Net-(J1-Pad61)*%
G36*
X117420009Y-108232843D02*
G01*
X116288638Y-109364214D01*
X114591581Y-107667157D01*
X115722952Y-106535786D01*
X117420009Y-108232843D01*
G37*
%TD.AperFunction*%
%TD*%
D11*
%TO.P,J1,64*%
%TO.N,+5V*%
X102108000Y-115697000D03*
%TO.P,J1,63*%
%TO.N,Net-(J1-Pad63)*%
X102108000Y-113157000D03*
%TO.P,J1,62*%
%TO.N,+5V*%
X104648000Y-115697000D03*
%TO.P,J1,61*%
%TO.N,Net-(J1-Pad61)*%
X104648000Y-113157000D03*
%TO.P,J1,60*%
%TO.N,+5V*%
X107188000Y-115697000D03*
%TO.P,J1,59*%
%TO.N,Net-(J1-Pad59)*%
X107188000Y-113157000D03*
%TO.P,J1,58*%
%TO.N,+5V*%
X109728000Y-115697000D03*
%TO.P,J1,57*%
%TO.N,Net-(J1-Pad57)*%
X109728000Y-113157000D03*
%TO.P,J1,56*%
%TO.N,GND*%
X112268000Y-115697000D03*
%TO.P,J1,55*%
%TO.N,Net-(J1-Pad55)*%
X112268000Y-113157000D03*
%TO.P,J1,54*%
%TO.N,GND*%
X114808000Y-115697000D03*
%TO.P,J1,53*%
%TO.N,Net-(J1-Pad53)*%
X114808000Y-113157000D03*
%TO.P,J1,52*%
%TO.N,GND*%
X117348000Y-115697000D03*
%TO.P,J1,51*%
%TO.N,Net-(J1-Pad51)*%
X117348000Y-113157000D03*
%TO.P,J1,50*%
%TO.N,GND*%
X119888000Y-115697000D03*
%TO.P,J1,49*%
%TO.N,Net-(J1-Pad49)*%
X119888000Y-113157000D03*
%TO.P,J1,48*%
%TO.N,GND*%
X122428000Y-115697000D03*
%TO.P,J1,47*%
%TO.N,Net-(J1-Pad47)*%
X122428000Y-113157000D03*
%TO.P,J1,46*%
%TO.N,GND*%
X124968000Y-115697000D03*
%TO.P,J1,45*%
%TO.N,Net-(J1-Pad45)*%
X124968000Y-113157000D03*
%TO.P,J1,44*%
%TO.N,GND*%
X127508000Y-115697000D03*
%TO.P,J1,43*%
%TO.N,Net-(J1-Pad43)*%
X127508000Y-113157000D03*
%TO.P,J1,42*%
%TO.N,GND*%
X130048000Y-115697000D03*
%TO.P,J1,41*%
%TO.N,Net-(J1-Pad41)*%
X130048000Y-113157000D03*
%TO.P,J1,40*%
%TO.N,GND*%
X132588000Y-115697000D03*
%TO.P,J1,39*%
%TO.N,Net-(J1-Pad39)*%
X132588000Y-113157000D03*
%TO.P,J1,38*%
%TO.N,GND*%
X135128000Y-115697000D03*
%TO.P,J1,37*%
%TO.N,Net-(J1-Pad37)*%
X135128000Y-113157000D03*
%TO.P,J1,36*%
%TO.N,GND*%
X137668000Y-115697000D03*
%TO.P,J1,35*%
%TO.N,Net-(J1-Pad35)*%
X137668000Y-113157000D03*
%TO.P,J1,34*%
%TO.N,GND*%
X140208000Y-115697000D03*
%TO.P,J1,33*%
%TO.N,Net-(J1-Pad33)*%
X140208000Y-113157000D03*
%TO.P,J1,32*%
%TO.N,GND*%
X142748000Y-115697000D03*
%TO.P,J1,31*%
%TO.N,Net-(J1-Pad31)*%
X142748000Y-113157000D03*
%TO.P,J1,30*%
%TO.N,GND*%
X145288000Y-115697000D03*
%TO.P,J1,29*%
%TO.N,Net-(J1-Pad29)*%
X145288000Y-113157000D03*
%TO.P,J1,28*%
%TO.N,GND*%
X147828000Y-115697000D03*
%TO.P,J1,27*%
%TO.N,Net-(J1-Pad27)*%
X147828000Y-113157000D03*
%TO.P,J1,26*%
%TO.N,GND*%
X150368000Y-115697000D03*
%TO.P,J1,25*%
%TO.N,Net-(J1-Pad25)*%
X150368000Y-113157000D03*
%TO.P,J1,24*%
%TO.N,GND*%
X152908000Y-115697000D03*
%TO.P,J1,23*%
%TO.N,Net-(J1-Pad23)*%
X152908000Y-113157000D03*
%TO.P,J1,22*%
%TO.N,GND*%
X155448000Y-115697000D03*
%TO.P,J1,21*%
%TO.N,Net-(J1-Pad21)*%
X155448000Y-113157000D03*
%TO.P,J1,20*%
%TO.N,GND*%
X157988000Y-115697000D03*
%TO.P,J1,19*%
%TO.N,Net-(J1-Pad19)*%
X157988000Y-113157000D03*
%TO.P,J1,18*%
%TO.N,GND*%
X160528000Y-115697000D03*
%TO.P,J1,17*%
%TO.N,Net-(J1-Pad17)*%
X160528000Y-113157000D03*
%TO.P,J1,16*%
%TO.N,GND*%
X163068000Y-115697000D03*
%TO.P,J1,15*%
%TO.N,Net-(J1-Pad15)*%
X163068000Y-113157000D03*
%TO.P,J1,14*%
%TO.N,GND*%
X165608000Y-115697000D03*
%TO.P,J1,13*%
%TO.N,Net-(J1-Pad13)*%
X165608000Y-113157000D03*
%TO.P,J1,12*%
%TO.N,GND*%
X168148000Y-115697000D03*
%TO.P,J1,11*%
%TO.N,Net-(J1-Pad11)*%
X168148000Y-113157000D03*
%TO.P,J1,10*%
%TO.N,GND*%
X170688000Y-115697000D03*
%TO.P,J1,9*%
%TO.N,Net-(J1-Pad9)*%
X170688000Y-113157000D03*
%TO.P,J1,8*%
%TO.N,GND*%
X173228000Y-115697000D03*
%TO.P,J1,7*%
%TO.N,Net-(J1-Pad7)*%
X173228000Y-113157000D03*
%TO.P,J1,6*%
%TO.N,GND*%
X175768000Y-115697000D03*
%TO.P,J1,5*%
%TO.N,Net-(J1-Pad5)*%
X175768000Y-113157000D03*
%TO.P,J1,4*%
%TO.N,GND*%
X178308000Y-115697000D03*
%TO.P,J1,3*%
%TO.N,Net-(J1-Pad3)*%
X178308000Y-113157000D03*
%TO.P,J1,2*%
%TO.N,GND*%
X180848000Y-115697000D03*
D10*
%TO.P,J1,1*%
%TO.N,Net-(J1-Pad1)*%
X180848000Y-113157000D03*
%TD*%
D15*
%TO.N,+5V*%
X101346000Y-107442000D03*
X102235000Y-107442000D03*
%TO.N,Net-(R1-Pad2)*%
X129286000Y-88773000D03*
%TO.N,Net-(U1-Pad9)*%
X131064000Y-91948000D03*
%TO.N,+5V*%
X159639000Y-94615000D03*
X177800000Y-91821000D03*
%TO.N,GND*%
X104013000Y-108712000D03*
X104013000Y-109855000D03*
X161798000Y-110871000D03*
X111760000Y-108331000D03*
X119316500Y-100484398D03*
%TO.N,+3V3*%
X104031000Y-95649000D03*
X106662000Y-95649000D03*
X101219000Y-98425000D03*
X101219000Y-99568000D03*
X106934000Y-98425000D03*
X106934000Y-99568000D03*
X102616000Y-100711000D03*
X105664000Y-100711000D03*
X105664000Y-97409000D03*
X102616000Y-97409000D03*
X104140000Y-103759000D03*
X104140000Y-102616000D03*
X101201000Y-95649000D03*
%TO.N,Net-(D1-Pad2)*%
X166243000Y-88900000D03*
%TD*%
D16*
%TO.N,Net-(J1-Pad63)*%
X108966000Y-106299000D02*
X102108000Y-113157000D01*
X108966000Y-101600000D02*
X108966000Y-106299000D01*
X110617000Y-99949000D02*
X108966000Y-101600000D01*
X111596898Y-99949000D02*
X110617000Y-99949000D01*
X112413693Y-100765795D02*
X111596898Y-99949000D01*
%TO.N,Net-(J1-Pad61)*%
X108585000Y-109220000D02*
X104648000Y-113157000D01*
X114735795Y-109220000D02*
X108585000Y-109220000D01*
X116005795Y-107950000D02*
X114735795Y-109220000D01*
%TO.N,Net-(J1-Pad59)*%
X117348000Y-109855000D02*
X110490000Y-109855000D01*
X118745000Y-108458000D02*
X117348000Y-109855000D01*
X118745000Y-107097103D02*
X118745000Y-108458000D01*
X110490000Y-109855000D02*
X107188000Y-113157000D01*
X117801846Y-106153949D02*
X118745000Y-107097103D01*
%TO.N,Net-(J1-Pad57)*%
X112395000Y-110490000D02*
X109728000Y-113157000D01*
X117602000Y-110490000D02*
X112395000Y-110490000D01*
X120269000Y-107823000D02*
X117602000Y-110490000D01*
X120269000Y-105029001D02*
X120269000Y-107823000D01*
X119597897Y-104357898D02*
X120269000Y-105029001D01*
%TO.N,Net-(J1-Pad55)*%
X114300000Y-111125000D02*
X112268000Y-113157000D01*
X117729000Y-111125000D02*
X114300000Y-111125000D01*
X121793000Y-107061000D02*
X117729000Y-111125000D01*
X121793000Y-102960897D02*
X121793000Y-107061000D01*
X121393949Y-102561846D02*
X121793000Y-102960897D01*
%TO.N,Net-(J1-Pad53)*%
X116205000Y-111760000D02*
X114808000Y-113157000D01*
X117856000Y-111760000D02*
X116205000Y-111760000D01*
X123571000Y-106045000D02*
X117856000Y-111760000D01*
X123571000Y-101146795D02*
X123571000Y-106045000D01*
X123190000Y-100765795D02*
X123571000Y-101146795D01*
%TO.N,Net-(J1-Pad51)*%
X125222000Y-105283000D02*
X117348000Y-113157000D01*
X125222000Y-99205693D02*
X125222000Y-105283000D01*
X124986051Y-98969744D02*
X125222000Y-99205693D01*
%TO.N,Net-(J1-Pad49)*%
X119888000Y-113030000D02*
X119888000Y-113157000D01*
X126238000Y-106680000D02*
X119888000Y-113030000D01*
X126238000Y-100965000D02*
X126238000Y-106680000D01*
X126746000Y-100457000D02*
X126238000Y-100965000D01*
X126746000Y-97209795D02*
X126746000Y-100457000D01*
X126782102Y-97173693D02*
X126746000Y-97209795D01*
%TO.N,Net-(J1-Pad47)*%
X131445000Y-104140000D02*
X122428000Y-113157000D01*
X131445000Y-102197615D02*
X131445000Y-104140000D01*
X129885539Y-100638154D02*
X131445000Y-102197615D01*
%TO.N,Net-(J1-Pad45)*%
X125095000Y-113157000D02*
X124968000Y-113157000D01*
X130429641Y-107822359D02*
X125095000Y-113157000D01*
X133477641Y-107822359D02*
X130429641Y-107822359D01*
%TO.N,Net-(J1-Pad43)*%
X127508000Y-112776000D02*
X127508000Y-113157000D01*
X130302000Y-109982000D02*
X127508000Y-112776000D01*
X134239000Y-109982000D02*
X130302000Y-109982000D01*
X136017000Y-108204000D02*
X134239000Y-109982000D01*
X136017000Y-106769616D02*
X136017000Y-108204000D01*
X135273692Y-106026308D02*
X136017000Y-106769616D01*
%TO.N,Net-(J1-Pad41)*%
X134112000Y-111125000D02*
X132080000Y-111125000D01*
X138049000Y-107188000D02*
X134112000Y-111125000D01*
X138049000Y-105209514D02*
X138049000Y-107188000D01*
X132080000Y-111125000D02*
X130048000Y-113157000D01*
X137069743Y-104230257D02*
X138049000Y-105209514D01*
%TO.N,Net-(J1-Pad39)*%
X133096000Y-113157000D02*
X132588000Y-113157000D01*
X140081000Y-106172000D02*
X133096000Y-113157000D01*
X140081000Y-103649410D02*
X140081000Y-106172000D01*
X138865795Y-102434205D02*
X140081000Y-103649410D01*
%TO.N,Net-(J1-Pad37)*%
X135128000Y-112268000D02*
X135128000Y-113157000D01*
X142240000Y-105156000D02*
X135128000Y-112268000D01*
X142240000Y-102216308D02*
X142240000Y-105156000D01*
X140661846Y-100638154D02*
X142240000Y-102216308D01*
%TO.N,Net-(J1-Pad35)*%
X143256000Y-105283000D02*
X137668000Y-110871000D01*
X143256000Y-99640206D02*
X143256000Y-105283000D01*
X137668000Y-110871000D02*
X137668000Y-113157000D01*
X142457897Y-98842103D02*
X143256000Y-99640206D01*
%TO.N,Net-(J1-Pad33)*%
X140208000Y-109601000D02*
X140208000Y-113157000D01*
X144253948Y-105555052D02*
X140208000Y-109601000D01*
X144253948Y-97046052D02*
X144253948Y-105555052D01*
%TO.N,Net-(J1-Pad31)*%
X149352000Y-101600000D02*
X142748000Y-108204000D01*
X142748000Y-108204000D02*
X142748000Y-113157000D01*
X147320000Y-98552000D02*
X149352000Y-100584000D01*
X151638000Y-92329000D02*
X147320000Y-96647000D01*
X147320000Y-96647000D02*
X147320000Y-98552000D01*
X153543000Y-92329000D02*
X151638000Y-92329000D01*
X149352000Y-100584000D02*
X149352000Y-101600000D01*
X154849743Y-93453949D02*
X153543000Y-92329000D01*
%TO.N,Net-(J1-Pad29)*%
X151384000Y-101282500D02*
X145288000Y-107378500D01*
X151384000Y-99060000D02*
X151384000Y-101282500D01*
X145288000Y-107378500D02*
X145288000Y-113157000D01*
X149606000Y-96393000D02*
X149606000Y-97282000D01*
X151130000Y-94869000D02*
X149606000Y-96393000D01*
X152672692Y-94869000D02*
X151130000Y-94869000D01*
X149606000Y-97282000D02*
X151384000Y-99060000D01*
X153053692Y-95250000D02*
X152672692Y-94869000D01*
%TO.N,Net-(J1-Pad27)*%
X147828000Y-106172000D02*
X147828000Y-113157000D01*
X152527000Y-101473000D02*
X147828000Y-106172000D01*
X152527000Y-98298000D02*
X152527000Y-101473000D01*
X151257641Y-97046052D02*
X152527000Y-98298000D01*
%TO.N,Net-(J1-Pad25)*%
X149098000Y-111887000D02*
X150368000Y-113157000D01*
X149098000Y-105918000D02*
X149098000Y-111887000D01*
X154813000Y-100203000D02*
X149098000Y-105918000D01*
X154813000Y-95250000D02*
X154813000Y-100203000D01*
X153035000Y-93472000D02*
X154813000Y-95250000D01*
X151511000Y-93472000D02*
X153035000Y-93472000D01*
X148336000Y-96647000D02*
X151511000Y-93472000D01*
X148336000Y-97917000D02*
X148336000Y-96647000D01*
X149461590Y-98842103D02*
X148336000Y-97917000D01*
%TO.N,Net-(J1-Pad23)*%
X154849743Y-111215257D02*
X152908000Y-113157000D01*
X154849743Y-104230257D02*
X154849743Y-111215257D01*
%TO.N,Net-(J1-Pad21)*%
X156645795Y-111959205D02*
X155448000Y-113157000D01*
X156645795Y-102434205D02*
X156645795Y-111959205D01*
%TO.N,Net-(J1-Pad19)*%
X158441846Y-112703154D02*
X157988000Y-113157000D01*
X158441846Y-100638154D02*
X158441846Y-112703154D01*
%TO.N,Net-(J1-Pad17)*%
X160528000Y-99132206D02*
X160528000Y-113157000D01*
X160237897Y-98842103D02*
X160528000Y-99132206D01*
%TO.N,Net-(J1-Pad15)*%
X167132000Y-102870000D02*
X163068000Y-106934000D01*
X167132000Y-100711000D02*
X167132000Y-102870000D01*
X165354000Y-98933000D02*
X167132000Y-100711000D01*
X163068000Y-106934000D02*
X163068000Y-113157000D01*
X165354000Y-96647000D02*
X165354000Y-98933000D01*
X169291000Y-92710000D02*
X165354000Y-96647000D01*
X171577000Y-92710000D02*
X169291000Y-92710000D01*
X172502102Y-93581590D02*
X171577000Y-92710000D01*
%TO.N,Net-(J1-Pad13)*%
X164846000Y-106172000D02*
X164846000Y-110617000D01*
X165608000Y-111379000D02*
X165608000Y-113157000D01*
X168783000Y-102235000D02*
X164846000Y-106172000D01*
X168783000Y-98933000D02*
X168783000Y-102235000D01*
X167132000Y-96647000D02*
X167132000Y-97282000D01*
X164846000Y-110617000D02*
X165608000Y-111379000D01*
X169164000Y-94615000D02*
X167132000Y-96647000D01*
X167132000Y-97282000D02*
X168783000Y-98933000D01*
X169943410Y-94615000D02*
X169164000Y-94615000D01*
X170706051Y-95377641D02*
X169943410Y-94615000D01*
%TO.N,Net-(J1-Pad11)*%
X168148000Y-112225667D02*
X168148000Y-113157000D01*
X165862000Y-109939667D02*
X168148000Y-112225667D01*
X165862000Y-106299000D02*
X165862000Y-109939667D01*
X170053000Y-102108000D02*
X165862000Y-106299000D01*
X170053000Y-98316693D02*
X170053000Y-102108000D01*
X168910000Y-97173693D02*
X170053000Y-98316693D01*
%TO.N,Net-(J1-Pad9)*%
X166878000Y-106680000D02*
X166878000Y-109093000D01*
X174879000Y-98679000D02*
X166878000Y-106680000D01*
X174879000Y-97790000D02*
X174879000Y-98679000D01*
X170688000Y-93599000D02*
X174879000Y-97790000D01*
X169291000Y-93599000D02*
X170688000Y-93599000D01*
X165989000Y-96901000D02*
X169291000Y-93599000D01*
X170688000Y-112903000D02*
X170688000Y-113157000D01*
X165989000Y-98044000D02*
X165989000Y-96901000D01*
X166878000Y-109093000D02*
X170688000Y-112903000D01*
X167113949Y-98969744D02*
X165989000Y-98044000D01*
%TO.N,Net-(J1-Pad7)*%
X173228000Y-105083796D02*
X173228000Y-113157000D01*
X172502102Y-104357898D02*
X173228000Y-105083796D01*
%TO.N,Net-(J1-Pad5)*%
X175768000Y-104031692D02*
X175768000Y-113157000D01*
X174298154Y-102561846D02*
X175768000Y-104031692D01*
%TO.N,Net-(J1-Pad3)*%
X178308000Y-102979590D02*
X178308000Y-113157000D01*
X176094205Y-100765795D02*
X178308000Y-102979590D01*
%TO.N,Net-(J1-Pad1)*%
X180848000Y-101927488D02*
X180848000Y-113157000D01*
X177890256Y-98969744D02*
X180848000Y-101927488D01*
%TO.N,Net-(U1-Pad9)*%
X131064000Y-98224513D02*
X131681590Y-98842103D01*
X131064000Y-91948000D02*
X131064000Y-98224513D01*
%TO.N,Net-(U3-Pad9)*%
X160673693Y-87630000D02*
X158441846Y-89861847D01*
X170142615Y-87630000D02*
X160673693Y-87630000D01*
X174298154Y-91785539D02*
X170142615Y-87630000D01*
%TO.N,Net-(J2-Pad8)*%
X102743000Y-89535000D02*
X101473000Y-90805000D01*
X102743000Y-87503000D02*
X102743000Y-89535000D01*
X103378000Y-86868000D02*
X102743000Y-87503000D01*
X131563000Y-86868000D02*
X103378000Y-86868000D01*
X132325000Y-87630000D02*
X131563000Y-86868000D01*
%TO.N,Net-(J2-Pad6)*%
X120142000Y-94125693D02*
X119597897Y-93581590D01*
X120142000Y-95885000D02*
X120142000Y-94125693D01*
X115062000Y-100965000D02*
X120142000Y-95885000D01*
X114554000Y-100965000D02*
X115062000Y-100965000D01*
X110998000Y-97409000D02*
X114554000Y-100965000D01*
X110998000Y-93091000D02*
X110998000Y-97409000D01*
X110236000Y-92329000D02*
X110998000Y-93091000D01*
X105537000Y-92329000D02*
X110236000Y-92329000D01*
X104013000Y-90805000D02*
X105537000Y-92329000D01*
%TO.N,Net-(J2-Pad1)*%
X111836679Y-89484679D02*
X111836679Y-96596679D01*
X111836679Y-96596679D02*
X114209744Y-98969744D01*
X110617000Y-88265000D02*
X111836679Y-89484679D01*
X109093000Y-88265000D02*
X110617000Y-88265000D01*
D17*
%TO.N,+5V*%
X102108000Y-115697000D02*
X109728000Y-115697000D01*
D16*
X162306000Y-89916000D02*
X160475432Y-91641432D01*
D18*
X158644864Y-93472000D02*
X158623000Y-93472000D01*
X160475432Y-91641432D02*
X158644864Y-93472000D01*
D16*
X154813000Y-91567000D02*
X154813000Y-90364734D01*
X156972000Y-93726000D02*
X154813000Y-91567000D01*
X158369000Y-93726000D02*
X156972000Y-93726000D01*
X158623000Y-93472000D02*
X158369000Y-93726000D01*
D18*
X158623000Y-93599000D02*
X160718500Y-95694500D01*
X158623000Y-93472000D02*
X158623000Y-93599000D01*
D16*
X158877000Y-92075000D02*
X158877000Y-93218000D01*
X156591000Y-89789000D02*
X158877000Y-92075000D01*
X155448000Y-89789000D02*
X156591000Y-89789000D01*
X161163000Y-95250000D02*
X160718500Y-95694500D01*
X162052000Y-95250000D02*
X161163000Y-95250000D01*
X163703000Y-96901000D02*
X162052000Y-95250000D01*
X162814000Y-98806000D02*
X163703000Y-97917000D01*
X161925000Y-98806000D02*
X162814000Y-98806000D01*
X160147000Y-97028000D02*
X161925000Y-98806000D01*
X163703000Y-97917000D02*
X163703000Y-96901000D01*
X160147000Y-96266000D02*
X160147000Y-97028000D01*
X160718500Y-95694500D02*
X160147000Y-96266000D01*
D18*
X163322000Y-98298000D02*
X163449000Y-98425000D01*
X163521846Y-98497846D02*
X163322000Y-98298000D01*
X163521846Y-102561846D02*
X163521846Y-98497846D01*
X155181567Y-90030567D02*
X153035000Y-87884000D01*
X155448000Y-89789000D02*
X155181567Y-90030567D01*
X155181567Y-90030567D02*
X154813000Y-90364734D01*
X136779000Y-87884000D02*
X133858000Y-90805000D01*
X142568432Y-91768432D02*
X144018000Y-90424000D01*
X144018000Y-90424000D02*
X144018000Y-87884000D01*
X144018000Y-87884000D02*
X136779000Y-87884000D01*
X153035000Y-87884000D02*
X144018000Y-87884000D01*
X133858000Y-90805000D02*
X129286000Y-90814000D01*
X125147568Y-92022432D02*
X125169432Y-92022432D01*
X113665000Y-103505000D02*
X125147568Y-92022432D01*
X111560795Y-103505000D02*
X113665000Y-103505000D01*
X110617641Y-102561846D02*
X111560795Y-103505000D01*
X126386864Y-90805000D02*
X125169432Y-92022432D01*
X129277000Y-90805000D02*
X126386864Y-90805000D01*
X129286000Y-90814000D02*
X129277000Y-90805000D01*
X101840000Y-105360000D02*
X101346000Y-107442000D01*
X101840000Y-105360000D02*
X102235000Y-107442000D01*
%TO.N,GND*%
X182880000Y-114300000D02*
X181483000Y-115697000D01*
X181483000Y-115697000D02*
X180848000Y-115697000D01*
X182880000Y-96775282D02*
X182880000Y-114300000D01*
X181482359Y-95377641D02*
X182880000Y-96775282D01*
D17*
X112268000Y-115697000D02*
X161798000Y-115697000D01*
D16*
X161798000Y-115697000D02*
X161798000Y-110871000D01*
D17*
X161798000Y-115697000D02*
X180848000Y-115697000D01*
D18*
X163830000Y-95250000D02*
X161925000Y-93091000D01*
D16*
%TO.N,Net-(R4-Pad1)*%
X134375000Y-87621000D02*
X134375000Y-87630000D01*
X135128000Y-86868000D02*
X134375000Y-87621000D01*
X172972717Y-86868000D02*
X135128000Y-86868000D01*
X176094205Y-89989488D02*
X172972717Y-86868000D01*
D18*
%TO.N,GND*%
X144018000Y-93218000D02*
X146050000Y-95250000D01*
D16*
X146558000Y-99530615D02*
X147665539Y-100638154D01*
X146558000Y-95758000D02*
X146558000Y-99530615D01*
X146050000Y-95250000D02*
X146558000Y-95758000D01*
D18*
X133495693Y-97028000D02*
X133477641Y-97046052D01*
X140208000Y-97028000D02*
X133495693Y-97028000D01*
X144018000Y-93218000D02*
X140208000Y-97028000D01*
X106440000Y-106285000D02*
X104013000Y-108712000D01*
X106440000Y-105360000D02*
X106440000Y-106285000D01*
X106440000Y-107428000D02*
X106440000Y-105360000D01*
X104013000Y-109855000D02*
X106440000Y-107428000D01*
X181482359Y-95377641D02*
X179324000Y-93218000D01*
X166243000Y-101690897D02*
X165317898Y-100765795D01*
X161798000Y-106807000D02*
X166243000Y-102362000D01*
X166243000Y-102362000D02*
X166243000Y-101690897D01*
X161798000Y-110871000D02*
X161798000Y-106807000D01*
X164592000Y-96012000D02*
X163830000Y-95250000D01*
X164592000Y-100039897D02*
X164592000Y-96012000D01*
X165317898Y-100765795D02*
X164592000Y-100039897D01*
D16*
X161798000Y-110871000D02*
X161798000Y-110871000D01*
D18*
X111760000Y-108331000D02*
X111760000Y-108331000D01*
X119316500Y-100774500D02*
X111760000Y-108331000D01*
X119316500Y-100484398D02*
X119316500Y-100774500D01*
X127942513Y-94742000D02*
X128578154Y-95377641D01*
X119606602Y-100484398D02*
X125349000Y-94742000D01*
X125349000Y-94742000D02*
X127942513Y-94742000D01*
X119316500Y-100484398D02*
X119606602Y-100484398D01*
%TO.N,+3V3*%
X104140000Y-105360000D02*
X104140000Y-103759000D01*
X104140000Y-103759000D02*
X104140000Y-102616000D01*
X104140000Y-102616000D02*
X104140000Y-99060000D01*
D16*
%TO.N,Net-(D1-Pad2)*%
X165862000Y-89281000D02*
X165862000Y-89281000D01*
X163755568Y-91365568D02*
X166221136Y-88900000D01*
X166221136Y-88900000D02*
X166243000Y-88900000D01*
%TD*%
D19*
%TO.N,+3V3*%
X105038254Y-92902859D02*
X105085966Y-92942014D01*
X105112724Y-92963974D01*
X105244753Y-93034546D01*
X105388014Y-93078003D01*
X105499667Y-93089000D01*
X105499676Y-93089000D01*
X105536999Y-93092676D01*
X105574322Y-93089000D01*
X109921199Y-93089000D01*
X110109000Y-93276801D01*
X110109000Y-99382736D01*
X110076999Y-99408999D01*
X110053201Y-99437997D01*
X108455003Y-101036196D01*
X108425999Y-101059999D01*
X108370871Y-101127174D01*
X108331026Y-101175724D01*
X108310321Y-101214460D01*
X108260454Y-101307754D01*
X108216997Y-101451015D01*
X108206000Y-101562668D01*
X108206000Y-101562678D01*
X108202324Y-101600000D01*
X108206000Y-101637323D01*
X108206000Y-103759000D01*
X107396276Y-103759000D01*
X107314482Y-103734188D01*
X107190000Y-103721928D01*
X105690000Y-103721928D01*
X105565518Y-103734188D01*
X105483724Y-103759000D01*
X102796276Y-103759000D01*
X102714482Y-103734188D01*
X102590000Y-103721928D01*
X101090000Y-103721928D01*
X100965518Y-103734188D01*
X100883724Y-103759000D01*
X99720000Y-103759000D01*
X99720000Y-92840291D01*
X105038254Y-92902859D01*
%TA.AperFunction,Conductor*%
D20*
G36*
X105038254Y-92902859D02*
G01*
X105085966Y-92942014D01*
X105112724Y-92963974D01*
X105244753Y-93034546D01*
X105388014Y-93078003D01*
X105499667Y-93089000D01*
X105499676Y-93089000D01*
X105536999Y-93092676D01*
X105574322Y-93089000D01*
X109921199Y-93089000D01*
X110109000Y-93276801D01*
X110109000Y-99382736D01*
X110076999Y-99408999D01*
X110053201Y-99437997D01*
X108455003Y-101036196D01*
X108425999Y-101059999D01*
X108370871Y-101127174D01*
X108331026Y-101175724D01*
X108310321Y-101214460D01*
X108260454Y-101307754D01*
X108216997Y-101451015D01*
X108206000Y-101562668D01*
X108206000Y-101562678D01*
X108202324Y-101600000D01*
X108206000Y-101637323D01*
X108206000Y-103759000D01*
X107396276Y-103759000D01*
X107314482Y-103734188D01*
X107190000Y-103721928D01*
X105690000Y-103721928D01*
X105565518Y-103734188D01*
X105483724Y-103759000D01*
X102796276Y-103759000D01*
X102714482Y-103734188D01*
X102590000Y-103721928D01*
X101090000Y-103721928D01*
X100965518Y-103734188D01*
X100883724Y-103759000D01*
X99720000Y-103759000D01*
X99720000Y-92840291D01*
X105038254Y-92902859D01*
G37*
%TD.AperFunction*%
%TD*%
M02*
