%TF.GenerationSoftware,KiCad,Pcbnew,5.1.9+dfsg1-1+deb11u1*%
%TF.CreationDate,2025-02-02T16:03:13-08:00*%
%TF.ProjectId,esp01Expander,65737030-3145-4787-9061-6e6465722e6b,rev?*%
%TF.SameCoordinates,Original*%
%TF.FileFunction,Paste,Top*%
%TF.FilePolarity,Positive*%
%FSLAX46Y46*%
G04 Gerber Fmt 4.6, Leading zero omitted, Abs format (unit mm)*
G04 Created by KiCad (PCBNEW 5.1.9+dfsg1-1+deb11u1) date 2025-02-02 16:03:13*
%MOMM*%
%LPD*%
G01*
G04 APERTURE LIST*
%ADD10C,0.100000*%
G04 APERTURE END LIST*
%TO.C,C2*%
G36*
G01*
X108527001Y-94174000D02*
X107626999Y-94174000D01*
G75*
G02*
X107377000Y-93924001I0J249999D01*
G01*
X107377000Y-93273999D01*
G75*
G02*
X107626999Y-93024000I249999J0D01*
G01*
X108527001Y-93024000D01*
G75*
G02*
X108777000Y-93273999I0J-249999D01*
G01*
X108777000Y-93924001D01*
G75*
G02*
X108527001Y-94174000I-249999J0D01*
G01*
G37*
G36*
G01*
X108527001Y-96224000D02*
X107626999Y-96224000D01*
G75*
G02*
X107377000Y-95974001I0J249999D01*
G01*
X107377000Y-95323999D01*
G75*
G02*
X107626999Y-95074000I249999J0D01*
G01*
X108527001Y-95074000D01*
G75*
G02*
X108777000Y-95323999I0J-249999D01*
G01*
X108777000Y-95974001D01*
G75*
G02*
X108527001Y-96224000I-249999J0D01*
G01*
G37*
%TD*%
%TO.C,D1*%
G36*
G01*
X168850000Y-88449999D02*
X168850000Y-89350001D01*
G75*
G02*
X168600001Y-89600000I-249999J0D01*
G01*
X167949999Y-89600000D01*
G75*
G02*
X167700000Y-89350001I0J249999D01*
G01*
X167700000Y-88449999D01*
G75*
G02*
X167949999Y-88200000I249999J0D01*
G01*
X168600001Y-88200000D01*
G75*
G02*
X168850000Y-88449999I0J-249999D01*
G01*
G37*
G36*
G01*
X170900000Y-88449999D02*
X170900000Y-89350001D01*
G75*
G02*
X170650001Y-89600000I-249999J0D01*
G01*
X169999999Y-89600000D01*
G75*
G02*
X169750000Y-89350001I0J249999D01*
G01*
X169750000Y-88449999D01*
G75*
G02*
X169999999Y-88200000I249999J0D01*
G01*
X170650001Y-88200000D01*
G75*
G02*
X170900000Y-88449999I0J-249999D01*
G01*
G37*
%TD*%
D10*
%TO.C,SW1*%
G36*
X113066284Y-93264056D02*
G01*
X114126944Y-94324716D01*
X113066284Y-95385376D01*
X112005624Y-94324716D01*
X113066284Y-93264056D01*
G37*
G36*
X118581716Y-87748624D02*
G01*
X119642376Y-88809284D01*
X118581716Y-89869944D01*
X117521056Y-88809284D01*
X118581716Y-87748624D01*
G37*
%TD*%
%TO.C,R3*%
G36*
G01*
X102292999Y-95065000D02*
X103193001Y-95065000D01*
G75*
G02*
X103443000Y-95314999I0J-249999D01*
G01*
X103443000Y-95965001D01*
G75*
G02*
X103193001Y-96215000I-249999J0D01*
G01*
X102292999Y-96215000D01*
G75*
G02*
X102043000Y-95965001I0J249999D01*
G01*
X102043000Y-95314999D01*
G75*
G02*
X102292999Y-95065000I249999J0D01*
G01*
G37*
G36*
G01*
X102292999Y-93015000D02*
X103193001Y-93015000D01*
G75*
G02*
X103443000Y-93264999I0J-249999D01*
G01*
X103443000Y-93915001D01*
G75*
G02*
X103193001Y-94165000I-249999J0D01*
G01*
X102292999Y-94165000D01*
G75*
G02*
X102043000Y-93915001I0J249999D01*
G01*
X102043000Y-93264999D01*
G75*
G02*
X102292999Y-93015000I249999J0D01*
G01*
G37*
%TD*%
%TO.C,R2*%
G36*
G01*
X104832999Y-95074000D02*
X105733001Y-95074000D01*
G75*
G02*
X105983000Y-95323999I0J-249999D01*
G01*
X105983000Y-95974001D01*
G75*
G02*
X105733001Y-96224000I-249999J0D01*
G01*
X104832999Y-96224000D01*
G75*
G02*
X104583000Y-95974001I0J249999D01*
G01*
X104583000Y-95323999D01*
G75*
G02*
X104832999Y-95074000I249999J0D01*
G01*
G37*
G36*
G01*
X104832999Y-93024000D02*
X105733001Y-93024000D01*
G75*
G02*
X105983000Y-93273999I0J-249999D01*
G01*
X105983000Y-93924001D01*
G75*
G02*
X105733001Y-94174000I-249999J0D01*
G01*
X104832999Y-94174000D01*
G75*
G02*
X104583000Y-93924001I0J249999D01*
G01*
X104583000Y-93273999D01*
G75*
G02*
X104832999Y-93024000I249999J0D01*
G01*
G37*
%TD*%
M02*
